<svg width="500" height="461" viewBox="0 0 500 461" fill="none" xmlns="http://www.w3.org/2000/svg">
<path d="M250 448.936C388.071 448.936 500 433.329 500 414.077C500 394.825 388.071 379.219 250 379.219C111.929 379.219 0 394.825 0 414.077C0 433.329 111.929 448.936 250 448.936Z" fill="#00B2D0"/>
<path opacity="0.5" d="M250 448.936C388.071 448.936 500 433.329 500 414.077C500 394.825 388.071 379.219 250 379.219C111.929 379.219 0 394.825 0 414.077C0 433.329 111.929 448.936 250 448.936Z" fill="white"/>
<path d="M357.157 47.672C354.717 53.5108 345.795 57.8681 335.174 57.8681C324.553 57.8681 315.632 53.5108 313.192 47.6829" stroke="#263238" stroke-miterlimit="10"/>
<path d="M357.157 47.672C357.594 46.638 357.82 45.5268 357.821 44.404C357.821 41.3539 356.1 38.5435 353.192 36.2995" stroke="#263238" stroke-miterlimit="10"/>
<path d="M313.192 47.672C312.749 46.6396 312.523 45.5273 312.527 44.404C312.527 41.3539 314.248 38.5435 317.146 36.2995" stroke="#263238" stroke-miterlimit="10"/>
<path d="M313.192 47.672C310.436 50.0359 308.834 52.8572 308.834 55.8855C308.834 64.1208 320.632 70.7984 335.185 70.7984C349.738 70.7984 361.525 64.1208 361.525 55.8855C361.525 52.8572 359.924 50.0359 357.168 47.672" stroke="#263238" stroke-miterlimit="10"/>
<path d="M320.523 43.4999C323.791 46.5936 329.139 48.6088 335.174 48.6088C341.209 48.6088 346.547 46.5936 349.815 43.4999" stroke="#263238" stroke-miterlimit="10"/>
<path d="M353.192 36.343C353.192 33.1513 351.383 30.2537 348.442 28.0751" stroke="#263238" stroke-miterlimit="10"/>
<path d="M349.815 43.4999C350.84 42.6075 351.67 41.5133 352.253 40.2856C352.836 39.0579 353.159 37.7232 353.202 36.3648V36.3648" stroke="#263238" stroke-miterlimit="10"/>
<path d="M320.523 43.4999C319.499 42.607 318.671 41.5124 318.09 40.2847C317.509 39.0569 317.188 37.7225 317.146 36.3648V36.3648" stroke="#263238" stroke-miterlimit="10"/>
<path d="M321.895 28.0751C318.954 30.2537 317.157 33.1513 317.146 36.343" stroke="#263238" stroke-miterlimit="10"/>
<path d="M321.895 28.0751C321.895 27.9443 321.895 27.8245 321.895 27.6938C321.895 24.7526 323.736 22.1274 326.623 20.3626" stroke="#263238" stroke-miterlimit="10"/>
<path d="M346.405 32.8136C347.599 31.5089 348.317 29.8391 348.442 28.0751" stroke="#263238" stroke-miterlimit="10"/>
<path d="M323.943 32.8136C326.296 35.4934 330.479 37.2908 335.174 37.2908C339.869 37.2908 344.052 35.4934 346.405 32.8136" stroke="#263238" stroke-miterlimit="10"/>
<path d="M323.943 32.8136C322.742 31.5128 322.02 29.8415 321.895 28.0751" stroke="#263238" stroke-miterlimit="10"/>
<path d="M343.747 20.3626C346.634 22.1274 348.475 24.72 348.475 27.6938C348.475 27.8245 348.475 27.9443 348.475 28.0751" stroke="#263238" stroke-miterlimit="10"/>
<path d="M326.993 25.4498C327.636 27.0977 328.76 28.5136 330.219 29.5125C331.679 30.5114 333.406 31.0469 335.174 31.0489" stroke="#263238" stroke-miterlimit="10"/>
<path d="M343.747 20.3626C343.316 18.4104 342.231 16.664 340.672 15.4121C339.113 14.1602 337.174 13.4778 335.174 13.4778C333.175 13.4778 331.236 14.1602 329.677 15.4121C328.118 16.664 327.033 18.4104 326.601 20.3626" stroke="#263238" stroke-miterlimit="10"/>
<path d="M343.344 25.4498C342.704 27.0968 341.582 28.5124 340.124 29.5113C338.666 30.5103 336.941 31.0462 335.174 31.0489" stroke="#263238" stroke-miterlimit="10"/>
<path d="M343.747 20.3626C343.882 20.9891 343.952 21.6281 343.954 22.269C343.954 23.3583 343.747 24.4377 343.344 25.4498" stroke="#263238" stroke-miterlimit="10"/>
<path d="M326.993 25.4498C326.599 24.4355 326.396 23.3571 326.394 22.269C326.397 21.6281 326.466 20.9891 326.601 20.3626" stroke="#263238" stroke-miterlimit="10"/>
<path d="M454.03 53.3038L466.972 61.0162C467.846 61.5407 468.816 61.8871 469.825 62.0357C470.835 62.1842 471.863 62.132 472.852 61.882C473.841 61.632 474.771 61.1892 475.588 60.5788C476.405 59.9685 477.094 59.2028 477.614 58.3256C477.669 58.2385 477.701 58.1513 477.756 58.0751" stroke="#263238" stroke-miterlimit="10"/>
<path d="M465.142 41.8441L450.512 33.1186" stroke="#263238" stroke-miterlimit="10"/>
<path d="M425.686 35.1448C426.348 36.3592 427.322 37.3746 428.508 38.086L436.786 43.0206" stroke="#263238" stroke-miterlimit="10"/>
<path d="M425.686 35.1448C424.862 33.6521 424.553 31.9294 424.807 30.2434C425.06 28.5573 425.862 27.0018 427.089 25.8174C428.315 24.6331 429.898 23.8859 431.592 23.6914C433.286 23.497 434.997 23.8661 436.46 24.7417L450.512 33.1186" stroke="#263238" stroke-miterlimit="10"/>
<path d="M465.141 41.8441L474.945 47.672C476.672 48.7021 477.932 50.3619 478.461 52.3021C478.989 54.2423 478.744 56.3117 477.778 58.0751" stroke="#263238" stroke-miterlimit="10"/>
<path d="M425.686 35.1448C424.716 36.9063 424.468 38.9757 424.994 40.9165C425.521 42.8573 426.78 44.5179 428.508 45.5478L432.124 47.7265" stroke="#263238" stroke-miterlimit="10"/>
<path d="M449.03 57.7809L466.972 68.4781C468.435 69.3487 470.145 69.7141 471.836 69.518C473.528 69.3219 475.109 68.5751 476.334 67.3927C477.56 66.2103 478.363 64.6578 478.62 62.9742C478.877 61.2906 478.573 59.5692 477.756 58.0751" stroke="#263238" stroke-miterlimit="10"/>
<path d="M430.022 56.147C430.171 56.6896 430.368 57.2181 430.61 57.7265" stroke="#263238" stroke-miterlimit="10"/>
<path d="M466.231 24.2515C465.643 24.5021 465.076 24.7526 464.553 25.0141" stroke="#263238" stroke-miterlimit="10"/>
<path d="M470.25 35.5914C468.769 37.5849 466.982 39.7091 465.141 41.8441" stroke="#263238" stroke-miterlimit="10"/>
<path d="M448.388 58.3147L449.03 57.7809L454.03 53.3038L436.819 43.0206L432.157 47.7047C431.255 48.7388 430.519 49.9076 429.978 51.1687" stroke="#263238" stroke-miterlimit="10"/>
<path d="M442.157 62.1492C439.458 62.9264 436.565 62.65 434.063 61.3757" stroke="#263238" stroke-miterlimit="10"/>
<path d="M474.194 29.2951C474.735 28.2902 475.023 27.1685 475.033 26.0271C475.032 25.5685 474.934 25.1151 474.747 24.6966C474.559 24.2781 474.285 23.9037 473.943 23.5979" stroke="#263238" stroke-miterlimit="10"/>
<path d="M450.512 33.1186C456.547 29.306 461.536 26.5827 461.536 26.5827C461.536 26.5827 462.778 25.8202 464.51 24.9814" stroke="#263238" stroke-miterlimit="10"/>
<path d="M473.921 23.5762C473.976 20.7439 473.921 11.8877 471.351 11.8877C469.477 11.8877 467.462 18.8485 466.187 24.2515" stroke="#263238" stroke-miterlimit="10"/>
<path d="M473.922 23.5761C473.922 24.1099 473.922 24.4367 473.922 24.4367L464.891 30.4607C464.891 30.4607 465.403 27.672 466.209 24.2515" stroke="#263238" stroke-miterlimit="10"/>
<path d="M474.194 29.2951L474.03 29.1535L468.279 34.6001C468.279 34.6001 469.074 35.0359 470.25 35.5914" stroke="#263238" stroke-miterlimit="10"/>
<path d="M470.25 35.5914C473.224 36.9966 478.693 39.1535 480.555 37.0511C481.536 35.9618 475.261 30.2428 474.194 29.2951" stroke="#263238" stroke-miterlimit="10"/>
<path d="M464.51 25.0141C461.362 24.1208 453.682 22.0838 454.172 23.5544C454.782 25.3953 457.854 28.4563 457.854 28.4563" stroke="#263238" stroke-miterlimit="10"/>
<path d="M430.022 56.147C430.425 56.5282 430.806 56.8659 431.111 57.1709" stroke="#263238" stroke-miterlimit="10"/>
<path d="M429.989 51.1688C428.006 46.6154 425.229 41.9857 422.658 43.903C419.837 46.0163 426.176 52.6176 430.022 56.147" stroke="#263238" stroke-miterlimit="10"/>
<path d="M429.989 51.1687C430.915 53.2711 431.656 55.3626 432.168 56.7679" stroke="#263238" stroke-miterlimit="10"/>
<path d="M434.717 59.0663C437.985 58.4236 444.837 57.2799 448.388 58.3147" stroke="#263238" stroke-miterlimit="10"/>
<path d="M434.64 60.0467C437.093 60.8725 439.587 61.5671 442.113 62.1274" stroke="#263238" stroke-miterlimit="10"/>
<path d="M448.388 58.3147C449.858 58.7396 450.773 59.5348 450.566 60.8964C450.272 63.2276 446.209 63.0097 442.124 62.1491" stroke="#263238" stroke-miterlimit="10"/>
<path d="M431.285 61.8223C429.967 67.0511 428.246 76.2123 432.375 75.9836C435.85 75.8093 434.368 67.1165 433.181 61.964" stroke="#263238" stroke-miterlimit="10"/>
<path d="M431.285 61.8223C430.901 61.5587 430.588 61.2036 430.375 60.7891C430.162 60.3746 430.056 59.9136 430.065 59.4476C430.062 58.831 430.252 58.2289 430.61 57.7265" stroke="#263238" stroke-miterlimit="10"/>
<path d="M430.61 57.7265C430.756 57.5132 430.937 57.3255 431.144 57.1709" stroke="#263238" stroke-miterlimit="10"/>
<path d="M434.64 60.0467C434.549 60.5284 434.335 60.9785 434.02 61.3539" stroke="#263238" stroke-miterlimit="10"/>
<path d="M432.135 56.7788C432.226 56.7728 432.317 56.7728 432.407 56.7788C433.01 56.8201 433.577 57.0796 434.002 57.5087C434.427 57.9377 434.681 58.507 434.717 59.1099" stroke="#263238" stroke-miterlimit="10"/>
<path d="M434.64 60.0467C434.684 59.8427 434.706 59.6345 434.706 59.4258C434.706 59.2951 434.706 59.1753 434.706 59.0446" stroke="#263238" stroke-miterlimit="10"/>
<path d="M431.285 61.8223C431.612 62.0296 431.988 62.1462 432.375 62.16C432.653 62.1578 432.927 62.0985 433.181 61.9857" stroke="#263238" stroke-miterlimit="10"/>
<path d="M433.213 61.9858C433.542 61.8544 433.834 61.6451 434.063 61.3757" stroke="#263238" stroke-miterlimit="10"/>
<path d="M431.144 57.1709C431.434 56.9533 431.775 56.8145 432.135 56.7679" stroke="#263238" stroke-miterlimit="10"/>
<path d="M344.455 369.36L317.876 356.615V323.315L344.455 336.06V369.36Z" stroke="#263238" stroke-linejoin="round"/>
<path d="M344.455 336.06L370.556 327.236V358.674L344.455 369.36V336.06Z" stroke="#263238" stroke-linejoin="round"/>
<path d="M317.876 323.315L343.606 315.079L370.555 327.236L344.455 336.06L317.876 323.315Z" stroke="#263238" stroke-linejoin="round"/>
<path d="M340.316 346.648V359.96C340.316 360.395 340.076 360.526 339.641 360.341L335.381 358.522C335.182 358.45 335.011 358.318 334.89 358.144C334.769 357.971 334.704 357.764 334.706 357.552V356.594C334.706 356.398 334.586 356.299 334.423 356.398C333.192 357.204 331.351 357.084 328.976 356.038C325.076 354.328 322.168 351.18 322.168 347.073C322.168 342.966 325.076 341.899 330.447 344.252L334.477 346.016C334.597 346.016 334.717 346.016 334.717 345.875V345.047C334.672 344.108 334.343 343.205 333.773 342.458C333.203 341.711 332.419 341.155 331.525 340.864C329.935 340.156 328.856 340.243 328.497 341.049C328.344 341.376 328.105 341.43 327.701 341.212L323.279 338.718C322.887 338.5 322.603 338.184 322.647 337.879C323.039 334.753 326.59 333.87 331.362 335.984C336.656 338.238 340.316 342.792 340.316 346.648ZM334.706 351.005V349.6C334.7 349.527 334.675 349.458 334.633 349.398C334.59 349.339 334.533 349.292 334.466 349.262L331.634 348.021C329.248 346.931 327.767 347.247 327.767 348.914C327.852 349.714 328.164 350.473 328.665 351.102C329.167 351.731 329.838 352.204 330.599 352.465C332.832 353.489 334.706 352.999 334.706 351.049V351.005Z" stroke="#263238" stroke-miterlimit="10"/>
<path d="M368.083 346.724C368.11 348.437 367.882 350.144 367.407 351.79C366.868 353.77 365.9 355.608 364.571 357.173C363.242 358.737 361.584 359.99 359.717 360.842C357.603 361.724 356.176 361.485 355.174 360.591C355.054 360.482 354.902 360.591 354.902 360.787V361.877C354.907 362.089 354.843 362.298 354.719 362.471C354.595 362.644 354.419 362.772 354.216 362.835L349.956 364.611C349.521 364.796 349.281 364.611 349.281 364.219V337.672C349.279 337.462 349.343 337.256 349.464 337.084C349.585 336.912 349.757 336.782 349.956 336.713L354.216 334.938C354.662 334.753 354.902 334.938 354.902 335.33V343.533C354.902 343.74 355.054 343.75 355.174 343.533C356.228 341.79 357.824 340.439 359.717 339.687C363.388 338.162 366.176 339.23 367.342 342.095C367.9 343.572 368.152 345.147 368.083 346.724V346.724ZM362.19 349.306C362.289 347.972 361.953 346.642 361.231 345.515C360.876 345.146 360.406 344.911 359.898 344.847C359.391 344.784 358.877 344.896 358.442 345.167C357.258 345.702 356.309 346.651 355.773 347.835C355.183 349.241 354.897 350.756 354.935 352.28C354.846 353.537 355.122 354.793 355.73 355.896C356.029 356.313 356.473 356.603 356.974 356.71C357.476 356.817 357.999 356.733 358.442 356.474C359.752 355.912 360.794 354.866 361.351 353.554C361.919 352.211 362.205 350.765 362.19 349.306V349.306Z" stroke="#263238" stroke-miterlimit="10"/>
<path d="M338.377 329.589C336.922 329.123 335.528 328.483 334.227 327.683C333.168 327.12 332.238 326.345 331.492 325.406C330.12 323.413 331.786 321.398 336.068 320.09C340.294 318.818 344.792 318.754 349.052 319.905C349.476 320.02 349.888 320.173 350.283 320.363C350.621 320.526 350.556 320.711 350.218 320.864L346.492 322.432C346.321 322.51 346.136 322.55 345.948 322.55C345.76 322.55 345.574 322.51 345.403 322.432L344.88 322.225C343.154 321.706 341.312 321.706 339.586 322.225C337.876 322.759 337.353 323.533 337.963 324.339C338.509 324.996 339.179 325.54 339.935 325.94C340.82 326.487 341.762 326.937 342.745 327.28C344.47 327.854 346.329 327.885 348.072 327.367C349.749 326.855 350.359 326.027 349.749 325.188C349.722 325.148 349.689 325.111 349.651 325.079C349.564 325.003 349.532 324.687 350.033 324.589L354.706 323.587C354.889 323.536 355.082 323.525 355.27 323.555C355.458 323.585 355.637 323.655 355.795 323.761C355.983 323.886 356.146 324.045 356.274 324.23C357.767 326.191 355.806 328.206 351.656 329.48C347.33 330.78 342.723 330.818 338.377 329.589V329.589Z" stroke="#263238" stroke-miterlimit="10"/>
<path d="M166.667 333.358L174.194 326.31C174.385 326.134 174.529 325.914 174.615 325.669C174.7 325.424 174.724 325.162 174.684 324.905L173.203 314.709C173.16 314.416 173.199 314.117 173.317 313.845C173.435 313.573 173.627 313.34 173.87 313.171C174.114 313.002 174.399 312.905 174.695 312.89C174.991 312.875 175.285 312.943 175.545 313.086L184.575 318.064C184.803 318.185 185.058 318.249 185.316 318.249C185.574 318.249 185.828 318.185 186.057 318.064L195.283 313.456C195.549 313.323 195.846 313.266 196.142 313.293C196.438 313.32 196.72 313.429 196.957 313.608C197.194 313.787 197.376 314.029 197.483 314.307C197.589 314.584 197.616 314.886 197.56 315.177L195.61 325.308C195.557 325.561 195.568 325.823 195.642 326.07C195.716 326.318 195.851 326.542 196.035 326.724L203.268 334.066C203.478 334.278 203.625 334.544 203.692 334.834C203.758 335.125 203.742 335.428 203.644 335.71C203.546 335.992 203.371 336.24 203.139 336.427C202.907 336.614 202.627 336.732 202.331 336.768L192.102 338.042C191.847 338.074 191.602 338.166 191.39 338.312C191.177 338.458 191.003 338.653 190.882 338.881L186.133 348.042C185.996 348.306 185.787 348.526 185.532 348.677C185.276 348.829 184.983 348.905 184.685 348.898C184.388 348.892 184.099 348.802 183.85 348.639C183.602 348.476 183.404 348.247 183.279 347.977L178.922 338.642C178.813 338.408 178.649 338.205 178.444 338.049C178.239 337.893 177.999 337.79 177.745 337.748L167.571 336.06C167.28 336.015 167.007 335.892 166.781 335.702C166.556 335.512 166.387 335.264 166.294 334.985C166.201 334.706 166.186 334.406 166.252 334.119C166.317 333.832 166.461 333.569 166.667 333.358V333.358Z" stroke="#263238" stroke-miterlimit="10"/>
<path d="M196.819 366.55L200.436 363.173C200.526 363.088 200.596 362.982 200.637 362.864C200.679 362.747 200.692 362.621 200.675 362.498L199.935 357.607C199.917 357.47 199.936 357.331 199.991 357.205C200.046 357.079 200.134 356.97 200.245 356.889C200.357 356.809 200.488 356.76 200.625 356.748C200.762 356.737 200.9 356.762 201.024 356.822L205.381 359.208C205.492 359.267 205.615 359.298 205.741 359.298C205.866 359.298 205.99 359.267 206.1 359.208L210.523 357.029C210.65 356.966 210.793 356.939 210.935 356.952C211.076 356.965 211.212 357.018 211.325 357.104C211.438 357.19 211.525 357.307 211.576 357.44C211.627 357.573 211.639 357.717 211.612 357.857L210.675 362.726C210.653 362.847 210.66 362.972 210.696 363.09C210.732 363.207 210.796 363.314 210.882 363.402L214.357 366.931C214.458 367.032 214.529 367.16 214.561 367.299C214.593 367.438 214.586 367.584 214.539 367.719C214.493 367.854 214.409 367.974 214.298 368.063C214.187 368.153 214.053 368.21 213.911 368.228L208.998 368.838C208.874 368.854 208.755 368.9 208.653 368.972C208.55 369.044 208.467 369.14 208.41 369.252L206.133 373.609C206.07 373.738 205.973 373.846 205.852 373.923C205.73 373.999 205.59 374.039 205.447 374.039C205.303 374.039 205.163 373.999 205.042 373.923C204.92 373.846 204.823 373.738 204.76 373.609L202.658 369.121C202.606 369.008 202.527 368.909 202.428 368.834C202.329 368.758 202.214 368.707 202.091 368.685L197.211 367.879C197.069 367.854 196.937 367.79 196.83 367.694C196.722 367.598 196.644 367.474 196.603 367.336C196.562 367.198 196.561 367.051 196.599 366.912C196.637 366.773 196.714 366.648 196.819 366.55V366.55Z" stroke="#263238" stroke-miterlimit="10"/>
<path d="M53.1481 196.496L45.4684 203.391C45.2762 203.562 45.1289 203.778 45.0396 204.019C44.9504 204.26 44.9218 204.52 44.9564 204.774L46.2745 215.003C46.3125 215.297 46.2673 215.596 46.1442 215.866C46.0212 216.136 45.825 216.367 45.578 216.531C45.3309 216.695 45.0428 216.787 44.7463 216.796C44.4497 216.805 44.1565 216.731 43.8998 216.583L34.9782 211.463C34.7562 211.33 34.5044 211.254 34.2457 211.243C33.9871 211.231 33.7296 211.284 33.4967 211.398L24.183 215.82C23.9139 215.945 23.6153 215.993 23.3205 215.959C23.0257 215.924 22.7463 215.808 22.5136 215.624C22.2808 215.44 22.1038 215.195 22.0024 214.916C21.9009 214.637 21.879 214.335 21.939 214.045L24.1176 203.957C24.1705 203.705 24.1614 203.443 24.0912 203.194C24.0211 202.946 23.8918 202.718 23.7146 202.53L16.634 195.036C16.4276 194.822 16.2858 194.554 16.2251 194.262C16.1643 193.971 16.187 193.669 16.2906 193.39C16.3942 193.111 16.5744 192.867 16.8105 192.686C17.0466 192.505 17.3291 192.395 17.6253 192.367L27.8867 191.278C28.1424 191.25 28.3878 191.162 28.602 191.02C28.8163 190.877 28.9931 190.686 29.1176 190.461L34.0523 181.408C34.1943 181.147 34.4068 180.93 34.6656 180.784C34.9245 180.637 35.2194 180.566 35.5167 180.578C35.814 180.591 36.1018 180.686 36.3475 180.854C36.5931 181.022 36.7867 181.256 36.9063 181.528L41.0893 190.951C41.1905 191.187 41.3491 191.395 41.5507 191.555C41.7523 191.714 41.9906 191.821 42.244 191.866L52.3856 193.772C52.6718 193.831 52.9363 193.967 53.1501 194.167C53.3638 194.366 53.5186 194.62 53.5974 194.901C53.6762 195.183 53.6759 195.48 53.5967 195.762C53.5174 196.043 53.3622 196.297 53.1481 196.496V196.496Z" stroke="#263238" stroke-miterlimit="10"/>
<path d="M23.7036 162.683L20.0217 165.951C19.9292 166.033 19.858 166.136 19.8144 166.252C19.7707 166.368 19.7559 166.493 19.7712 166.615L20.4139 171.528C20.4316 171.67 20.4093 171.813 20.3496 171.942C20.2899 172.072 20.1951 172.182 20.076 172.26C19.9569 172.338 19.8183 172.382 19.6759 172.385C19.5334 172.389 19.3928 172.352 19.2701 172.28L14.989 169.807C14.8784 169.748 14.755 169.717 14.6296 169.717C14.5042 169.717 14.3807 169.748 14.2701 169.807L9.80386 171.942C9.67463 172.008 9.52932 172.036 9.38497 172.022C9.24061 172.008 9.1032 171.953 8.98885 171.864C8.8745 171.775 8.78796 171.655 8.73938 171.518C8.69079 171.382 8.68217 171.234 8.71454 171.092L9.7494 166.245C9.77518 166.123 9.77078 165.997 9.73661 165.877C9.70243 165.758 9.6395 165.648 9.55332 165.559L6.15462 161.964C6.05584 161.86 5.9882 161.731 5.95942 161.591C5.93065 161.451 5.9419 161.305 5.9919 161.171C6.0419 161.037 6.12863 160.92 6.24217 160.833C6.3557 160.746 6.49146 160.692 6.63393 160.679L11.5577 160.167C11.6808 160.151 11.7987 160.108 11.9025 160.04C12.0063 159.972 12.0933 159.881 12.1568 159.774L14.5206 155.417C14.588 155.29 14.6898 155.185 14.8142 155.114C14.9386 155.043 15.0807 155.008 15.224 155.013C15.3674 155.019 15.5062 155.065 15.6246 155.146C15.7429 155.227 15.836 155.34 15.8932 155.472L17.8975 159.992C17.9493 160.107 18.0278 160.207 18.1264 160.285C18.2249 160.362 18.3407 160.415 18.464 160.439L23.3224 161.354C23.4658 161.377 23.5999 161.44 23.7087 161.536C23.8175 161.632 23.8966 161.757 23.9366 161.897C23.9767 162.036 23.976 162.185 23.9348 162.324C23.8935 162.463 23.8133 162.588 23.7036 162.683V162.683Z" stroke="#263238" stroke-miterlimit="10"/>
<path d="M221.307 73.7287L214.183 72.2908C214.005 72.2519 213.819 72.2585 213.644 72.3099C213.469 72.3613 213.31 72.4558 213.181 72.5849L207.963 77.6393C207.818 77.7995 207.628 77.9128 207.418 77.9649C207.209 78.017 206.988 78.0055 206.785 77.932C206.582 77.8584 206.405 77.726 206.277 77.5517C206.15 77.3774 206.076 77.169 206.067 76.9531L205.229 69.7308C205.21 69.5497 205.147 69.376 205.044 69.2256C204.941 69.0753 204.803 68.9531 204.64 68.8703L198.257 65.4934C198.063 65.4045 197.899 65.2603 197.786 65.0789C197.673 64.8975 197.615 64.6869 197.621 64.4732C197.627 64.2595 197.696 64.0523 197.818 63.8773C197.941 63.7023 198.113 63.5672 198.312 63.489L204.924 60.4607C205.092 60.3879 205.239 60.2738 205.351 60.1291C205.463 59.9844 205.538 59.8137 205.566 59.6328L206.786 52.4215C206.808 52.2055 206.894 52.0009 207.032 51.8339C207.171 51.6669 207.357 51.5452 207.565 51.4843C207.773 51.4234 207.995 51.4262 208.202 51.4922C208.409 51.5583 208.591 51.6846 208.725 51.855L213.638 57.2145C213.76 57.3498 213.913 57.4525 214.084 57.5134C214.255 57.5743 214.439 57.5914 214.619 57.5631L221.819 56.55C222.026 56.518 222.237 56.5461 222.428 56.6308C222.619 56.7155 222.781 56.8533 222.896 57.0278C223.011 57.2023 223.073 57.4061 223.075 57.615C223.077 57.8238 223.02 58.0289 222.908 58.2058L219.335 64.5457C219.255 64.7063 219.213 64.8834 219.213 65.0631C219.213 65.2427 219.255 65.4199 219.335 65.5805L222.527 72.1165C222.639 72.3029 222.693 72.5185 222.681 72.7357C222.67 72.9529 222.593 73.1616 222.462 73.335C222.331 73.5084 222.151 73.6386 221.945 73.7088C221.739 73.7789 221.517 73.7858 221.307 73.7287V73.7287Z" stroke="#263238" stroke-miterlimit="10"/>
<path d="M228.039 42.8572L224.619 42.16C224.533 42.1446 224.445 42.1493 224.362 42.1739C224.279 42.1985 224.203 42.2423 224.139 42.3017L221.634 44.7309C221.561 44.8001 221.47 44.8477 221.372 44.8685C221.273 44.8893 221.171 44.8823 221.076 44.8485C220.981 44.8146 220.898 44.7552 220.835 44.6767C220.772 44.5983 220.732 44.5039 220.719 44.4041L220.316 40.94C220.311 40.853 220.284 40.7688 220.236 40.6961C220.188 40.6233 220.122 40.5646 220.044 40.5261L216.95 38.8812C216.86 38.8372 216.785 38.769 216.732 38.6843C216.679 38.5996 216.651 38.5017 216.651 38.4019C216.651 38.302 216.679 38.2042 216.732 38.1194C216.785 38.0347 216.86 37.9665 216.95 37.9226L220.131 36.4629C220.209 36.4264 220.277 36.3718 220.331 36.3036C220.384 36.2354 220.42 36.1556 220.436 36.0707L221.035 32.6285C221.054 32.5309 221.1 32.4405 221.167 32.3671C221.234 32.2937 221.32 32.2401 221.415 32.212C221.511 32.184 221.612 32.1826 221.708 32.208C221.804 32.2334 221.892 32.2846 221.961 32.3561L224.401 34.9269C224.459 34.9913 224.532 35.0407 224.614 35.071C224.695 35.1013 224.783 35.1117 224.869 35.1012L228.333 34.611C228.432 34.5996 228.532 34.6152 228.622 34.6563C228.712 34.6974 228.79 34.7624 228.846 34.8443C228.902 34.9261 228.934 35.0217 228.94 35.1207C228.946 35.2198 228.924 35.3185 228.878 35.4062L227.157 38.4563C227.117 38.5338 227.096 38.6197 227.096 38.7069C227.096 38.7941 227.117 38.88 227.157 38.9574L228.693 42.0838C228.744 42.18 228.766 42.2895 228.754 42.398C228.743 42.5065 228.699 42.6091 228.629 42.6925C228.558 42.7758 228.464 42.8361 228.359 42.8655C228.254 42.8948 228.143 42.892 228.039 42.8572V42.8572Z" stroke="#263238" stroke-miterlimit="10"/>
<path d="M358.921 258.554L351.852 257.106C351.673 257.074 351.49 257.084 351.316 257.135C351.142 257.186 350.983 257.277 350.85 257.4L345.632 262.454C345.487 262.614 345.299 262.727 345.09 262.779C344.881 262.832 344.661 262.821 344.459 262.749C344.256 262.677 344.079 262.546 343.95 262.373C343.822 262.201 343.747 261.994 343.736 261.779L342.897 254.557C342.879 254.375 342.816 254.202 342.713 254.051C342.61 253.901 342.471 253.779 342.309 253.696L335.893 250.286C335.695 250.199 335.528 250.055 335.413 249.872C335.297 249.69 335.238 249.477 335.244 249.26C335.25 249.044 335.32 248.835 335.445 248.659C335.571 248.483 335.745 248.348 335.948 248.271L342.56 245.254C342.728 245.181 342.875 245.067 342.987 244.922C343.1 244.777 343.174 244.607 343.203 244.426L344.455 237.269C344.477 237.053 344.562 236.848 344.701 236.681C344.84 236.514 345.025 236.393 345.234 236.332C345.442 236.271 345.664 236.274 345.871 236.34C346.077 236.406 346.26 236.532 346.394 236.703L351.307 242.051C351.431 242.184 351.584 242.286 351.754 242.348C351.925 242.41 352.107 242.432 352.287 242.411L359.488 241.387C359.696 241.353 359.909 241.38 360.102 241.465C360.295 241.55 360.459 241.689 360.574 241.866C360.69 242.042 360.751 242.248 360.752 242.459C360.752 242.67 360.692 242.876 360.577 243.053L357.004 249.382C356.914 249.55 356.866 249.737 356.866 249.927C356.866 250.117 356.914 250.304 357.004 250.472L360.196 257.008C360.294 257.197 360.335 257.411 360.312 257.624C360.29 257.836 360.206 258.037 360.07 258.202C359.934 258.367 359.753 258.488 359.549 258.551C359.344 258.613 359.126 258.615 358.921 258.554V258.554Z" stroke="#263238" stroke-miterlimit="10"/>
<path d="M365.653 227.672L362.233 226.986C362.148 226.967 362.059 226.971 361.975 226.996C361.892 227.02 361.815 227.066 361.754 227.127L359.248 229.546C359.176 229.615 359.086 229.662 358.988 229.684C358.891 229.705 358.789 229.699 358.694 229.666C358.6 229.634 358.516 229.576 358.453 229.499C358.389 229.422 358.348 229.329 358.333 229.23L357.93 225.755C357.922 225.667 357.892 225.583 357.843 225.511C357.793 225.438 357.726 225.38 357.647 225.341L354.564 223.707C354.475 223.661 354.4 223.592 354.348 223.506C354.295 223.421 354.268 223.322 354.268 223.222C354.268 223.122 354.295 223.024 354.348 222.938C354.4 222.853 354.475 222.783 354.564 222.737L357.734 221.289C357.814 221.253 357.885 221.199 357.94 221.131C357.995 221.063 358.033 220.982 358.05 220.896L358.649 217.454C358.668 217.357 358.714 217.266 358.781 217.193C358.848 217.119 358.934 217.066 359.03 217.038C359.125 217.01 359.226 217.008 359.322 217.034C359.419 217.059 359.506 217.11 359.575 217.182L361.939 219.753C361.997 219.817 362.07 219.866 362.152 219.897C362.233 219.927 362.321 219.937 362.407 219.927L365.871 219.437C365.971 219.421 366.073 219.434 366.166 219.474C366.258 219.514 366.338 219.579 366.395 219.662C366.452 219.746 366.484 219.843 366.488 219.944C366.491 220.045 366.467 220.145 366.416 220.232L364.695 223.271C364.655 223.349 364.634 223.435 364.634 223.522C364.634 223.609 364.655 223.695 364.695 223.772L366.22 226.909C366.263 226.998 366.282 227.096 366.273 227.194C366.264 227.292 366.228 227.385 366.17 227.464C366.111 227.543 366.032 227.604 365.941 227.641C365.85 227.677 365.75 227.688 365.653 227.672V227.672Z" stroke="#263238" stroke-miterlimit="10"/>
<path d="M95.0762 58.2929L98.2352 59.1426" stroke="#263238" stroke-miterlimit="10"/>
<path d="M112.549 62.9988L116.067 63.9465" stroke="#263238" stroke-miterlimit="10"/>
<path d="M115.741 68.3692L110.49 66.9531" stroke="#263238" stroke-miterlimit="10"/>
<path d="M74.9454 57.3779L78.8452 58.4237" stroke="#263238" stroke-miterlimit="10"/>
<path d="M76.9498 53.4128L80.7625 54.4367" stroke="#263238" stroke-miterlimit="10"/>
<path d="M93.0718 62.2581L97.2003 63.3801" stroke="#263238" stroke-miterlimit="10"/>
<path d="M88.6491 38.8594L85.2286 37.062" stroke="#263238" stroke-miterlimit="10"/>
<path d="M123.725 52.4324L118.769 49.818" stroke="#263238" stroke-miterlimit="10"/>
<path d="M101.492 45.635L104.325 47.1274" stroke="#263238" stroke-miterlimit="10"/>
<path d="M106.732 43.4672L103.464 41.7461" stroke="#263238" stroke-miterlimit="10"/>
<path d="M120.305 55.5478L117.168 53.8921" stroke="#263238" stroke-miterlimit="10"/>
<path d="M87.2004 33.1731L90.6209 34.9814" stroke="#263238" stroke-miterlimit="10"/>
<path d="M87.2004 33.1731L89.0632 29.5457C89.8397 27.8407 89.9266 25.9013 89.3055 24.1338C88.6845 22.3662 87.4038 20.9074 85.7314 20.0627C84.0591 19.2181 82.1249 19.0532 80.3337 19.6025C78.5425 20.1518 77.0333 21.3728 76.122 23.0097L60.1743 54.404C59.3457 56.1171 59.2234 58.0872 59.8337 59.8897C60.444 61.6921 61.738 63.1826 63.4369 64.0399C65.1358 64.8972 67.1035 65.0527 68.916 64.4728C70.7285 63.893 72.2405 62.6242 73.1263 60.94L74.9455 57.3561" stroke="#263238" stroke-miterlimit="10"/>
<path d="M74.9454 57.3779L76.9498 53.4128" stroke="#263238" stroke-miterlimit="10"/>
<path d="M87.2003 33.1731L85.2286 37.062" stroke="#263238" stroke-miterlimit="10"/>
<path d="M85.2287 37.062L76.9498 53.4128" stroke="#263238" stroke-miterlimit="10"/>
<path d="M93.0718 62.2581L95.0761 58.2929" stroke="#263238" stroke-miterlimit="10"/>
<path d="M103.464 41.7461L101.492 45.635" stroke="#263238" stroke-miterlimit="10"/>
<path d="M101.492 45.635L95.0762 58.2929" stroke="#263238" stroke-miterlimit="10"/>
<path d="M88.6492 38.8594L80.7625 54.4367" stroke="#263238" stroke-miterlimit="10"/>
<path d="M103.486 41.7461L103.769 41.1905C104.217 40.3382 104.491 39.4052 104.575 38.4459C104.659 37.4865 104.551 36.5201 104.258 35.6028C103.964 34.6856 103.491 33.836 102.866 33.1036C102.241 32.3711 101.476 31.7704 100.616 31.3366C99.7566 30.9027 98.8191 30.6444 97.8585 30.5766C96.8979 30.5088 95.9334 30.633 95.0212 30.9418C94.1091 31.2507 93.2676 31.738 92.5457 32.3755C91.8239 33.0129 91.2362 33.7877 90.8169 34.6546L90.6426 35.0032" stroke="#263238" stroke-miterlimit="10"/>
<path d="M90.6209 34.9814L88.6492 38.8594" stroke="#263238" stroke-miterlimit="10"/>
<path d="M80.7624 54.4367L79.2592 57.4106C79.0915 57.7354 78.953 58.0744 78.8452 58.4237" stroke="#263238" stroke-miterlimit="10"/>
<path d="M78.8452 58.4237C78.2882 60.1569 78.4032 62.0362 79.1674 63.6886C79.9315 65.341 81.289 66.6457 82.9704 67.3438C84.6518 68.0419 86.5342 68.0823 88.244 67.457C89.9538 66.8317 91.366 65.5864 92.2004 63.9683L93.0718 62.2581" stroke="#263238" stroke-miterlimit="10"/>
<path d="M118.736 49.818C118.924 48.3564 118.662 46.8722 117.984 45.5636C117.306 44.2551 116.246 43.1843 114.944 42.4942C113.642 41.8041 112.16 41.5275 110.697 41.7014C109.233 41.8752 107.858 42.4913 106.754 43.4672" stroke="#263238" stroke-miterlimit="10"/>
<path d="M117.168 53.8921L118.061 52.1382C118.429 51.4116 118.669 50.6265 118.769 49.818" stroke="#263238" stroke-miterlimit="10"/>
<path d="M106.754 43.4672C106.091 44.0689 105.541 44.7847 105.131 45.5805L104.346 47.1274" stroke="#263238" stroke-miterlimit="10"/>
<path d="M117.168 53.8921L112.549 62.9988" stroke="#263238" stroke-miterlimit="10"/>
<path d="M110.49 66.953C110.644 66.7212 110.786 66.4812 110.915 66.2341L112.549 62.9661" stroke="#263238" stroke-miterlimit="10"/>
<path d="M97.2004 63.3801C97.1245 62.0987 97.3914 60.8203 97.9738 59.6764L98.2352 59.1426" stroke="#263238" stroke-miterlimit="10"/>
<path d="M98.2352 59.1426L104.325 47.1273" stroke="#263238" stroke-miterlimit="10"/>
<path d="M97.2004 63.3801C97.2708 64.5779 97.6371 65.7396 98.2666 66.7611C98.8962 67.7826 99.7692 68.632 100.808 69.2333C101.846 69.8345 103.017 70.1688 104.217 70.2062C105.416 70.2436 106.606 69.983 107.68 69.4476C108.821 68.8804 109.791 68.0194 110.49 66.953" stroke="#263238" stroke-miterlimit="10"/>
<path d="M115.741 68.3692C116.083 69.8152 116.862 71.1209 117.971 72.1094C119.081 73.0978 120.468 73.7211 121.943 73.8947C123.419 74.0683 124.913 73.7839 126.221 73.08C127.53 72.376 128.591 71.2867 129.259 69.9596L133.105 62.3343C133.775 61.0018 134.019 59.4949 133.803 58.0189C133.586 56.5429 132.92 55.1695 131.894 54.0858C130.869 53.0022 129.535 52.2609 128.073 51.9631C126.611 51.6653 125.093 51.8253 123.725 52.4215" stroke="#263238" stroke-miterlimit="10"/>
<path d="M120.305 55.5478L120.163 55.8093L116.318 63.4345C116.224 63.6108 116.14 63.7927 116.068 63.9792" stroke="#263238" stroke-miterlimit="10"/>
<path d="M123.725 52.4215C122.278 53.0629 121.078 54.156 120.305 55.5369" stroke="#263238" stroke-miterlimit="10"/>
<path d="M115.741 68.3692C115.382 66.8973 115.496 65.3496 116.067 63.9465" stroke="#263238" stroke-miterlimit="10"/>
<path d="M70.5664 53.2929C70.7489 53.6197 70.8294 53.9936 70.7975 54.3665C70.7655 54.7394 70.6227 55.0942 70.3873 55.3852C70.1518 55.6761 69.8347 55.8899 69.4767 55.999C69.1187 56.1081 68.7362 56.1074 68.3785 55.9971C68.0209 55.8868 67.7045 55.672 67.47 55.3802C67.2356 55.0884 67.094 54.7332 67.0633 54.3601C67.0326 53.9871 67.1144 53.6135 67.298 53.2874C67.4817 52.9613 67.7588 52.6976 68.0936 52.5304C68.3057 52.4167 68.5383 52.3462 68.7779 52.323C69.0174 52.2998 69.2592 52.3244 69.4892 52.3953C69.7192 52.4662 69.9328 52.5821 70.1177 52.7362C70.3026 52.8903 70.4551 53.0795 70.5664 53.2929Z" stroke="#263238" stroke-miterlimit="10"/>
<path d="M89.6295 57.3997C89.7321 57.6184 89.7903 57.8552 89.8009 58.0966C89.8115 58.3379 89.7742 58.5789 89.6911 58.8058C89.6081 59.0326 89.481 59.2408 89.3171 59.4182C89.1532 59.5957 88.9558 59.739 88.7363 59.8398C88.3116 60.0507 87.8205 60.0842 87.3711 59.9331C86.9217 59.7819 86.5507 59.4584 86.3398 59.0337C86.1289 58.609 86.0953 58.1179 86.2465 57.6685C86.3977 57.219 86.7212 56.8481 87.1459 56.6372C87.5771 56.4129 88.0792 56.3671 88.5439 56.5098C89.0085 56.6525 89.3985 56.9721 89.6295 57.3997Z" stroke="#263238" stroke-miterlimit="10"/>
<path d="M106.351 62.4651C106.535 62.9063 106.545 63.4012 106.379 63.8496C106.212 64.2979 105.881 64.6661 105.453 64.8794C105.025 65.0928 104.532 65.1354 104.073 64.9986C103.615 64.8617 103.226 64.5557 102.985 64.1426C102.8 63.7014 102.79 63.2064 102.957 62.7581C103.123 62.3097 103.454 61.9416 103.882 61.7282C104.311 61.5149 104.804 61.4723 105.262 61.6091C105.72 61.7459 106.11 62.0519 106.351 62.4651V62.4651Z" stroke="#263238" stroke-miterlimit="10"/>
<path d="M82.2113 28.4563C82.396 28.7847 82.478 29.1608 82.4468 29.5363C82.4156 29.9117 82.2726 30.2691 82.0363 30.5625C81.8 30.8558 81.4811 31.0716 81.1209 31.182C80.7608 31.2924 80.3758 31.2923 80.0156 31.1818C79.6555 31.0712 79.3368 30.8552 79.1006 30.5617C78.8644 30.2683 78.7216 29.9107 78.6906 29.5353C78.6596 29.1599 78.7418 28.7838 78.9267 28.4555C79.1115 28.1273 79.3905 27.862 79.7276 27.6938C80.1583 27.4666 80.6614 27.4193 81.1269 27.5622C81.5924 27.7051 81.9823 28.0266 82.2113 28.4563V28.4563Z" stroke="#263238" stroke-miterlimit="10"/>
<path d="M99.4117 39.3496C99.5975 39.678 99.6804 40.0546 99.6498 40.4307C99.6192 40.8068 99.4764 41.165 99.2398 41.459C99.0033 41.753 98.684 41.9692 98.3232 42.0796C97.9624 42.1901 97.5767 42.1897 97.2162 42.0785C96.8556 41.9673 96.5367 41.7505 96.3008 41.456C96.0649 41.1615 95.9228 40.803 95.8929 40.4269C95.863 40.0507 95.9467 39.6743 96.1332 39.3463C96.3197 39.0182 96.6004 38.7538 96.9389 38.5871C97.151 38.4733 97.3836 38.4028 97.6231 38.3796C97.8627 38.3565 98.1045 38.381 98.3345 38.452C98.5645 38.5229 98.7781 38.6387 98.963 38.7928C99.1479 38.9469 99.3004 39.1361 99.4117 39.3496V39.3496Z" stroke="#263238" stroke-miterlimit="10"/>
<path d="M114.379 48.0642C114.564 48.3925 114.646 48.7687 114.615 49.1441C114.583 49.5195 114.44 49.877 114.204 50.1703C113.968 50.4637 113.649 50.6795 113.289 50.7899C112.928 50.9003 112.543 50.9002 112.183 50.7896C111.823 50.679 111.505 50.4631 111.268 50.1696C111.032 49.8761 110.889 49.5186 110.858 49.1432C110.827 48.7677 110.91 48.3916 111.094 48.0634C111.279 47.7351 111.558 47.4698 111.895 47.3017C112.326 47.0745 112.829 47.0271 113.295 47.1701C113.76 47.313 114.15 47.6345 114.379 48.0642Z" stroke="#263238" stroke-miterlimit="10"/>
<path d="M128.224 56.1687C128.409 56.4971 128.491 56.8732 128.46 57.2487C128.429 57.6241 128.286 57.9815 128.049 58.2749C127.813 58.5683 127.494 58.7841 127.134 58.8944C126.774 59.0048 126.389 59.0047 126.029 58.8942C125.669 58.7836 125.35 58.5676 125.114 58.2742C124.877 57.9807 124.735 57.6232 124.704 57.2477C124.673 56.8723 124.755 56.4962 124.94 56.1679C125.125 55.8397 125.404 55.5744 125.741 55.4062C126.171 55.179 126.674 55.1317 127.14 55.2746C127.605 55.4175 127.995 55.739 128.224 56.1687V56.1687Z" stroke="#263238" stroke-miterlimit="10"/>
<path d="M123.094 67.5304C123.278 67.8587 123.36 68.2349 123.329 68.6103C123.298 68.9857 123.155 69.3432 122.919 69.6366C122.682 69.9299 122.363 70.1457 122.003 70.2561C121.643 70.3665 121.258 70.3664 120.898 70.2558C120.538 70.1453 120.219 69.9293 119.983 69.6358C119.747 69.3423 119.604 68.9848 119.573 68.6094C119.542 68.2339 119.624 67.8578 119.809 67.5296C119.994 67.2013 120.273 66.936 120.61 66.7679C120.823 66.6539 121.056 66.5832 121.297 66.5599C121.537 66.5366 121.78 66.5611 122.011 66.6319C122.241 66.7028 122.456 66.8187 122.642 66.9729C122.828 67.1271 122.981 67.3166 123.094 67.5304V67.5304Z" stroke="#263238" stroke-miterlimit="10"/>
<path d="M56.416 67.3997C55.9735 67.3825 55.5314 67.4415 55.1088 67.574C54.6838 67.7065 54.2855 67.913 53.9324 68.184" stroke="#263238" stroke-miterlimit="10"/>
<path d="M53.9324 68.184C53.1325 68.7612 52.5643 69.6044 52.3297 70.5625C52.0951 71.5206 52.2094 72.531 52.6521 73.4125C53.0949 74.2939 53.8371 74.9889 54.7457 75.3728C55.6544 75.7567 56.6701 75.8044 57.6107 75.5073C58.5513 75.2103 59.3554 74.5879 59.8788 73.7518C60.4022 72.9157 60.6107 71.9205 60.4669 70.9446C60.3231 69.9688 59.8364 69.076 59.0941 68.4264C58.3518 67.7768 57.4024 67.4128 56.4161 67.3997" stroke="#263238" stroke-miterlimit="10"/>
<path d="M56.416 67.3997C56.4212 67.3235 56.4212 67.2471 56.416 67.1709L44.4988 29.6764C44.3913 29.3417 44.1556 29.0632 43.8432 28.9019C43.5309 28.7406 43.1673 28.7096 42.8322 28.8158C42.6668 28.8679 42.5134 28.952 42.3806 29.0634C42.2479 29.1749 42.1384 29.3114 42.0584 29.4652C41.9785 29.619 41.9297 29.7871 41.9148 29.9597C41.8999 30.1324 41.9192 30.3064 41.9716 30.4716L53.8452 67.9661C53.8676 68.0412 53.8968 68.1142 53.9324 68.184" stroke="#263238" stroke-miterlimit="10"/>
<path d="M119.542 34.4258C119.451 33.9922 119.289 33.5764 119.063 33.1949C118.826 32.8211 118.532 32.4866 118.192 32.2036" stroke="#263238" stroke-miterlimit="10"/>
<path d="M118.192 32.2036C117.435 31.563 116.475 31.2135 115.484 31.2179C114.493 31.2223 113.536 31.5803 112.785 32.2275C112.034 32.8748 111.539 33.7687 111.389 34.7484C111.239 35.7282 111.443 36.7294 111.966 37.5718C112.488 38.4142 113.294 39.0425 114.238 39.3436C115.182 39.6447 116.203 39.5989 117.117 39.2143C118.03 38.8297 118.777 38.1317 119.221 37.2459C119.666 36.36 119.78 35.3446 119.542 34.3823" stroke="#263238" stroke-miterlimit="10"/>
<path d="M119.542 34.4258C119.614 34.3998 119.684 34.3669 119.749 34.3278L153.301 13.794C153.449 13.7032 153.577 13.5841 153.679 13.4435C153.781 13.3029 153.855 13.1436 153.895 12.9747C153.936 12.8058 153.942 12.6305 153.915 12.459C153.888 12.2874 153.827 12.1229 153.736 11.9749C153.645 11.8268 153.526 11.6981 153.386 11.596C153.245 11.494 153.086 11.4207 152.917 11.3802C152.748 11.3398 152.573 11.333 152.401 11.3602C152.23 11.3875 152.065 11.4483 151.917 11.5391L118.366 32.062L118.192 32.2036" stroke="#263238" stroke-miterlimit="10"/>
<path d="M438.867 95.1012C438.867 95.1012 435.784 78.9029 414.956 81.2232C394.129 83.5434 382.179 111.299 383.366 119.785C384.553 128.271 385.294 157.912 385.294 157.912L426.95 176.43L454.684 160.265L455.839 119.763C455.839 119.763 456.612 92.3996 438.867 95.1012Z" fill="#263238" stroke="#263238" stroke-linecap="round" stroke-linejoin="round"/>
<path d="M389.118 392.846C389.118 392.846 382.941 399.023 374.455 406.735C365.97 414.448 372.919 420.624 383.715 418.718C394.51 416.811 401.068 405.21 401.068 405.21C401.068 405.21 407.244 402.519 407.244 397.116C407.244 391.713 393.747 389.382 389.118 392.846Z" fill="white" stroke="#263238" stroke-linecap="round" stroke-linejoin="round"/>
<path d="M448.965 392.846C448.965 392.846 455.142 399.023 463.628 406.735C472.113 414.448 465.163 420.624 454.368 418.718C443.573 416.811 437.015 405.21 437.015 405.21C437.015 405.21 430.839 402.519 430.839 397.116C430.839 391.713 444.336 389.382 448.965 392.846Z" fill="white" stroke="#263238" stroke-linecap="round" stroke-linejoin="round"/>
<path d="M382.179 257.857C382.179 257.857 386.416 327.28 387.19 339.241C387.963 351.201 389.891 381.278 389.891 381.278C389.891 381.278 386.797 386.299 386.797 388.228C386.797 390.156 387.19 395.167 387.19 395.167C387.19 395.167 393.726 397.868 396.83 398.249C399.935 398.631 407.625 399.796 407.625 399.796C407.625 399.796 409.172 393.26 408.399 389.382C407.625 385.504 406.863 381.278 406.863 381.278C406.863 381.278 408.791 375.493 408.791 372.018C408.791 368.543 408.399 366.626 408.399 364.306C408.399 361.986 416.503 286.016 416.503 286.016H420.36C420.36 286.016 426.896 368.554 427.299 370.09C427.702 371.626 426.525 376.267 427.68 378.968C428.606 381.361 429.381 383.809 430 386.299C429.124 388.517 428.602 390.859 428.453 393.238C428.559 395.59 428.95 397.92 429.619 400.177C432.433 400.489 435.263 400.62 438.094 400.57C443.889 400.57 451.601 395.548 451.601 395.548C451.601 395.548 450.436 386.299 450.055 383.565C449.673 380.831 448.9 377.029 448.9 375.461V364.665C448.9 363.119 449.281 356.561 449.281 356.561L452.756 258.598L414.575 238.543L382.179 257.857Z" fill="#263238" stroke="#263238" stroke-linecap="round" stroke-linejoin="round"/>
<path d="M410.675 153.336C410.675 153.336 396.405 149.872 389.074 152.574C381.743 155.275 370.948 166.071 368.246 169.153C365.545 172.236 357.451 183.424 357.451 183.424L368.246 193.064L387.146 182.269L389.848 203.097L366.013 249.371C366.013 249.371 382.974 267.116 415.033 268.271C447.092 269.426 472.113 252.073 472.113 252.073L448.126 201.55L448.508 177.258L471.678 193.838L483.224 178.021C483.224 178.021 469.336 162.596 461.242 157.193C453.148 151.79 440.795 152.955 432.702 152.955C424.608 152.955 412.255 153.729 412.255 153.729L410.675 153.336Z" fill="#00B2D0"/>
<path d="M371.797 144.066V274.633" stroke="white" stroke-linecap="round" stroke-linejoin="round"/>
<path d="M374.869 144.066V274.633" stroke="white" stroke-linecap="round" stroke-linejoin="round"/>
<path d="M383.192 144.066V274.633" stroke="white" stroke-linecap="round" stroke-linejoin="round"/>
<path d="M392.832 144.066V274.633" stroke="white" stroke-linecap="round" stroke-linejoin="round"/>
<path d="M395.893 144.066V274.633" stroke="white" stroke-linecap="round" stroke-linejoin="round"/>
<path d="M404.227 144.066V274.633" stroke="white" stroke-linecap="round" stroke-linejoin="round"/>
<path d="M413.867 144.066V274.633" stroke="white" stroke-linecap="round" stroke-linejoin="round"/>
<path d="M416.928 144.066V274.633" stroke="white" stroke-linecap="round" stroke-linejoin="round"/>
<path d="M425.251 144.066V274.633" stroke="white" stroke-linecap="round" stroke-linejoin="round"/>
<path d="M434.891 144.066V274.633" stroke="white" stroke-linecap="round" stroke-linejoin="round"/>
<path d="M437.963 144.066V274.633" stroke="white" stroke-linecap="round" stroke-linejoin="round"/>
<path d="M446.285 144.066V274.633" stroke="white" stroke-linecap="round" stroke-linejoin="round"/>
<path d="M455.926 144.066V274.633" stroke="white" stroke-linecap="round" stroke-linejoin="round"/>
<path d="M458.998 144.066V274.633" stroke="white" stroke-linecap="round" stroke-linejoin="round"/>
<path d="M467.32 144.066V274.633" stroke="white" stroke-linecap="round" stroke-linejoin="round"/>
<path d="M483.094 159.84H352.516" stroke="white" stroke-linecap="round" stroke-linejoin="round"/>
<path d="M483.094 162.901H352.516" stroke="white" stroke-linecap="round" stroke-linejoin="round"/>
<path d="M483.094 171.234H352.516" stroke="white" stroke-linecap="round" stroke-linejoin="round"/>
<path d="M483.094 179.557H352.516" stroke="white" stroke-linecap="round" stroke-linejoin="round"/>
<path d="M483.094 182.618H352.516" stroke="white" stroke-linecap="round" stroke-linejoin="round"/>
<path d="M483.094 190.951H352.516" stroke="white" stroke-linecap="round" stroke-linejoin="round"/>
<path d="M483.094 199.273H352.516" stroke="white" stroke-linecap="round" stroke-linejoin="round"/>
<path d="M483.094 202.334H352.516" stroke="white" stroke-linecap="round" stroke-linejoin="round"/>
<path d="M483.094 210.668H352.516" stroke="white" stroke-linecap="round" stroke-linejoin="round"/>
<path d="M483.094 218.99H352.516" stroke="white" stroke-linecap="round" stroke-linejoin="round"/>
<path d="M483.094 222.062H352.516" stroke="white" stroke-linecap="round" stroke-linejoin="round"/>
<path d="M483.094 230.384H352.516" stroke="white" stroke-linecap="round" stroke-linejoin="round"/>
<path d="M483.094 238.707H352.516" stroke="white" stroke-linecap="round" stroke-linejoin="round"/>
<path d="M483.094 241.779H352.516" stroke="white" stroke-linecap="round" stroke-linejoin="round"/>
<path d="M483.094 250.101H352.516" stroke="white" stroke-linecap="round" stroke-linejoin="round"/>
<path d="M483.094 258.424H352.516" stroke="white" stroke-linecap="round" stroke-linejoin="round"/>
<path d="M483.094 261.496H352.516" stroke="white" stroke-linecap="round" stroke-linejoin="round"/>
<path d="M483.094 269.818H352.516" stroke="white" stroke-linecap="round" stroke-linejoin="round"/>
<path d="M410.675 153.336C410.675 153.336 396.405 149.872 389.074 152.574C381.743 155.275 370.948 166.071 368.246 169.153C365.545 172.236 357.451 183.424 357.451 183.424L368.246 193.064L387.146 182.269L389.848 203.097L366.013 249.371C366.013 249.371 382.974 267.116 415.033 268.271C447.092 269.426 472.113 252.073 472.113 252.073L448.126 201.55L448.508 177.258L471.678 193.838L483.224 178.021C483.224 178.021 469.336 162.596 461.242 157.193C453.148 151.79 440.795 152.955 432.702 152.955C424.608 152.955 412.255 153.729 412.255 153.729L410.675 153.336Z" stroke="#263238" stroke-linecap="round" stroke-linejoin="round"/>
<path d="M441.699 129.23C441.699 129.23 445.784 121.801 449.129 127.748C452.473 133.696 446.155 139.633 443.181 141.496C440.207 143.358 441.699 129.23 441.699 129.23Z" fill="white" stroke="#263238" stroke-linecap="round" stroke-linejoin="round"/>
<path d="M408.791 152.574L410.327 169.535C411.252 171.868 412.864 173.866 414.949 175.265C417.034 176.663 419.494 177.396 422.004 177.367C431.362 177.367 433.475 167.563 433.475 167.563L435.403 149.829C435.403 149.829 419.967 154.11 408.791 152.574Z" fill="white" stroke="#263238" stroke-linecap="round" stroke-linejoin="round"/>
<path d="M425.654 112.868C425.654 112.868 405.207 121.419 396.667 123.641L397.407 130.33C397.407 130.33 392.952 124.763 389.608 129.589C386.264 134.415 389.978 139.992 393.322 142.596C396.667 145.199 398.889 142.966 398.889 142.966C398.889 142.966 402.614 154.862 412.647 159.698C422.68 164.535 434.303 162.095 439.499 150.199C442.135 144.186 443.954 134.001 443.377 124.448C432.712 124.023 425.654 112.868 425.654 112.868Z" fill="white" stroke="#263238" stroke-linecap="round" stroke-linejoin="round"/>
<path d="M417.81 136.452C417.81 136.452 420.784 140.548 425.991 136.452" stroke="#263238" stroke-linecap="round" stroke-linejoin="round"/>
<path d="M413.54 132.89C414.359 132.89 415.022 131.739 415.022 130.319C415.022 128.899 414.359 127.748 413.54 127.748C412.722 127.748 412.059 128.899 412.059 130.319C412.059 131.739 412.722 132.89 413.54 132.89Z" fill="#263238"/>
<path d="M427.789 132.89C428.607 132.89 429.27 131.739 429.27 130.319C429.27 128.899 428.607 127.748 427.789 127.748C426.971 127.748 426.307 128.899 426.307 130.319C426.307 131.739 426.971 132.89 427.789 132.89Z" fill="#263238"/>
<path d="M405.991 124.938C405.991 124.938 410.076 120.842 415.283 122.334" stroke="#263238" stroke-linecap="round" stroke-linejoin="round"/>
<path d="M425.991 122.334C425.991 122.334 432.309 119.731 434.913 125.308" stroke="#263238" stroke-linecap="round" stroke-linejoin="round"/>
<path d="M416.177 142.138C416.177 142.138 417.397 149.992 421.133 151.027C426.58 152.541 427.854 142.029 427.854 142.029L416.177 142.138Z" fill="#263238" stroke="#263238" stroke-linecap="round" stroke-linejoin="round"/>
<path d="M403.922 136.986C403.922 136.986 403.584 137.225 403.039 137.65C401.264 139.045 397.266 142.421 395.414 145.787C393.039 150.145 391.688 160.363 389.967 162.737C388.246 165.112 360.566 175.613 355.458 179.676C350.349 183.74 350.011 196.964 360.207 197.302C370.403 197.639 374.096 193.238 379.815 189.175C385.534 185.112 394.728 173.238 394.728 173.238C394.728 173.238 404.216 169.175 406.253 164.774C408.29 160.374 408.911 151.332 409.641 150.537C412.418 147.509 414.717 143.424 414.717 140.374C414.717 137.323 410.36 133.587 403.922 136.986Z" fill="white" stroke="#263238" stroke-linecap="round" stroke-linejoin="round"/>
<path d="M414.477 139.883C414.477 139.883 413.551 138.173 411.993 139.883C410.436 141.594 404.368 147.04 403.9 147.977" stroke="#263238" stroke-linecap="round" stroke-linejoin="round"/>
<path d="M412.462 136.92C412.462 136.92 410.741 135.994 409.815 136.92C408.889 137.846 402.647 142.683 401.721 144.393C401.274 145.132 400.909 145.917 400.632 146.735" stroke="#263238" stroke-linecap="round" stroke-linejoin="round"/>
<path d="M404.521 136.92C404.521 136.92 399.695 141.278 397.669 145.482" stroke="#263238" stroke-linecap="round" stroke-linejoin="round"/>
<path d="M438.813 136.986C438.813 136.986 439.15 137.225 439.695 137.65C441.471 139.045 445.468 142.421 447.32 145.787C449.695 150.145 451.046 160.363 452.767 162.737C454.488 165.112 482.244 175.613 487.331 179.676C492.418 183.74 492.778 196.964 482.582 197.302C472.386 197.639 468.693 193.238 462.974 189.175C457.255 185.112 448.061 173.238 448.061 173.238C448.061 173.238 438.573 169.175 436.536 164.774C434.499 160.374 433.878 151.332 433.148 150.537C430.37 147.509 428.072 143.424 428.072 140.374C428.072 137.323 432.375 133.587 438.813 136.986Z" fill="white" stroke="#263238" stroke-linecap="round" stroke-linejoin="round"/>
<path d="M428.257 139.883C428.257 139.883 429.183 138.173 430.741 139.883C432.298 141.594 438.366 147.04 438.834 147.977" stroke="#263238" stroke-linecap="round" stroke-linejoin="round"/>
<path d="M430.283 136.92C430.283 136.92 432.004 135.994 432.93 136.92C433.856 137.846 440.098 142.683 441.024 144.393C441.471 145.132 441.836 145.917 442.113 146.735" stroke="#263238" stroke-linecap="round" stroke-linejoin="round"/>
<path d="M438.214 136.92C438.214 136.92 443.039 141.278 445.065 145.482" stroke="#263238" stroke-linecap="round" stroke-linejoin="round"/>
<path d="M222.222 235.341L210.033 268.718C210.033 268.718 217.789 276.245 217.222 279.099C216.656 281.953 216.612 286.201 215.861 287.814C215.109 289.426 213.747 291.485 211.351 289.992C208.954 288.5 211.187 283.696 211.187 283.696L210.37 282.138L205.665 295.45C205.074 296.032 204.309 296.405 203.487 296.512C202.665 296.618 201.83 296.451 201.111 296.038C198.246 294.698 200.229 292.127 200.229 292.127L196.078 289.393C196.078 289.393 191.427 286.038 190.904 283.848C190.381 281.659 193.551 269.916 194.749 267.367C195.537 265.655 196.232 263.903 196.83 262.116C196.83 262.116 201.275 235.809 204.15 226.844L222.222 235.341Z" fill="white" stroke="#263238" stroke-linecap="round" stroke-linejoin="round"/>
<path d="M200.229 292.127L202.386 279.491" stroke="#263238" stroke-linecap="round" stroke-linejoin="round"/>
<path d="M196.057 289.393L197.113 279.35" stroke="#263238" stroke-linecap="round" stroke-linejoin="round"/>
<path d="M192.255 285.417L193.573 278.358" stroke="#263238" stroke-linecap="round" stroke-linejoin="round"/>
<path d="M230.839 392.204C230.839 392.204 219.27 402.846 215.109 408.391C210.948 413.936 217.429 418.565 226.678 419.034C235.926 419.502 243.322 409.785 249.336 406.539C255.349 403.293 257.2 402.846 257.2 392.661C257.2 382.476 230.839 392.204 230.839 392.204Z" fill="white" stroke="#263238" stroke-linecap="round" stroke-linejoin="round"/>
<path d="M249.336 406.539C253.878 404.099 256.046 403.271 256.83 398.565C253.813 399.674 251.001 401.275 248.508 403.304C244.826 406.746 235.436 416.637 226.209 415.711C216.983 414.785 214.227 410.886 214.227 410.886L213.943 410.777C212.93 415.221 218.769 418.641 226.656 419.034C235.926 419.524 243.322 409.785 249.336 406.539Z" fill="white" stroke="#263238" stroke-linecap="round" stroke-linejoin="round"/>
<path d="M233.617 275.646L230.839 372.313L226.678 379.219L228.987 394.023C228.987 394.023 232.691 396.801 240.97 398.641C246.78 399.856 252.67 400.646 258.595 401.005C258.595 401.005 261.362 381.114 260.436 376.485C259.51 371.855 259.052 368.162 259.052 368.162L260.904 290.45L261.362 278.892L233.617 275.646Z" fill="#263238" stroke="#263238" stroke-linecap="round" stroke-linejoin="round"/>
<path d="M300.12 392.204C300.12 392.204 311.688 402.846 315.85 408.391C320.011 413.936 313.529 418.565 304.281 419.034C295.033 419.502 287.636 409.785 281.623 406.539C275.61 403.293 273.758 402.846 273.758 392.661C273.758 382.476 300.12 392.204 300.12 392.204Z" fill="white" stroke="#263238" stroke-linecap="round" stroke-linejoin="round"/>
<path d="M281.623 406.539C277.081 404.099 274.913 403.271 274.118 398.565C277.139 399.672 279.955 401.273 282.451 403.304C286.122 406.746 295.523 416.637 304.749 415.711C313.976 414.785 316.732 410.886 316.732 410.886L317.015 410.777C318.028 415.221 312.19 418.641 304.303 419.034C295.033 419.524 287.636 409.785 281.623 406.539Z" fill="white" stroke="#263238" stroke-linecap="round" stroke-linejoin="round"/>
<path d="M297.386 275.646L300.163 372.313L304.325 379.252L302.015 394.055C302.015 394.055 298.312 396.833 290.033 398.674C284.197 399.881 278.281 400.66 272.331 401.005C272.331 401.005 269.564 381.114 270.479 376.485C271.394 371.855 271.874 368.162 271.874 368.162L270.022 290.45L269.564 278.892L297.386 275.646Z" fill="#263238" stroke="#263238" stroke-linecap="round" stroke-linejoin="round"/>
<path d="M253.551 168.184C253.551 168.184 225.915 175.101 224.379 177.4C222.843 179.698 205.185 224.611 205.185 224.611L222.081 231.528L230.937 215.82L229.401 277.236L260.109 298.347L266.645 289.513L270.871 298.347L301.58 277.999L296.972 210.058L313.094 219.655L320.773 201.234C320.773 201.234 301.58 171.289 295.817 170.526C290.054 169.764 272.789 166.681 265.109 167.073C261.236 167.191 257.375 167.562 253.551 168.184Z" fill="#00B2D0" stroke="#263238" stroke-linecap="round" stroke-linejoin="round"/>
<path d="M268.257 188.184L267.364 284.219" stroke="#263238" stroke-linecap="round" stroke-linejoin="round"/>
<path d="M230.904 215.787L228.682 188.631" stroke="#263238" stroke-linecap="round" stroke-linejoin="round"/>
<path d="M296.928 210.025L296.71 184.186" stroke="#263238" stroke-linecap="round" stroke-linejoin="round"/>
<path d="M272.255 194.851C272.257 195.117 272.18 195.377 272.034 195.599C271.887 195.821 271.678 195.995 271.433 196.097C271.188 196.2 270.917 196.227 270.656 196.176C270.395 196.125 270.156 195.997 269.968 195.809C269.78 195.621 269.652 195.381 269.6 195.12C269.549 194.859 269.577 194.589 269.679 194.344C269.782 194.098 269.955 193.889 270.177 193.743C270.399 193.597 270.66 193.52 270.926 193.522C271.277 193.525 271.614 193.665 271.863 193.914C272.111 194.163 272.252 194.499 272.255 194.851Z" fill="#263238"/>
<path d="M272.255 225.09C272.255 225.356 272.176 225.615 272.028 225.836C271.881 226.056 271.671 226.228 271.425 226.329C271.18 226.43 270.91 226.456 270.65 226.404C270.389 226.351 270.151 226.222 269.964 226.034C269.777 225.845 269.65 225.606 269.6 225.345C269.549 225.084 269.577 224.815 269.68 224.57C269.783 224.325 269.957 224.117 270.179 223.971C270.4 223.825 270.66 223.748 270.926 223.75C271.101 223.75 271.275 223.785 271.437 223.853C271.599 223.92 271.746 224.019 271.87 224.143C271.993 224.268 272.091 224.416 272.157 224.578C272.223 224.741 272.256 224.915 272.255 225.09Z" fill="#263238"/>
<path d="M272.255 255.319C272.257 255.585 272.18 255.846 272.034 256.068C271.887 256.29 271.678 256.463 271.433 256.566C271.188 256.668 270.917 256.696 270.656 256.645C270.395 256.593 270.156 256.465 269.968 256.277C269.78 256.089 269.652 255.85 269.6 255.589C269.549 255.328 269.577 255.057 269.679 254.812C269.782 254.567 269.955 254.358 270.177 254.211C270.399 254.065 270.66 253.988 270.926 253.99C271.277 253.993 271.614 254.134 271.863 254.382C272.111 254.631 272.252 254.967 272.255 255.319Z" fill="#263238"/>
<path d="M272.255 285.537C272.255 285.802 272.176 286.062 272.028 286.282C271.881 286.503 271.671 286.675 271.425 286.776C271.18 286.877 270.91 286.903 270.65 286.85C270.389 286.798 270.151 286.669 269.964 286.48C269.777 286.292 269.65 286.052 269.6 285.792C269.549 285.531 269.577 285.261 269.68 285.017C269.783 284.772 269.957 284.563 270.179 284.418C270.4 284.272 270.66 284.195 270.926 284.197C271.101 284.197 271.275 284.232 271.437 284.299C271.599 284.367 271.746 284.466 271.87 284.59C271.993 284.715 272.091 284.862 272.157 285.025C272.223 285.187 272.256 285.361 272.255 285.537Z" fill="#263238"/>
<path d="M260.076 161.278C260.076 161.278 253.54 161.659 253.54 163.576C253.54 165.493 247.396 172.029 247.396 172.029C247.396 172.029 248.551 192.726 249.706 193.903C250.861 195.079 269.314 178.936 269.314 178.936C269.314 178.936 285.436 192.759 286.59 193.097C287.745 193.435 285.817 174.665 283.9 170.45C281.983 166.234 277.364 161.615 273.922 161.234C270.479 160.853 260.076 161.278 260.076 161.278Z" fill="white" stroke="#263238" stroke-linecap="round" stroke-linejoin="round"/>
<path d="M256.242 155.134C256.242 155.134 257.004 169.72 258.159 172.411C259.314 175.101 267.756 187.759 269.673 186.997C271.59 186.234 278.508 172.835 278.508 170.493C278.508 168.151 280.044 156.67 280.044 156.67C280.044 156.67 265.065 158.587 256.242 155.134Z" fill="white" stroke="#263238" stroke-linecap="round" stroke-linejoin="round"/>
<path d="M279.434 161.354C279.76 158.761 280.044 156.648 280.044 156.648C280.044 156.648 265.065 158.565 256.242 155.112C256.242 155.112 256.373 157.574 256.601 160.657C256.986 160.875 257.378 161.082 257.778 161.278C264.63 164.622 272.996 165.014 279.434 161.354Z" fill="#263238" stroke="#263238" stroke-linecap="round" stroke-linejoin="round"/>
<path d="M203.028 219.241L201.351 231.909L224.445 238.053L228.214 226.147L203.028 219.241Z" fill="white" stroke="#263238" stroke-linecap="round" stroke-linejoin="round"/>
<path d="M318.224 194.175C318.224 194.175 310.654 201.801 307.865 206.517C305.79 210.262 303.928 214.12 302.288 218.075L312.647 225.7L328.584 200.646C328.584 200.646 319.423 193.772 318.224 194.175Z" fill="white" stroke="#263238" stroke-linecap="round" stroke-linejoin="round"/>
<path d="M329.107 178.445C329.107 178.445 326.122 171.801 326.122 168.478C326.122 165.156 330.109 154.197 330.109 153.228C330.109 152.258 333.094 149.905 333.758 153.228C334.134 155.65 334.134 158.115 333.758 160.537L334.76 163.522L341.808 151.55C342.057 151 342.474 150.543 342.998 150.243C343.522 149.944 344.128 149.818 344.728 149.883C347.233 150.167 346.122 153.5 346.122 153.5L342.451 163.652L342.397 163.794L349.368 150.842C349.368 150.842 352.179 149.633 353.726 151.419C354.978 152.814 353.453 154.764 353.453 154.764L347.647 167.116L354.837 156.942C355.039 156.646 355.321 156.412 355.649 156.267C355.978 156.122 356.34 156.072 356.695 156.122C357.051 156.171 357.386 156.319 357.661 156.549C357.937 156.779 358.144 157.081 358.257 157.421V157.487C358.922 159.818 352.614 169.11 352.614 169.11L357.299 165.493C357.299 165.493 359.63 162.835 360.294 165.82C360.449 166.613 360.33 167.435 359.956 168.151C359.248 169.241 350.991 176.779 350.991 176.779C350.991 176.779 345.022 181.43 344.02 182.095C342.863 182.616 341.632 182.951 340.37 183.086C340.37 183.086 335.85 213.293 333.529 218.271C331.209 223.249 324.216 227.672 319.782 227.236C315.349 226.801 308.431 221.866 311.416 212.901C314.401 203.936 329.107 178.445 329.107 178.445Z" fill="white" stroke="#263238" stroke-linecap="round" stroke-linejoin="round"/>
<path d="M334.76 163.533C334.76 163.533 337.407 168.184 337.745 170.504C338.083 172.824 336.743 176.811 336.743 176.811" fill="white"/>
<path d="M334.76 163.533C334.76 163.533 337.407 168.184 337.745 170.504C338.083 172.824 336.743 176.811 336.743 176.811" stroke="#263238" stroke-linecap="round" stroke-linejoin="round"/>
<path d="M290.784 94.9051C290.784 94.9051 291.558 87.6066 284.248 81.8332C276.939 76.0598 271.58 76.0707 271.972 78.3801C272.286 79.9115 272.941 81.3524 273.889 82.5957C273.889 82.5957 256.993 76.0598 245.479 81.5064C233.965 86.953 231.678 95.9944 233.976 95.9944C235.175 95.9326 236.368 96.196 237.429 96.757C237.429 96.757 227.832 108.663 227.451 114.796C227.07 120.929 233.214 122.476 233.214 122.476L236.667 130.918C236.667 130.918 244.292 135.526 246.645 132.835C248.998 130.145 245.871 124.012 247.8 122.857C249.728 121.702 267.407 113.652 267.407 113.652C268.73 114.903 270.304 115.858 272.025 116.454C273.745 117.049 275.573 117.271 277.386 117.106C283.922 116.724 285.828 113.26 285.828 113.26L288.9 124.774C288.9 124.774 297.734 120.94 298.497 115.57C298.876 111.716 298.619 107.826 297.734 104.055C297.734 104.055 305.359 104.055 301.569 98.6742C297.778 93.2929 290.784 94.9051 290.784 94.9051Z" fill="#263238" stroke="#263238" stroke-linecap="round" stroke-linejoin="round"/>
<path d="M288.17 126.43C288.17 126.43 292.386 118.75 295.795 124.894C299.205 131.038 292.723 137.171 289.651 139.055C286.58 140.94 288.17 126.43 288.17 126.43Z" fill="white" stroke="#263238" stroke-linecap="round" stroke-linejoin="round"/>
<path d="M288.105 104.469C288.105 104.469 284.259 112.149 277.353 114.448C270.447 116.746 271.59 110.221 271.59 110.221C271.59 110.221 250.479 119.055 241.656 121.354L242.418 128.271C242.418 128.271 237.81 122.509 234.357 127.498C230.904 132.487 234.749 138.249 238.203 140.929C241.656 143.609 243.954 141.321 243.954 141.321C243.954 141.321 247.8 153.598 258.115 158.587C268.431 163.576 282.298 162.051 287.669 149.763C293.039 137.476 288.105 104.469 288.105 104.469Z" fill="white" stroke="#263238" stroke-linecap="round" stroke-linejoin="round"/>
<path d="M264.041 134.273C264.041 134.273 267.113 138.5 272.484 134.273" stroke="#263238" stroke-linecap="round" stroke-linejoin="round"/>
<path d="M261.743 127.944C261.743 129.96 260.795 131.594 259.63 131.594C258.464 131.594 257.516 129.96 257.516 127.944C257.516 125.929 258.464 124.295 259.63 124.295C260.795 124.295 261.743 125.929 261.743 127.944Z" fill="#263238"/>
<path d="M278.05 128.522C278.05 130.537 277.113 132.171 275.948 132.171C274.782 132.171 273.834 130.537 273.834 128.522C273.834 126.506 274.782 124.872 275.948 124.872C277.113 124.872 278.05 126.496 278.05 128.522Z" fill="#263238"/>
<path d="M254.063 122.378C254.063 122.378 258.29 118.151 263.66 119.687" stroke="#263238" stroke-width="2" stroke-linecap="round" stroke-linejoin="round"/>
<path d="M272.484 119.687C272.484 119.687 279.02 117.008 281.699 122.759" stroke="#263238" stroke-width="2" stroke-linecap="round" stroke-linejoin="round"/>
<path d="M262.527 140.798C262.527 140.798 269.444 143.87 274.434 140.036" stroke="#263238" stroke-linecap="round" stroke-linejoin="round"/>
<path d="M31.1764 381.299C31.1764 381.299 25.3486 388.38 22.8431 390.461C20.3377 392.541 8.26795 401.289 3.68189 407.541C-0.904165 413.794 4.10673 420.45 14.9346 418.783C25.7625 417.116 24.0958 412.127 30.3486 410.068C36.6013 408.01 39.9237 405.493 40.7625 397.999C41.6013 390.504 41.5904 383.838 41.5904 383.838L31.1764 381.299Z" fill="white" stroke="#263238" stroke-linecap="round" stroke-linejoin="round"/>
<path d="M34.9238 396.713L32.8431 391.713C30.7625 386.713 25.3486 389.219 25.3486 389.219L24.3355 389.055C23.8728 389.548 23.3856 390.017 22.8758 390.461C20.3813 392.552 8.30066 401.289 3.71461 407.541C-0.871451 413.794 4.13945 420.45 14.9673 418.783C25.7952 417.116 24.1285 412.127 30.3813 410.069C36.634 408.01 39.9564 405.493 40.7952 397.999C40.915 396.909 41.0131 395.82 41.1111 394.731L34.9238 396.713Z" fill="#00B2D0" stroke="#263238" stroke-linecap="round" stroke-linejoin="round"/>
<path d="M39.989 401.779C37.0918 403.093 34.286 404.599 31.5904 406.289C25.7625 410.036 24.0958 413.794 13.2679 415.003C7.17859 415.711 3.85615 413.249 2.11323 410.962C1.15463 415.94 6.11105 420.112 14.9346 418.75C25.7625 417.095 24.0958 412.095 30.3485 410.036C35.3812 408.358 38.5294 406.452 39.989 401.779Z" fill="white" stroke="#263238" stroke-linecap="round" stroke-linejoin="round"/>
<path d="M152.353 381.299C152.353 381.299 158.192 388.38 160.686 390.461C163.181 392.541 175.261 401.289 179.847 407.541C184.434 413.794 179.434 420.45 168.606 418.783C157.778 417.116 159.434 412.127 153.192 410.068C146.95 408.01 143.606 405.493 142.778 397.999C141.95 390.504 141.939 383.838 141.939 383.838L152.353 381.299Z" fill="white" stroke="#263238" stroke-linecap="round" stroke-linejoin="round"/>
<path d="M148.606 396.713L150.686 391.713C152.778 386.713 158.192 389.219 158.192 389.219L159.205 389.055C159.76 389.622 160.294 390.145 160.686 390.461C163.192 392.552 175.261 401.289 179.847 407.541C184.433 413.794 179.433 420.45 168.606 418.783C157.778 417.116 159.433 412.127 153.192 410.069C146.95 408.01 143.606 405.493 142.778 397.999C142.658 396.909 142.549 395.82 142.462 394.731L148.606 396.713Z" fill="#00B2D0" stroke="#263238" stroke-linecap="round" stroke-linejoin="round"/>
<path d="M143.551 401.779C146.446 403.091 149.248 404.597 151.939 406.289C157.767 410.036 159.433 413.794 170.272 415.003C176.362 415.711 179.684 413.249 181.427 410.962C182.375 415.94 177.429 420.112 168.606 418.75C157.767 417.095 159.434 412.095 153.192 410.036C148.148 408.358 145.011 406.452 143.551 401.779Z" fill="white" stroke="#263238" stroke-linecap="round" stroke-linejoin="round"/>
<path d="M66.6231 244.197L28.2679 376.299L49.0849 380.047L98.3442 286.55L109.586 288.217L139.477 390.047L160.719 387.966L144.521 262.519L106.198 244.611L66.6231 244.197Z" fill="#263238" stroke="#263238" stroke-linecap="round" stroke-linejoin="round"/>
<path d="M139.935 154.644C139.935 154.644 120.773 146.724 110.773 145.058C100.773 143.391 94.1177 144.23 89.9565 147.138C85.7952 150.047 82.8758 164.219 84.9564 169.219C86.04 171.626 86.8758 174.137 87.451 176.713C87.451 176.713 77.451 221.267 77.0371 223.783C76.6231 226.299 67.8758 228.783 67.8758 230.864C67.8758 232.944 65.3595 245.864 65.3595 245.864C65.3595 245.864 81.6013 253.358 107.843 259.186C134.085 265.014 145.327 264.633 145.327 264.633C145.327 264.633 145.741 256.31 146.166 250.472C146.59 244.633 144.499 240.482 144.499 239.23C144.499 237.977 159.488 197.16 159.488 197.16L172.821 217.574L169.074 259.644C169.074 259.644 156.993 263.805 156.155 267.138C155.316 270.472 153.246 275.047 153.246 277.138C153.246 279.23 153.66 282.127 156.993 281.713C160.327 281.299 160.327 275.047 160.327 275.047L161.993 273.805L160.327 290.461C160.665 291.381 161.295 292.165 162.122 292.693C162.948 293.22 163.925 293.462 164.902 293.38C168.66 293.38 167.821 289.633 167.821 289.633L173.649 288.794C173.649 288.794 180.316 287.552 181.983 285.461C183.649 283.369 186.144 269.219 186.144 265.853C186.162 263.624 186.304 261.399 186.569 259.186C186.569 259.186 197.81 218.783 196.558 214.208C195.305 209.633 178.649 173.337 175.381 169.219C172.113 165.101 155.773 158.391 150.806 157.552C147.114 156.857 143.48 155.885 139.935 154.644Z" fill="#B2B2B2" stroke="#263238" stroke-linecap="round" stroke-linejoin="round"/>
<path d="M167.843 289.6L171.885 274.992" stroke="#263238" stroke-linecap="round" stroke-linejoin="round"/>
<path d="M173.671 288.761L177.603 277.487" stroke="#263238" stroke-linecap="round" stroke-linejoin="round"/>
<path d="M179.749 286.419L181.884 278.206" stroke="#263238" stroke-linecap="round" stroke-linejoin="round"/>
<path d="M175.381 169.219C172.048 165.058 155.773 158.391 150.806 157.552C147.129 156.855 143.51 155.883 139.978 154.644C139.978 154.644 120.817 146.724 110.817 145.058C100.817 143.391 94.1612 144.23 90 147.138C85.8388 150.047 82.9194 164.219 85 169.219C86.0835 171.626 86.9194 174.137 87.4946 176.713C87.4946 176.713 77.451 221.267 77.0371 223.783C76.6231 226.299 67.8758 228.783 67.8758 230.864C67.8758 232.944 65.3595 245.864 65.3595 245.864C65.3595 245.864 81.6013 253.358 107.843 259.186C134.085 265.014 145.327 264.633 145.327 264.633C145.327 264.633 145.741 256.31 146.166 250.472C146.59 244.633 144.499 240.482 144.499 239.23C144.499 237.977 159.488 197.16 159.488 197.16L168.606 211.125L188.9 196.31C183.638 184.742 177.266 171.626 175.381 169.219Z" fill="white" stroke="#263238" stroke-linecap="round" stroke-linejoin="round"/>
<path d="M168.627 211.092L188.922 196.278C187.288 192.694 185.545 188.968 183.856 185.45L183.747 185.221C183.464 184.633 183.181 184.055 182.908 183.478C182.843 183.336 182.778 183.195 182.702 183.064L181.961 181.528L181.743 181.082C181.492 180.581 181.264 180.101 181.024 179.633L180.817 179.219L180.054 177.683C180.014 177.613 179.977 177.54 179.946 177.465C179.662 176.899 179.379 176.376 179.107 175.82L179.02 175.657C178.791 175.21 178.562 174.785 178.355 174.371L178.105 173.914C177.952 173.609 177.789 173.315 177.636 173.042C177.484 172.77 177.473 172.726 177.386 172.585L176.993 171.866L176.754 171.452L176.405 170.842L176.198 170.504L175.882 169.992L175.73 169.764C175.61 169.574 175.479 169.392 175.338 169.219C172.004 165.058 155.73 158.391 150.763 157.552C147.085 156.855 143.466 155.883 139.935 154.644C139.935 154.644 120.773 146.724 110.773 145.058C100.773 143.391 94.1176 144.23 89.9564 147.138C85.7952 150.047 82.8758 164.219 84.9564 169.219C86.0399 171.626 86.8758 174.137 87.451 176.713C87.451 176.713 85.9477 183.435 84.085 191.79C95.5773 188.38 127.887 177.901 139.107 164.633L142.015 165.058C142.015 165.058 141.329 195.232 151.481 219.186C155.392 208.293 159.51 197.127 159.51 197.127L168.627 211.092Z" fill="#00B2D0" stroke="#263238" stroke-linecap="round" stroke-linejoin="round"/>
<path d="M87.4509 176.713C87.4509 176.713 97.2548 176.637 100.174 161.114L87.4509 176.713Z" fill="#00B2D0"/>
<path d="M87.4509 176.713C87.4509 176.713 97.2548 176.637 100.174 161.114" stroke="#263238" stroke-linecap="round" stroke-linejoin="round"/>
<path d="M166.841 179.567L159.51 197.127L173.965 180.406" fill="#00B2D0"/>
<path d="M166.841 179.567L159.51 197.127L173.965 180.406" stroke="#263238" stroke-linecap="round" stroke-linejoin="round"/>
<path d="M153.126 158.086C151.514 157.792 149.858 157.432 148.072 156.997C143.889 156.027 139.935 154.622 139.935 154.622C139.935 154.622 133.617 152.008 126.351 149.469C126.057 159.415 126.351 178.522 132.887 183.238C140.25 188.685 156.993 168.652 162.56 161.572C159.487 160.226 156.337 159.062 153.126 158.086Z" fill="white" stroke="#263238" stroke-linecap="round" stroke-linejoin="round"/>
<path d="M131.187 147.193C131.187 147.193 127.854 173.021 134.521 178.435C141.187 183.848 159.935 160.94 159.935 160.94C159.935 160.94 138.682 160.058 131.187 147.193Z" fill="#B2B2B2" stroke="#263238" stroke-linecap="round" stroke-linejoin="round"/>
<path d="M130.61 119.829C130.61 119.829 126.416 112.389 123.159 119.829C119.902 127.269 124.564 132.901 128.279 133.326C131.993 133.75 130.61 119.829 130.61 119.829Z" fill="#B2B2B2" stroke="#263238" stroke-linecap="round" stroke-linejoin="round"/>
<path d="M176.558 131.572C176.558 131.572 183.878 127.214 183.039 135.243C182.2 143.271 175.414 145.886 171.939 144.458C168.464 143.031 176.558 131.572 176.558 131.572Z" fill="#B2B2B2" stroke="#263238" stroke-linecap="round" stroke-linejoin="round"/>
<path d="M132.898 105.406C132.898 105.406 126.852 126.343 127.32 139.371C127.789 152.4 136.155 162.171 143.66 164.96C151.166 167.748 165.065 158.914 170.185 150.079C175.305 141.245 183.257 120.297 182.277 110.058C181.296 99.818 166.46 91.4411 155.294 90.9836C144.128 90.526 134.793 94.2406 132.898 105.406Z" fill="#B2B2B2" stroke="#263238" stroke-linecap="round" stroke-linejoin="round"/>
<path d="M137.124 124.949C140.632 124.546 144.157 125.548 146.928 127.737" stroke="#263238" stroke-width="2" stroke-linecap="round" stroke-linejoin="round"/>
<path d="M136.656 117.498C140.683 115.864 145.188 115.864 149.216 117.498" stroke="#263238" stroke-linecap="round" stroke-linejoin="round"/>
<path d="M158.061 131.942C158.061 131.942 165.044 131.474 167.865 136.125" stroke="#263238" stroke-width="2" stroke-linecap="round" stroke-linejoin="round"/>
<path d="M161.786 123.086C163.77 123.059 165.725 123.563 167.449 124.546C169.173 125.528 170.602 126.954 171.59 128.674" stroke="#263238" stroke-linecap="round" stroke-linejoin="round"/>
<path d="M145.501 132.857C145.501 132.857 144.107 136.583 148.769 138.445C149.962 139.018 151.321 139.145 152.599 138.803C153.878 138.462 154.992 137.674 155.741 136.583" stroke="#263238" stroke-linecap="round" stroke-linejoin="round"/>
<path d="M157.015 142.835C155.597 143.624 154.018 144.077 152.398 144.16C150.777 144.243 149.16 143.954 147.669 143.315C144.118 141.855 143.845 139.241 140.73 137.563C137.614 135.886 134.978 138.282 136.176 143.554C137.375 148.827 143.606 151.931 149.586 152.65C155.566 153.369 160.61 150.254 160.85 146.419C161.089 142.585 157.015 142.835 157.015 142.835Z" fill="white" stroke="#263238" stroke-linecap="round" stroke-linejoin="round"/>
<path d="M136.166 138.554C138.597 142.887 142.506 146.201 147.179 147.89C151.542 149.494 156.361 149.322 160.599 147.411" stroke="#263238" stroke-linecap="round" stroke-linejoin="round"/>
<path d="M182.255 110.058C181.329 99.818 166.438 91.4411 155.272 90.9836C144.107 90.526 134.793 94.2515 132.93 105.406C132.93 105.406 131.449 110.548 130.011 117.323C130.923 116.173 131.985 115.151 133.17 114.284C137.614 110.951 138.725 111.692 138.725 107.247C138.725 102.803 141.699 97.6067 145.033 97.2363C148.366 96.8659 151.34 97.977 158.377 101.31C165.414 104.644 172.843 103.903 176.176 106.506C179.51 109.11 181.002 113.173 177.266 117.999C173.529 122.825 175.784 125.787 175.784 128.01C175.784 130.232 175.044 134.676 176.874 135.058C180.207 126.147 182.81 116.191 182.255 110.058Z" fill="#263238"/>
<path d="M66.2091 149.23C66.2091 149.23 66.623 164.219 69.5424 170.472C72.4618 176.724 82.037 179.186 89.1503 173.805C96.2636 168.424 94.1503 158.391 91.6557 153.391C89.1612 148.391 87.4836 145.482 87.4836 145.482L66.2091 149.23Z" fill="#B2B2B2" stroke="#263238" stroke-linecap="round" stroke-linejoin="round"/>
<path d="M92.037 150.058L104.945 140.482C106.612 139.23 108.279 135.036 105.784 133.402C103.29 131.768 100.338 134.644 100.338 134.644C100.338 134.644 91.1655 139.23 89.4444 139.23C87.7232 139.23 85.2831 134.23 83.9977 132.149C82.7123 130.069 79.9563 115.907 79.1176 113.424C78.2788 110.94 72.8757 111.757 72.8757 115.504C72.8757 119.252 75.3703 130.09 75.3703 130.09L69.5424 130.918C69.5424 130.918 64.5424 118.87 63.2897 116.321C62.037 113.772 56.6339 114.655 57.4618 117.988C58.2897 121.321 62.9084 133.402 62.9084 133.402H59.5424C59.5424 133.402 51.6339 123.816 49.9672 123.402C48.3006 122.988 46.6339 125.482 49.5533 129.644C52.4727 133.805 56.2091 138.358 56.2091 138.358C56.2091 138.358 47.4945 137.53 46.22 137.116C44.9455 136.703 42.0479 140.025 45.3812 141.692C48.6199 143.066 51.9641 144.177 55.3812 145.014C55.3812 145.014 61.2091 152.933 67.0479 152.095C70.3317 151.668 73.5487 150.83 76.623 149.6C76.623 149.6 82.4509 154.23 92.037 150.058Z" fill="#B2B2B2" stroke="#263238" stroke-linecap="round" stroke-linejoin="round"/>
<path d="M133.649 378.38L138.224 390.461L161.972 388.38V370.472L133.649 378.38Z" fill="white" stroke="#263238" stroke-linecap="round" stroke-linejoin="round"/>
<path d="M27.4291 370.472L25.7625 382.138L46.1764 388.794L55.7516 374.633L27.4291 370.472Z" fill="white" stroke="#263238" stroke-linecap="round" stroke-linejoin="round"/>
</svg>
