<svg width="200" height="194" viewBox="0 0 200 194" fill="none" xmlns="http://www.w3.org/2000/svg">
<path d="M41.4851 167.09C41.5857 166.956 41.6565 166.802 41.6929 166.639C41.7293 166.476 41.7303 166.307 41.696 166.143C41.4686 165.531 40.5342 165.705 40.0422 166.118C38.6324 167.284 37.9957 169.463 36.2261 169.918C35.8036 169.974 35.3881 170.074 34.9858 170.215C34.2126 170.604 34.0142 171.592 33.7454 172.419C33.4767 173.246 32.8111 174.168 31.9676 173.969C31.4963 173.858 31.1821 173.432 30.8017 173.142C30.4213 172.853 29.7846 172.708 29.5159 173.114C29.4494 173.265 29.415 173.428 29.415 173.593C29.415 173.758 29.4494 173.922 29.5159 174.073C30.1319 176.326 29.6234 178.765 28.5939 180.862C27.5644 182.958 26.0512 184.773 24.5504 186.563C24.0832 182.118 28.4492 178.294 28.1805 173.841C28.1143 172.762 27.767 171.72 27.6719 170.645C27.4073 167.941 29.0156 164.948 31.6658 164.357C32.1495 164.249 32.7077 164.191 32.9971 163.79C33.4395 163.178 32.8152 162.261 32.0669 162.137C31.3185 162.013 30.595 162.401 29.9376 162.773C30.1147 162.067 30.5013 161.431 31.0466 160.948C31.5919 160.466 32.2704 160.159 32.993 160.069C33.7124 159.991 34.469 160.135 35.1512 159.883C35.8333 159.631 36.3295 158.701 35.8251 158.18C35.0271 157.353 33.4478 158.891 32.563 158.155C31.9718 157.663 32.3439 156.72 32.716 156.051C33.0881 155.381 33.332 154.351 32.654 153.983C31.9759 153.615 31.2358 154.484 30.9009 155.224C29.0652 159.196 27.2309 163.167 25.398 167.139C24.8646 168.293 24.3189 169.521 24.476 170.782C24.5835 171.654 25.0218 172.435 25.3401 173.262C25.6585 174.089 25.8569 175.024 25.4889 175.826C25.121 176.628 23.984 177.087 23.3184 176.516C22.9987 176.174 22.7935 175.74 22.7313 175.276C22.293 173.419 21.8589 171.472 22.3468 169.632C22.8181 167.859 24.1204 166.325 24.1535 164.468C24.1783 163.063 23.4589 161.545 24.1535 160.334C24.5488 159.772 25.0555 159.298 25.6419 158.941C26.1918 158.527 26.7334 158.015 26.8409 157.336C26.9484 156.658 26.3613 155.869 25.6957 156.026C24.7654 156.249 24.6745 157.89 23.7194 157.944C23.124 157.977 22.7189 157.25 22.847 156.667C23.033 156.094 23.3893 155.592 23.8682 155.228L26.2456 153.028C26.8078 152.507 27.4239 151.788 27.1882 151.073C26.9525 150.358 26.014 150.134 25.3277 150.411C24.6685 150.752 24.1151 151.267 23.7277 151.9C23.9149 151.369 23.9936 150.807 23.9592 150.246C23.9394 149.966 23.8368 149.699 23.6645 149.478C23.4922 149.257 23.258 149.093 22.9917 149.006C22.1979 148.815 21.4827 149.63 21.338 150.436C21.1933 151.242 21.3793 152.09 21.2925 152.888C21.2057 153.686 20.6723 154.599 19.8454 154.604C19.1219 154.604 18.5596 153.872 18.5141 153.148C18.5222 152.417 18.7514 151.705 19.1715 151.106C19.5872 150.508 19.9054 149.848 20.1142 149.15C20.2589 148.427 20.0604 147.6 19.432 147.215C18.8035 146.831 17.7989 147.265 17.8319 147.993C17.6872 147.091 17.249 145.946 16.3435 146.02C15.4381 146.095 15.1983 147.186 15.19 148.042C15.1774 150.706 15.8025 153.335 17.0133 155.707C17.7534 157.15 18.7002 158.482 19.3948 159.949C20.0894 161.417 20.5317 163.079 20.1638 164.659C19.9405 165.622 19.432 166.49 19.0847 167.416C18.6349 168.655 18.4756 169.981 18.619 171.291C18.7623 172.602 19.2046 173.862 19.9116 174.974C19.3203 175.028 18.849 174.536 18.386 174.172C17.9229 173.808 17.1746 173.56 16.7942 174.015C16.6788 174.198 16.6302 174.415 16.6566 174.63C16.6829 174.845 16.7827 175.044 16.9389 175.193C17.2607 175.484 17.6317 175.715 18.0345 175.875C18.9639 176.35 19.7801 177.019 20.4273 177.837C21.0744 178.655 21.5374 179.604 21.7845 180.618C20.6971 180.758 19.8082 178.964 18.8904 179.53C18.2785 179.902 18.5513 180.903 19.126 181.333C19.7007 181.763 20.4491 181.912 20.9907 182.383C21.3818 182.757 21.6105 183.27 21.6275 183.811C21.6445 184.353 21.4485 184.879 21.0816 185.277C20.3085 186.042 19.1095 185.719 18.1875 185.157C16.3849 184.012 15.1106 182.197 14.6443 180.113C14.0737 178.418 14.7518 176.558 14.9585 175.197C15.2066 173.544 16.3601 172.08 16.4924 170.401C16.6247 168.723 15.7523 166.796 16.5337 165.237C16.9224 164.464 17.65 163.935 18.2702 163.336C18.8904 162.736 19.4526 161.938 19.341 161.082C19.2294 160.226 18.1007 159.565 17.4557 160.16C17.1498 160.454 17.0175 160.987 16.5999 161.066C16.1823 161.144 15.8226 160.681 15.8226 160.239C15.874 159.814 15.9782 159.397 16.1327 158.999C16.2068 158.795 16.2169 158.574 16.1614 158.365C16.106 158.156 15.9877 157.968 15.8226 157.828C15.6075 157.737 15.365 157.734 15.1475 157.819C14.9301 157.905 14.7552 158.073 14.6608 158.287C14.4908 158.725 14.4437 159.201 14.5244 159.664L14.8469 163.542C14.8758 163.885 14.8469 164.311 14.5533 164.46C14.2598 164.609 13.9208 164.39 13.6892 164.158C13.1449 163.598 12.7182 162.934 12.4342 162.206C12.1502 161.479 12.0146 160.701 12.0354 159.92C12.0863 158.352 12.573 156.829 13.4412 155.521C13.8771 154.933 14.2485 154.3 14.5492 153.632C14.6932 153.298 14.7486 152.932 14.7103 152.57C14.6719 152.208 14.5409 151.862 14.3301 151.565C13.8587 151.007 12.8251 150.949 12.4489 151.565C12.1264 152.106 12.3993 152.805 12.4489 153.417C12.5729 154.827 11.56 156.042 10.9605 157.324C10.4045 158.556 10.2069 159.919 10.3905 161.258C10.574 162.597 11.1313 163.857 11.9982 164.894C12.5729 165.556 13.2675 166.11 13.8133 166.796C14.1098 167.12 14.3334 167.504 14.469 167.922C14.6045 168.34 14.6487 168.782 14.5988 169.219C14.4376 170.079 13.5362 170.819 12.697 170.558C12.0189 170.348 11.6468 169.616 11.4814 168.925C11.3161 168.235 11.2582 167.495 10.8902 166.891C10.5222 166.288 9.64987 165.882 9.08758 166.3C8.90846 166.459 8.77138 166.66 8.68845 166.885C8.60552 167.11 8.57931 167.352 8.61212 167.59C8.71961 169.814 10.8985 171.311 11.8825 173.304C12.2548 174.078 12.4481 174.926 12.4481 175.784C12.4481 176.643 12.2548 177.491 11.8825 178.265C11.5269 177.707 11.13 177.116 10.514 176.872C9.89793 176.628 9.02143 176.971 8.99249 177.633C9.01275 177.991 9.16957 178.328 9.43074 178.575C10.1144 179.343 11.0018 179.9 11.99 180.183C11.775 181.916 12.8169 183.599 14.0572 184.81C15.2975 186.021 16.8562 186.947 18.1048 188.188C19.3534 189.428 20.2506 191.495 19.9488 193.215L27.858 193.161C27.9232 192.331 28.2376 191.54 28.7599 190.892C29.2822 190.244 29.9881 189.768 30.7852 189.527C31.6121 189.288 32.5341 189.325 33.3403 188.986C34.1465 188.647 34.8163 187.696 34.407 186.918C34.2634 186.689 34.0591 186.505 33.8167 186.385C33.5743 186.265 33.3035 186.215 33.0343 186.24C32.4972 186.295 31.9753 186.45 31.4963 186.699C31.6141 186.614 31.7125 186.504 31.7852 186.378C31.8579 186.252 31.9032 186.112 31.9182 185.967C31.9332 185.822 31.9176 185.676 31.8723 185.537C31.827 185.399 31.753 185.271 31.6553 185.164C31.5575 185.056 31.4382 184.969 31.3049 184.911C31.1717 184.852 31.0276 184.822 30.8819 184.822C30.7363 184.823 30.5924 184.854 30.4596 184.914C30.3269 184.974 30.2082 185.061 30.1113 185.17C29.7433 185.583 29.7474 186.183 29.5283 186.679C29.3092 187.175 28.536 187.506 28.259 187.047C28.2099 186.92 28.1878 186.785 28.1942 186.65C28.2006 186.515 28.2354 186.382 28.2962 186.261C28.7634 184.917 29.272 183.512 30.3635 182.59C32.5878 180.692 36.3998 181.531 38.3967 179.39C38.5974 179.207 38.7499 178.977 38.8408 178.721C38.9316 178.465 38.958 178.191 38.9176 177.922C38.682 177.033 37.4292 176.884 36.5941 177.265C35.7589 177.645 35.085 178.36 34.2044 178.625C33.3237 178.889 32.0917 178.344 32.224 177.434C32.3025 176.863 32.8813 176.496 33.4643 176.371C34.0473 176.247 34.6178 176.285 35.1718 176.132C35.7258 175.979 36.2716 175.528 36.2592 174.953C36.2461 174.846 36.2107 174.742 36.1553 174.649C36.0999 174.555 36.0257 174.475 35.9374 174.412C35.8492 174.349 35.7487 174.305 35.6425 174.283C35.5364 174.261 35.4267 174.261 35.3207 174.284C37.8265 172.312 39.9209 169.868 41.4851 167.09Z" fill="#EBEBEB"/>
<path d="M48.2863 42.2457C54.7026 42.2457 59.9041 37.0443 59.9041 30.6279C59.9041 24.2116 54.7026 19.0101 48.2863 19.0101C41.8699 19.0101 36.6685 24.2116 36.6685 30.6279C36.6685 37.0443 41.8699 42.2457 48.2863 42.2457Z" fill="#EBEBEB"/>
<path d="M37.2585 57.2761C40.6636 53.8709 40.6636 48.35 37.2585 44.9448C33.8533 41.5396 28.3323 41.5396 24.9271 44.9448C21.5219 48.35 21.5219 53.8709 24.9271 57.2761C28.3323 60.6813 33.8533 60.6813 37.2585 57.2761Z" fill="#EBEBEB"/>
<path d="M183.363 62.2401C187.738 62.2401 191.285 58.6934 191.285 54.3185C191.285 49.9435 187.738 46.3969 183.363 46.3969C178.988 46.3969 175.441 49.9435 175.441 54.3185C175.441 58.6934 178.988 62.2401 183.363 62.2401Z" fill="#E0E0E0"/>
<path d="M25.154 30.6281C28.047 30.6281 30.3923 28.2828 30.3923 25.3897C30.3923 22.4967 28.047 20.1514 25.154 20.1514C22.2609 20.1514 19.9156 22.4967 19.9156 25.3897C19.9156 28.2828 22.2609 30.6281 25.154 30.6281Z" fill="#EBEBEB"/>
<path d="M171.712 46.2522C174.164 46.2522 176.152 44.2642 176.152 41.8118C176.152 39.3594 174.164 37.3714 171.712 37.3714C169.26 37.3714 167.272 39.3594 167.272 41.8118C167.272 44.2642 169.26 46.2522 171.712 46.2522Z" fill="#E0E0E0"/>
<path d="M190.039 38.153C190.336 36.3182 189.089 34.5901 187.255 34.2933C185.42 33.9964 183.692 35.2432 183.395 37.078C183.098 38.9128 184.345 40.6409 186.18 40.9378C188.014 41.2346 189.742 39.9878 190.039 38.153Z" fill="#E0E0E0"/>
<path d="M176.74 159.677L181.639 192.868L182.912 192.905C182.098 181.635 181.234 170.137 176.74 159.677Z" fill="#E0E0E0"/>
<path d="M190.342 156.348C186.923 160.094 185.546 165.25 184.678 170.253C183.437 177.343 183.338 185.715 183.706 192.905L185.496 192.947C184.786 180.551 186.43 168.132 190.342 156.348Z" fill="#E0E0E0"/>
<path d="M177.641 182.887C177.227 181.676 176.814 180.444 175.809 179.41C174.478 178.017 172.307 177.136 170.12 176.45C167.933 175.764 165.638 175.21 163.666 174.267C165.866 176.797 170.864 177.471 173.411 179.836C174.676 181.015 175.206 182.491 175.702 183.925C176.781 187.051 177.446 189.755 178.53 192.876H179.981C179.494 189.485 178.711 186.142 177.641 182.887Z" fill="#E0E0E0"/>
<path d="M186.799 192.905C186.799 192.905 188.039 179.051 188.936 176.508C189.833 173.965 198.445 166.937 198.363 167.268C198.28 167.598 191.913 175.288 191.003 176.859C190.094 178.431 188.523 192.905 188.523 192.905H186.799Z" fill="#E0E0E0"/>
<path d="M200 192.934C200 192.992 157.667 193.042 105.462 193.042C53.2559 193.042 10.9109 192.992 10.9109 192.934C10.9109 192.876 53.2353 192.827 105.462 192.827C157.688 192.827 200 192.872 200 192.934Z" fill="#263238"/>
<path d="M156.394 58.7091C167.025 68.6293 174.464 81.4888 177.762 95.6503C181.061 109.812 180.071 124.635 174.918 138.232C169.766 151.829 160.683 163.585 148.827 172.003C136.971 180.421 122.878 185.121 108.342 185.504C93.8067 185.886 79.486 181.935 67.2035 174.152C54.921 166.369 45.2324 155.107 39.3712 141.8C33.51 128.493 31.7414 113.743 34.2906 99.4274C36.8398 85.1119 43.5914 71.8788 53.6859 61.413C53.6859 61.413 61.3842 59.5112 72.7416 62.6864C84.0989 65.8617 90.222 69.4917 101.563 66.3123C112.904 63.133 112.226 59.2838 122.649 58.7091C133.071 58.1344 137.119 60.8714 144.631 62.0167C152.144 63.1619 156.394 58.7091 156.394 58.7091Z" fill="#E0E0E0"/>
<path d="M172.374 76.4872C171.872 76.666 171.359 76.8151 170.84 76.9337C169.383 77.3662 167.979 77.9611 166.656 78.7074C164.579 79.9099 162.638 81.3336 160.867 82.9535C159.813 83.8837 158.726 84.9256 157.593 86.0585C156.46 87.1913 155.282 88.4068 154 89.6596C151.445 92.1402 148.493 94.8318 144.669 96.7708C142.687 97.7871 140.533 98.4263 138.318 98.6561C135.979 98.8144 133.629 98.6193 131.347 98.0773C129.02 97.5894 126.692 96.9403 124.319 96.5104C123.12 96.2947 121.907 96.1676 120.689 96.13C119.461 96.1172 118.236 96.256 117.042 96.5434C116.74 96.6077 116.442 96.6905 116.149 96.7915C115.856 96.8907 115.554 96.9693 115.264 97.085C114.678 97.3136 114.104 97.573 113.545 97.8623C113.263 98.0112 112.978 98.1517 112.718 98.3088L111.891 98.8132C111.614 98.9745 111.349 99.1605 111.085 99.3466L110.291 99.9047C108.203 101.468 106.247 103.291 104.234 105.122C102.22 106.954 100.182 108.765 97.8915 110.212C96.7638 110.933 95.5883 111.577 94.3731 112.139C93.1765 112.68 91.9508 113.155 90.7017 113.561C85.7403 115.161 80.7252 115.678 76.0037 115.851C71.2821 116.025 66.7921 115.851 62.6163 115.889C58.7445 115.852 54.8752 116.101 51.0399 116.633C47.8939 117.091 44.8139 117.924 41.8655 119.113C39.6417 120.02 37.5369 121.195 35.5977 122.611C32.4307 124.997 31.2069 126.894 31.1118 126.803C31.3777 126.338 31.6879 125.899 32.0379 125.493C33.0285 124.311 34.1368 123.234 35.3455 122.276C37.273 120.773 39.3849 119.522 41.6299 118.555C44.6046 117.281 47.7247 116.377 50.92 115.864C54.7826 115.275 58.6843 114.979 62.5915 114.979C66.788 114.913 71.2739 115.037 75.9499 114.847C80.626 114.656 85.546 114.107 90.3585 112.54C91.5674 112.145 92.7531 111.683 93.91 111.155C95.08 110.613 96.2114 109.991 97.2961 109.294C99.4915 107.905 101.484 106.127 103.498 104.333C105.511 102.538 107.483 100.661 109.637 99.0489L110.464 98.4701C110.737 98.2758 111.014 98.0856 111.291 97.9161L112.151 97.3869C112.441 97.2215 112.742 97.0768 113.04 96.9197C113.623 96.5889 114.26 96.3657 114.868 96.0928C115.178 95.9729 115.504 95.8861 115.818 95.7827C116.132 95.6719 116.452 95.5835 116.778 95.5181C118.058 95.217 119.37 95.0781 120.685 95.1046C121.958 95.147 123.227 95.2852 124.48 95.5181C126.94 95.9729 129.268 96.6385 131.546 97.1264C133.732 97.661 135.985 97.8659 138.231 97.7342C140.335 97.5296 142.382 96.9395 144.272 95.9935C147.964 94.1661 150.887 91.5573 153.471 89.1304C154.757 87.9107 155.952 86.7034 157.109 85.5871C158.267 84.4708 159.383 83.4414 160.471 82.5194C162.303 80.9065 164.316 79.5108 166.47 78.3601C167.835 77.6392 169.287 77.096 170.79 76.7435C171.303 76.6112 171.708 76.5823 171.973 76.5327C172.103 76.4964 172.238 76.4811 172.374 76.4872Z" fill="#F5F5F5"/>
<path d="M34.9072 131.017C36.3956 123.794 43.7756 119.056 51.0729 117.981C58.3702 116.906 65.742 118.638 73.0269 119.812C80.3118 120.986 88.1093 121.524 94.7451 118.311C103.473 114.086 108.856 103.994 118.258 101.637C126.159 99.6526 134.597 103.824 142.539 102.022C148.927 100.575 153.822 95.547 157.998 90.503C162.174 85.459 166.267 79.9974 172.088 77.0371L176.376 85.397C176.376 85.397 164.741 94.2902 160.739 99.2805C156.737 104.271 152.363 109.203 137.061 109.588C137.061 109.588 123.889 106.578 118.568 108.571C113.247 110.563 102.319 127.056 94.5301 128.631C86.7408 130.206 64.6133 125.013 56.2203 127.134C47.8274 129.255 38.8308 140.592 38.8308 140.592L34.9072 131.017Z" fill="#F5F5F5"/>
<path d="M157.423 59.197L157.184 59.3376L156.468 59.7303C155.526 60.1923 154.542 60.5634 153.529 60.8384C151.922 61.2607 150.27 61.4897 148.609 61.5205C146.41 61.5593 144.212 61.396 142.043 61.0327C139.633 60.6606 137.028 60.0487 134.221 59.4864C131.249 58.8191 128.216 58.4684 125.17 58.4404C121.95 58.4404 118.634 59.3045 115.397 60.611C112.159 61.9175 108.918 63.596 105.474 64.9728C103.767 65.6688 102.005 66.2219 100.207 66.6266C98.4564 67.0102 96.6692 67.2001 94.8774 67.193C91.4944 67.12 88.133 66.634 84.8679 65.746C81.7422 64.9439 78.8233 64.0012 76.0821 63.1661C73.5429 62.3769 70.9652 61.7173 68.359 61.1898C66.2139 60.7522 64.0354 60.4977 61.8472 60.429C60.1948 60.3886 58.5421 60.5021 56.9107 60.7681C55.8822 60.9504 54.868 61.206 53.876 61.5329L53.1029 61.8017L52.8383 61.8844C52.8383 61.8844 52.9251 61.843 53.0946 61.781L53.8595 61.4916C54.8488 61.1463 55.8634 60.8782 56.8942 60.6895C58.5321 60.4051 60.1934 60.2777 61.8555 60.3091C64.0512 60.3669 66.238 60.6117 68.3921 61.0409C71.0012 61.5675 73.5817 62.2271 76.1235 63.0172C78.8688 63.8441 81.7835 64.7826 84.9051 65.5764C88.1545 66.4456 91.4977 66.9163 94.8608 66.978C96.6374 66.9845 98.4092 66.7959 100.145 66.4157C101.93 66.0086 103.68 65.4555 105.375 64.762C108.827 63.3893 112.048 61.6983 115.318 60.4042C118.588 59.1102 121.933 58.2337 125.166 58.2295C128.399 58.2254 131.451 58.7339 134.262 59.3003C137.074 59.8668 139.67 60.4869 142.072 60.8714C144.231 61.2412 146.419 61.4142 148.609 61.3882C150.26 61.3785 151.905 61.1731 153.508 60.7763C154.519 60.5139 155.503 60.1581 156.448 59.7138L157.171 59.3376L157.423 59.197Z" fill="#263238"/>
<path d="M61.4504 108.355L69.6284 165.684L105.429 160.574L97.263 103.245L61.4504 108.355ZM91.0861 133.373L76.5536 135.44L74.8998 123.781C74.763 122.827 74.8156 121.855 75.0546 120.922C75.2936 119.988 75.7142 119.111 76.2925 118.34C76.8707 117.569 77.5953 116.919 78.4247 116.428C79.2541 115.938 80.1721 115.615 81.1263 115.479C82.0803 115.342 83.0519 115.395 83.9856 115.634C84.9192 115.873 85.7966 116.294 86.5677 116.872C87.3387 117.45 87.9882 118.175 88.479 119.004C88.9698 119.833 89.2924 120.751 89.4282 121.706L91.0861 133.373Z" fill="#263238"/>
<path d="M98.4 89.4736L99.2641 95.5471L92.6159 96.4939L91.7477 90.4245L86.5713 91.1604L87.4354 97.2339L80.7872 98.1807L79.919 92.1113L74.7385 92.8514L75.6068 98.9208L68.9586 99.8717L68.0903 93.7982L62.9099 94.5383L63.7781 100.608L57.1299 101.559L56.2617 95.4892L52.9665 95.9564L55.3976 112.974L103.163 106.156L100.736 89.1387L98.4 89.4736Z" fill="#263238"/>
<path d="M102.059 99.2805C102.059 99.3384 91.3633 100.934 78.1537 102.799C64.9441 104.664 54.2235 106.164 54.2152 106.106C54.2069 106.049 64.911 104.473 78.1413 102.584C91.3715 100.694 102.051 99.2267 102.059 99.2805Z" fill="#455A64"/>
<path d="M102.807 106.206C102.807 106.268 92.2149 107.826 79.1376 109.695C66.0603 111.564 55.4431 113.027 55.4348 112.965C55.4265 112.903 66.0231 111.349 79.1045 109.48C92.1859 107.611 102.799 106.148 102.807 106.206Z" fill="#455A64"/>
<path d="M61.4546 105.156C61.1258 103.855 60.936 102.523 60.8882 101.182C61.0884 101.824 61.2201 102.485 61.2809 103.155C61.4107 103.813 61.4689 104.484 61.4546 105.156Z" fill="#455A64"/>
<path d="M69.7772 110.919C69.5076 109.788 69.3074 108.642 69.1777 107.487C68.978 106.343 68.8495 105.187 68.7932 104.027C69.0627 105.157 69.2629 106.303 69.3927 107.458C69.5899 108.603 69.7183 109.759 69.7772 110.919Z" fill="#455A64"/>
<path d="M89.0397 108.174C88.768 107.042 88.5677 105.895 88.4402 104.738C88.2415 103.599 88.1158 102.449 88.0639 101.294C88.3327 102.424 88.5316 103.571 88.6593 104.726C88.8555 105.866 88.9825 107.018 89.0397 108.174Z" fill="#455A64"/>
<path d="M93.2072 100.624C92.9889 99.8792 92.8435 99.1148 92.773 98.3418C92.6282 97.5785 92.5535 96.8035 92.5498 96.0266C92.7633 96.7726 92.9086 97.5365 92.9839 98.3088C93.1287 99.0721 93.2034 99.8471 93.2072 100.624Z" fill="#455A64"/>
<path d="M76.1691 103.159C75.9606 102.486 75.8221 101.793 75.7557 101.091C75.6185 100.4 75.5548 99.6959 75.5655 98.9911C75.7734 99.6643 75.9119 100.357 75.9789 101.058C76.1123 101.75 76.176 102.454 76.1691 103.159Z" fill="#455A64"/>
<path d="M98.6523 112.982C98.6523 113.044 90.648 114.222 80.7626 115.645C70.8771 117.067 62.8438 118.154 62.8438 118.096C62.8438 118.039 70.844 116.856 80.7336 115.434C90.6232 114.012 98.6441 112.924 98.6523 112.982Z" fill="#455A64"/>
<path d="M74.9329 123.641C74.9329 123.698 72.5101 124.095 69.5043 124.525C66.4986 124.955 64.051 125.253 64.0427 125.195C64.0344 125.137 66.4655 124.74 69.4713 124.31C72.477 123.88 74.9246 123.583 74.9329 123.641Z" fill="#455A64"/>
<path d="M99.3261 120.25C99.3261 120.308 97.1927 120.664 94.5426 121.04C91.8924 121.416 89.7383 121.677 89.7301 121.619C89.7218 121.561 91.8634 121.205 94.5136 120.825C97.1638 120.445 99.3179 120.188 99.3261 120.25Z" fill="#455A64"/>
<path d="M75.983 130.992C75.983 131.05 73.5396 131.446 70.509 131.881C67.4785 132.315 65.0102 132.617 65.0019 132.559C64.9937 132.501 67.4454 132.1 70.4801 131.666C73.5148 131.231 75.9748 130.93 75.983 130.992Z" fill="#455A64"/>
<path d="M100.533 127.134C100.533 127.192 98.334 127.548 95.597 127.961C92.86 128.375 90.6356 128.619 90.6356 128.561C90.6356 128.503 92.8351 128.147 95.5722 127.734C98.3092 127.32 100.525 127.076 100.533 127.134Z" fill="#455A64"/>
<path d="M101.732 134.018C101.732 134.08 93.7157 135.258 83.8095 136.685C73.9034 138.111 65.8619 139.199 65.8536 139.141C65.8453 139.083 73.8703 137.9 83.7806 136.474C93.6909 135.048 101.708 133.956 101.732 134.018Z" fill="#455A64"/>
<path d="M102.671 140.592C102.671 140.65 94.6543 141.832 84.7481 143.259C74.842 144.685 66.8005 145.768 66.7922 145.71C66.7839 145.652 74.8089 144.47 84.7192 143.044C94.6295 141.617 102.663 140.53 102.671 140.592Z" fill="#455A64"/>
<path d="M103.659 147.509C103.659 147.567 95.6423 148.749 85.7362 150.176C75.83 151.602 67.7885 152.685 67.7802 152.627C67.772 152.569 75.7928 151.387 85.7031 149.961C95.6134 148.534 103.651 147.447 103.659 147.509Z" fill="#455A64"/>
<path d="M104.643 154.422C104.643 154.484 96.6263 155.662 86.7201 157.088C76.814 158.515 68.7725 159.602 68.7642 159.544C68.756 159.486 76.7809 158.304 86.6912 156.877C96.6015 155.451 104.635 154.364 104.643 154.422Z" fill="#455A64"/>
<path d="M81.3289 115.5C81.0781 114.499 80.8972 113.483 80.7873 112.457C80.6075 111.444 80.497 110.421 80.4565 109.393C80.7073 110.391 80.8883 111.405 80.9981 112.428C81.178 113.443 81.2885 114.47 81.3289 115.5Z" fill="#455A64"/>
<path d="M72.9153 138.132C72.6587 137.091 72.4709 136.034 72.353 134.969C72.1683 133.912 72.0523 132.845 72.0057 131.773C72.2652 132.813 72.4531 133.87 72.568 134.936C72.7551 135.992 72.8712 137.06 72.9153 138.132Z" fill="#455A64"/>
<path d="M74.7964 151.321C74.5399 150.279 74.3534 149.221 74.2383 148.154C74.0486 147.098 73.9326 146.03 73.891 144.958C74.1476 146 74.334 147.058 74.4491 148.125C74.6365 149.181 74.7525 150.249 74.7964 151.321Z" fill="#455A64"/>
<path d="M76.7232 164.828C76.4688 163.787 76.2823 162.73 76.165 161.665C75.9779 160.609 75.8619 159.541 75.8177 158.469C76.0741 159.51 76.2605 160.567 76.3759 161.632C76.5656 162.688 76.6816 163.756 76.7232 164.828Z" fill="#455A64"/>
<path d="M70.9308 124.211C70.65 123.027 70.4416 121.827 70.3065 120.618C70.0981 119.419 69.96 118.208 69.893 116.992C70.1738 118.176 70.3823 119.376 70.5173 120.585C70.7257 121.785 70.8638 122.995 70.9308 124.211Z" fill="#455A64"/>
<path d="M94.7328 120.817C94.455 119.631 94.2479 118.43 94.1126 117.22C93.9015 116.021 93.7635 114.81 93.6992 113.594C93.9751 114.78 94.1821 115.981 94.3194 117.191C94.528 118.39 94.666 119.601 94.7328 120.817Z" fill="#455A64"/>
<path d="M96.7049 134.647C96.4538 133.523 96.2715 132.385 96.1592 131.24C95.9745 130.103 95.8626 128.955 95.8243 127.804C96.0747 128.929 96.2569 130.068 96.37 131.215C96.5548 132.351 96.6667 133.497 96.7049 134.647Z" fill="#455A64"/>
<path d="M98.5902 148.187C98.34 147.063 98.1577 145.926 98.0444 144.78C97.8597 143.643 97.7478 142.496 97.7095 141.344C97.9606 142.468 98.1429 143.605 98.2553 144.751C98.44 145.888 98.5519 147.036 98.5902 148.187Z" fill="#455A64"/>
<path d="M100.521 161.277C100.12 159.326 99.8647 157.349 99.7562 155.36C100.152 157.312 100.407 159.289 100.521 161.277Z" fill="#455A64"/>
<path d="M85.9967 142.969C85.7467 141.894 85.5685 140.802 85.4634 139.703C85.2858 138.609 85.1808 137.504 85.1491 136.395C85.3934 137.473 85.5701 138.566 85.6783 139.666C85.856 140.759 85.9623 141.862 85.9967 142.969Z" fill="#455A64"/>
<path d="M88.0639 157.064C87.8164 155.986 87.6396 154.894 87.5347 153.793C87.3569 152.699 87.2506 151.594 87.2164 150.486C87.4639 151.563 87.6407 152.656 87.7456 153.756C87.9234 154.851 88.0298 155.955 88.0639 157.064Z" fill="#455A64"/>
<path d="M162.778 158.982C162.778 158.982 155.637 166.718 151.495 169.963C136.792 181.467 118.253 186.925 99.6631 185.222C81.0729 183.519 63.8337 174.784 51.4658 160.801C51.4658 160.801 56.5512 156.092 61.2314 157.601C65.9116 159.11 89.449 163.823 97.5236 160.685C105.598 157.547 116.741 152.417 128.776 153.09C140.811 153.764 149.076 163.538 162.778 158.982Z" fill="#455A64"/>
<path d="M97.8956 166.817C99.4272 169.322 101.841 171.163 104.663 171.978C107.484 172.792 110.508 172.52 113.139 171.216C114.76 170.41 116.219 169.223 117.981 168.805C121.102 168.07 124.679 169.872 127.457 168.268C128.143 167.855 128.763 167.139 128.602 166.362C128.412 165.461 127.341 165.089 126.427 164.965C121.272 164.253 116.091 166.259 110.886 165.961C108.699 165.837 106.553 165.308 104.37 165.163C102.187 165.018 99.8636 165.308 98.1188 166.627" fill="#263238"/>
<path d="M68.1524 129.367C70.2196 131.021 72.0677 132.294 72.444 134.688C72.5845 135.581 72.568 136.515 72.9112 137.35C73.4156 138.562 74.6352 139.438 74.875 140.728C75.1603 142.246 73.9778 143.784 74.3665 145.276C74.6683 146.454 75.8673 147.228 76.227 148.389C76.7273 149.994 75.4952 151.61 75.4001 153.285C75.3257 154.496 75.8508 155.649 76.1236 156.832C76.3965 158.014 76.4792 159.726 75.5365 160.491L71.77 159.891C72.0009 159.591 72.1501 159.236 72.203 158.86C72.2559 158.485 72.2107 158.102 72.0719 157.75C71.8031 157.092 71.3814 156.48 71.2739 155.778C71.0713 154.45 72.0223 153.194 72.0305 151.85C72.0305 150.287 70.7902 148.956 70.5917 147.418C70.3809 145.731 71.4558 144.011 71.0052 142.374C70.6662 141.179 69.5829 140.307 69.186 139.145C68.8181 138.057 69.0951 136.871 69.277 135.738C69.6656 133.274 69.2894 131.74 68.1524 129.367Z" fill="#00B2D0"/>
<path d="M77.798 160.851C79.5097 160.119 80.8327 157.845 80.5061 156.009C80.2952 154.852 79.6089 153.624 80.1629 152.582C80.5763 151.846 81.4653 151.494 81.8498 150.75C82.5898 149.324 80.9733 147.678 81.2172 146.091C81.4404 144.639 83.1025 143.825 83.5862 142.44C83.8839 141.588 83.6979 140.658 83.7309 139.761C83.764 138.864 84.1444 137.83 85.0374 137.619C84.3511 137.148 83.3588 137.404 82.7469 137.975C82.1783 138.592 81.7546 139.327 81.5066 140.129C81.262 140.93 80.8378 141.666 80.2663 142.279C79.3691 143.106 77.9138 143.366 77.4176 144.478C76.7148 146.053 78.5422 147.993 77.707 149.497C77.1944 150.419 75.9127 150.659 75.3297 151.536C74.3912 152.941 75.7804 154.905 75.214 156.497C74.9866 157.134 74.478 157.622 74.1059 158.188C73.7338 158.755 73.4858 159.672 73.8744 160.222" fill="#00B2D0"/>
<path d="M58.395 144.458C58.3743 145.284 59.04 146.004 59.7966 146.351C60.5773 146.637 61.387 146.837 62.2111 146.947C63.0435 147.06 63.8078 147.467 64.3652 148.096C64.9316 148.861 64.9523 149.973 65.651 150.614C66.6143 151.499 68.3921 151.06 69.2107 152.077C70.0294 153.094 69.3761 154.728 70.3022 155.554C70.6957 155.816 71.1208 156.025 71.5674 156.179C72.7292 156.77 73.2666 158.953 72.6134 160.078L68.7353 159.412C67.8381 159.139 67.4123 158.428 67.1849 157.514C66.9575 156.6 66.7714 155.588 66.052 154.992C65.3326 154.397 64.0964 154.401 63.3191 153.752C62.0375 152.698 62.4923 150.415 61.2519 149.324C60.6235 148.774 59.718 148.683 59.011 148.236C58.719 148.032 58.4708 147.77 58.2812 147.468C58.0916 147.166 57.9643 146.829 57.9069 146.477C57.8495 146.125 57.8631 145.765 57.9469 145.418C58.0308 145.071 58.1831 144.745 58.395 144.458Z" fill="#00B2D0"/>
<path d="M73.6347 160.057C73.5395 159.934 73.4705 159.794 73.4321 159.643C73.3942 159.439 73.4052 159.229 73.4641 159.03C73.523 158.831 73.6282 158.649 73.7712 158.498C73.9712 158.293 74.1884 158.105 74.4203 157.936C74.6974 157.731 74.9487 157.494 75.1686 157.229C75.2882 157.079 75.3806 156.91 75.4415 156.729C75.5015 156.536 75.5267 156.335 75.5159 156.133C75.4666 155.725 75.3522 155.327 75.1769 154.955C75.0046 154.597 74.8661 154.223 74.7634 153.839C74.6988 153.48 74.7115 153.112 74.8006 152.76C74.8734 152.436 75.0007 152.127 75.1769 151.846C75.3441 151.61 75.5415 151.398 75.764 151.213C76.0826 150.932 76.4151 150.667 76.7604 150.419C77.0043 150.242 77.149 150.159 77.1449 150.147C76.9978 150.201 76.8587 150.274 76.7314 150.366C76.3677 150.594 76.0209 150.848 75.6937 151.126C75.456 151.312 75.2446 151.529 75.0652 151.771C74.8749 152.063 74.7351 152.384 74.6518 152.722C74.5533 153.096 74.5378 153.487 74.6063 153.868C74.7074 154.263 74.8458 154.648 75.0198 155.017C75.1873 155.373 75.2988 155.752 75.3505 156.141C75.3616 156.323 75.3406 156.505 75.2885 156.679C75.234 156.845 75.1515 157 75.0446 157.138C74.6311 157.684 74.0234 158.006 73.6843 158.453C73.5336 158.617 73.426 158.817 73.3712 159.033C73.3164 159.25 73.316 159.476 73.3701 159.693C73.4007 159.81 73.4589 159.917 73.5396 160.007C73.5934 160.036 73.6306 160.061 73.6347 160.057Z" fill="#263238"/>
<path d="M83.822 137.677C83.7405 137.718 83.6642 137.767 83.5946 137.826C83.3901 137.992 83.2225 138.199 83.1026 138.434C82.9188 138.804 82.7959 139.202 82.7388 139.612C82.6561 140.088 82.6519 140.637 82.5734 141.233C82.5289 141.879 82.2749 142.493 81.8499 142.982C81.5808 143.218 81.2694 143.402 80.932 143.523C80.5567 143.651 80.2048 143.84 79.8901 144.081C79.5676 144.367 79.3615 144.762 79.3113 145.189C79.2576 145.622 79.2871 146.062 79.3981 146.483C79.5138 146.914 79.6603 147.335 79.8364 147.745C80.0137 148.157 80.1522 148.584 80.2498 149.022C80.3547 149.453 80.3361 149.904 80.1961 150.324C80.0327 150.721 79.7691 151.069 79.4312 151.333C79.1087 151.61 78.7531 151.85 78.4307 152.123C78.0957 152.378 77.8253 152.708 77.641 153.086C77.4815 153.457 77.4244 153.864 77.4756 154.265C77.5208 154.631 77.587 154.994 77.6741 155.352C77.7537 155.68 77.8049 156.015 77.827 156.352C77.8515 156.981 77.7417 157.608 77.505 158.191C77.2683 158.774 76.9102 159.3 76.4544 159.734C76.1966 159.969 75.9201 160.182 75.6275 160.371C75.711 160.337 75.7912 160.296 75.8673 160.247C76.0902 160.112 76.2993 159.956 76.4916 159.78C76.9657 159.345 77.3412 158.814 77.5929 158.222C77.8447 157.63 77.9668 156.991 77.9511 156.348C77.929 156.003 77.8792 155.66 77.8022 155.323C77.7204 154.97 77.6583 154.612 77.6162 154.252C77.5664 153.877 77.6208 153.495 77.7733 153.148C77.952 152.793 78.2093 152.483 78.5258 152.243C78.8441 151.978 79.1997 151.738 79.5346 151.457C79.9003 151.177 80.1855 150.804 80.3614 150.378C80.5133 149.932 80.5349 149.451 80.4235 148.993C80.2457 148.067 79.7661 147.277 79.5718 146.446C79.4633 146.042 79.4324 145.621 79.4808 145.206C79.5265 144.816 79.7133 144.455 80.0059 144.193C80.5888 143.693 81.4323 143.614 81.9615 143.073C82.2088 142.82 82.3929 142.513 82.499 142.175C82.6018 141.872 82.6712 141.559 82.7057 141.241C82.7801 140.637 82.7718 140.092 82.8463 139.62C82.8948 139.218 83.0064 138.826 83.177 138.459C83.3295 138.152 83.5502 137.885 83.822 137.677Z" fill="#263238"/>
<path d="M69.6161 132.34C69.8801 132.616 70.0817 132.946 70.2073 133.307C70.3467 133.733 70.4219 134.178 70.4306 134.626C70.4512 135.151 70.3934 135.746 70.3851 136.416C70.3385 137.154 70.4944 137.89 70.8358 138.545C71.2285 139.244 71.9024 139.786 72.349 140.522C72.5693 140.903 72.7099 141.325 72.7624 141.762C72.8149 142.223 72.8219 142.689 72.7831 143.151C72.7293 144.094 72.5722 145.107 72.841 146.12C73.1097 147.133 73.796 147.906 74.1392 148.782C74.3183 149.202 74.3784 149.662 74.3128 150.114C74.2084 150.547 74.0457 150.964 73.8291 151.354C73.6167 151.739 73.4765 152.159 73.4156 152.594C73.3845 153.003 73.4151 153.414 73.5066 153.814C73.5896 154.18 73.6531 154.55 73.6968 154.922C73.7325 155.261 73.7087 155.604 73.6265 155.935C73.4584 156.505 73.2398 157.058 72.9733 157.589C72.7734 157.996 72.6208 158.424 72.5185 158.866C72.4677 159.151 72.4677 159.442 72.5185 159.726L72.5764 159.941C72.5764 159.991 72.5846 160.016 72.6012 160.016C72.6033 159.989 72.6033 159.963 72.6012 159.937L72.5598 159.722C72.5324 159.446 72.5492 159.166 72.6094 158.895C72.7237 158.466 72.8845 158.05 73.089 157.655C73.3646 157.125 73.5916 156.572 73.7671 156.001C73.8571 155.657 73.8865 155.301 73.8539 154.947C73.825 154.579 73.7381 154.211 73.672 153.826C73.5848 153.44 73.5556 153.043 73.5852 152.648C73.6511 152.232 73.7912 151.832 73.9986 151.466C74.2227 151.067 74.3911 150.64 74.4989 150.196C74.5745 149.715 74.5128 149.222 74.3211 148.774C73.9614 147.869 73.2999 147.091 73.0353 146.128C72.7707 145.165 72.9236 144.168 72.9733 143.213C73.0188 142.742 73.0188 142.267 72.9733 141.795C72.9188 141.338 72.7696 140.897 72.535 140.501C72.0637 139.732 71.3939 139.199 71.0094 138.533C70.6768 137.897 70.5212 137.183 70.5587 136.466C70.5587 135.804 70.6125 135.205 70.5587 134.671C70.5438 134.216 70.4587 133.766 70.3065 133.336C70.2059 133.066 70.059 132.816 69.8724 132.596C69.7992 132.499 69.713 132.413 69.6161 132.34Z" fill="#263238"/>
<path d="M59.6974 146.707C59.6874 146.77 59.6874 146.834 59.6974 146.897C59.7286 147.081 59.807 147.253 59.9248 147.397C60.1095 147.627 60.3424 147.813 60.607 147.943C60.9554 148.107 61.3237 148.225 61.7027 148.294C62.1524 148.369 62.5868 148.517 62.9885 148.733C63.2018 148.874 63.3848 149.057 63.5267 149.27C63.6687 149.483 63.7668 149.722 63.8154 149.973C63.9683 150.502 63.9849 151.093 64.1503 151.697C64.2272 152.007 64.3573 152.3 64.5348 152.565C64.7215 152.849 64.9981 153.062 65.3203 153.169C65.9818 153.372 66.6309 153.169 67.2015 153.314C67.4738 153.385 67.7234 153.524 67.9267 153.719C68.13 153.914 68.2802 154.157 68.3633 154.426C68.5308 154.923 68.6417 155.438 68.694 155.96C68.7462 156.427 68.8865 156.88 69.1075 157.295C69.4582 157.882 70.0087 158.322 70.6579 158.535C70.8323 158.593 71.0125 158.632 71.1954 158.651C71.2597 158.662 71.3254 158.662 71.3897 158.651C71.149 158.616 70.9123 158.558 70.6827 158.478C70.0613 158.249 69.5393 157.81 69.2067 157.237C68.9979 156.832 68.8661 156.392 68.818 155.939C68.768 155.406 68.6585 154.881 68.4914 154.372C68.3893 154.092 68.2334 153.835 68.0325 153.615C67.8123 153.379 67.5228 153.218 67.2056 153.157C66.5813 153.024 65.9363 153.202 65.341 153.012C65.0532 152.916 64.8057 152.727 64.6381 152.474C64.4716 152.221 64.3486 151.941 64.2743 151.647C64.113 151.073 64.0924 150.477 63.9353 149.928C63.878 149.659 63.7677 149.404 63.6109 149.178C63.454 148.952 63.2536 148.76 63.0215 148.613C62.6057 148.401 62.1569 148.261 61.6944 148.199C61.3209 148.139 60.9567 148.031 60.6112 147.877C60.3543 147.759 60.1248 147.588 59.9372 147.377C59.7963 147.18 59.7132 146.948 59.6974 146.707Z" fill="#263238"/>
<path d="M72.3034 152.09C72.2343 152.181 72.1747 152.28 72.1256 152.383C71.9795 152.661 71.8497 152.947 71.737 153.239C71.3643 154.213 71.1535 155.241 71.1127 156.282C71.0885 156.853 71.1162 157.424 71.1954 157.99C71.2423 158.458 71.371 158.914 71.5757 159.337C71.7147 159.627 71.9289 159.874 72.1959 160.053C72.2672 160.102 72.3451 160.141 72.4274 160.169C72.4812 160.189 72.5101 160.193 72.5142 160.189C72.5184 160.185 72.4026 160.131 72.2331 160.003C71.9936 159.812 71.8048 159.565 71.6832 159.284C71.4977 158.867 71.3831 158.423 71.3442 157.969C71.154 156.392 71.3265 154.793 71.8486 153.293C72.1008 152.536 72.353 152.102 72.3034 152.09Z" fill="#263238"/>
<path d="M163.795 143.263C163.861 143.172 163.908 143.069 163.933 142.959C163.957 142.85 163.958 142.736 163.935 142.626C163.782 142.213 163.154 142.333 162.819 142.626C161.872 143.408 161.442 144.867 160.26 145.177C159.978 145.212 159.7 145.278 159.433 145.375C158.916 145.636 158.784 146.297 158.606 146.852C158.428 147.406 157.982 148.026 157.415 147.889C157.097 147.815 156.886 147.53 156.634 147.327C156.382 147.124 155.948 147.038 155.77 147.306C155.725 147.408 155.702 147.518 155.702 147.629C155.702 147.74 155.725 147.85 155.77 147.951C156.119 149.492 155.9 151.107 155.154 152.499C154.408 153.878 153.497 155.16 152.441 156.319C152.131 153.343 155.054 150.779 154.877 147.79C154.831 147.071 154.608 146.368 154.538 145.648C154.36 143.837 155.435 141.828 157.213 141.435C157.535 141.361 157.911 141.324 158.106 141.055C158.403 140.642 157.982 140.03 157.481 139.947C156.973 139.92 156.47 140.066 156.055 140.36C156.174 139.887 156.432 139.46 156.798 139.136C157.163 138.813 157.617 138.607 158.102 138.545C158.587 138.565 159.073 138.523 159.549 138.421C160.003 138.252 160.342 137.628 160.003 137.28C159.466 136.726 158.408 137.756 157.812 137.28C157.419 136.949 157.667 136.317 157.916 135.866C158.164 135.416 158.329 134.729 157.874 134.489C157.419 134.25 156.927 134.824 156.7 135.316C155.468 137.973 154.237 140.635 153.008 143.3C152.652 144.073 152.289 144.9 152.392 145.743C152.517 146.316 152.711 146.872 152.971 147.397C153.1 147.662 153.176 147.951 153.193 148.245C153.21 148.54 153.168 148.835 153.07 149.113C152.826 149.651 152.065 149.94 151.619 149.576C151.398 149.351 151.253 149.061 151.205 148.749C150.916 147.509 150.622 146.198 150.949 144.962C151.276 143.726 152.136 142.734 152.16 141.502C152.16 140.559 151.693 139.546 152.16 138.723C152.423 138.345 152.762 138.027 153.157 137.789C153.553 137.545 153.84 137.159 153.959 136.71C154.033 136.259 153.64 135.726 153.194 135.833C152.57 135.982 152.508 137.074 151.871 137.119C151.457 137.14 151.197 136.652 151.28 136.259C151.409 135.877 151.649 135.541 151.97 135.296L153.562 133.82C153.938 133.472 154.352 132.993 154.19 132.513C154.084 132.291 153.894 132.119 153.662 132.036C153.43 131.952 153.174 131.963 152.95 132.067C152.508 132.297 152.137 132.643 151.875 133.067C152.001 132.715 152.054 132.341 152.032 131.967C152.018 131.781 151.949 131.604 151.835 131.457C151.72 131.309 151.564 131.2 151.387 131.141C150.85 131.012 150.37 131.554 150.271 132.1C150.172 132.646 150.296 133.2 150.238 133.754C150.18 134.308 149.824 134.895 149.266 134.899C149.024 134.874 148.799 134.76 148.634 134.58C148.47 134.401 148.377 134.167 148.373 133.923C148.38 133.433 148.534 132.956 148.816 132.555C149.093 132.154 149.305 131.711 149.444 131.244C149.51 131.008 149.503 130.758 149.424 130.526C149.345 130.294 149.198 130.092 149.002 129.946C148.588 129.694 147.91 129.979 147.931 130.467C147.832 129.863 147.542 129.094 146.93 129.144C146.318 129.193 146.165 129.929 146.161 130.5C146.151 132.286 146.569 134.048 147.381 135.639C147.877 136.606 148.514 137.499 148.977 138.483C149.499 139.448 149.681 140.561 149.494 141.642C149.291 142.273 149.049 142.89 148.77 143.49C148.469 144.32 148.363 145.208 148.458 146.086C148.553 146.964 148.848 147.809 149.32 148.555C148.907 148.592 148.605 148.261 148.295 148.017C147.985 147.773 147.468 147.604 147.232 147.914C147.153 148.036 147.119 148.182 147.136 148.326C147.154 148.47 147.221 148.604 147.327 148.704C147.542 148.898 147.79 149.052 148.059 149.159C148.683 149.477 149.231 149.926 149.665 150.476C150.1 151.025 150.411 151.662 150.577 152.342C149.845 152.433 149.25 151.23 148.621 151.61C148.208 151.858 148.394 152.532 148.778 152.818C149.163 153.103 149.667 153.206 150.019 153.524C150.279 153.774 150.432 154.116 150.444 154.477C150.455 154.838 150.325 155.189 150.081 155.455C149.564 155.968 148.758 155.753 148.133 155.377C147.535 154.996 147.017 154.501 146.61 153.92C146.202 153.339 145.914 152.683 145.76 151.991C145.376 150.854 145.831 149.609 145.967 148.683C146.132 147.567 146.91 146.595 146.996 145.471C147.083 144.346 146.5 143.052 147.025 142.006C147.339 141.52 147.732 141.09 148.187 140.733C148.414 140.553 148.597 140.323 148.722 140.061C148.847 139.8 148.91 139.513 148.907 139.223C148.828 138.649 148.08 138.206 147.641 138.603C147.435 138.802 147.348 139.153 147.071 139.211C146.794 139.269 146.55 138.955 146.546 138.665C146.581 138.382 146.652 138.104 146.757 137.838C146.807 137.702 146.813 137.553 146.775 137.412C146.738 137.272 146.658 137.146 146.546 137.053C146.402 136.992 146.24 136.989 146.094 137.047C145.949 137.104 145.832 137.216 145.768 137.359C145.655 137.654 145.624 137.974 145.678 138.285C145.748 139.149 145.822 140.017 145.893 140.885C145.893 141.113 145.893 141.398 145.694 141.502C145.496 141.605 145.281 141.452 145.115 141.299C144.752 140.922 144.467 140.476 144.277 139.988C144.086 139.499 143.995 138.978 144.007 138.454C144.042 137.403 144.368 136.383 144.95 135.507C145.242 135.113 145.492 134.689 145.694 134.241C145.792 134.016 145.83 133.768 145.804 133.523C145.778 133.278 145.689 133.044 145.545 132.844C145.468 132.752 145.371 132.679 145.262 132.629C145.153 132.578 145.035 132.552 144.915 132.552C144.795 132.552 144.676 132.578 144.567 132.629C144.458 132.679 144.362 132.752 144.284 132.844C144.069 133.208 144.251 133.671 144.284 134.084C144.367 135.031 143.689 135.846 143.284 136.701C142.908 137.534 142.776 138.456 142.904 139.361C143.031 140.265 143.412 141.115 144.003 141.812C144.388 142.258 144.855 142.638 145.219 143.085C145.418 143.302 145.568 143.56 145.659 143.84C145.75 144.12 145.781 144.417 145.748 144.71C145.724 144.854 145.673 144.991 145.595 145.114C145.518 145.238 145.417 145.345 145.298 145.429C145.179 145.512 145.045 145.572 144.903 145.603C144.76 145.635 144.613 145.637 144.47 145.611C144.251 145.513 144.06 145.361 143.916 145.17C143.771 144.978 143.678 144.753 143.643 144.516C143.575 144.042 143.436 143.582 143.23 143.151C142.982 142.738 142.403 142.477 142.023 142.738C141.903 142.845 141.811 142.979 141.756 143.13C141.7 143.281 141.683 143.443 141.704 143.602C141.775 145.094 143.238 146.082 143.896 147.434C144.142 147.951 144.27 148.516 144.27 149.088C144.27 149.66 144.142 150.226 143.896 150.742C143.693 150.344 143.372 150.018 142.978 149.808C142.564 149.646 141.977 149.874 141.957 150.32C141.97 150.561 142.077 150.786 142.254 150.949C142.717 151.463 143.316 151.836 143.982 152.024C143.846 153.194 144.536 154.314 145.388 155.129C146.24 155.943 147.265 156.563 148.1 157.394C148.935 158.225 149.539 159.606 149.341 160.768L154.641 160.731C154.686 160.174 154.898 159.644 155.248 159.209C155.598 158.774 156.071 158.455 156.605 158.292C157.167 158.134 157.779 158.159 158.317 157.932C158.854 157.704 159.309 157.064 159.036 156.547C158.939 156.394 158.801 156.271 158.638 156.192C158.476 156.112 158.294 156.079 158.114 156.096C157.755 156.132 157.405 156.236 157.084 156.402C157.161 156.344 157.224 156.27 157.27 156.186C157.317 156.102 157.345 156.009 157.354 155.913C157.362 155.818 157.351 155.721 157.32 155.63C157.29 155.539 157.241 155.455 157.176 155.384C157.112 155.313 157.033 155.256 156.945 155.217C156.858 155.178 156.763 155.157 156.667 155.156C156.571 155.156 156.476 155.175 156.387 155.213C156.299 155.251 156.22 155.307 156.154 155.377C155.91 155.645 155.91 156.055 155.761 156.39C155.613 156.725 155.096 156.952 154.914 156.638C154.88 156.553 154.865 156.462 154.869 156.37C154.874 156.279 154.897 156.19 154.939 156.109C155.249 155.211 155.592 154.265 156.315 153.649C157.808 152.375 160.363 152.937 161.69 151.503C161.825 151.381 161.928 151.227 161.989 151.055C162.049 150.883 162.066 150.699 162.038 150.519C161.88 149.923 161.037 149.82 160.479 150.076C159.921 150.333 159.466 150.812 158.879 150.99C158.292 151.168 157.461 150.8 157.548 150.192C157.599 150.005 157.706 149.838 157.853 149.711C158 149.584 158.182 149.504 158.374 149.481C158.755 149.394 159.148 149.419 159.52 149.316C159.709 149.28 159.883 149.184 160.015 149.043C160.146 148.902 160.229 148.722 160.251 148.53C160.243 148.457 160.219 148.388 160.182 148.325C160.144 148.262 160.094 148.207 160.035 148.165C159.975 148.123 159.907 148.093 159.836 148.078C159.764 148.064 159.69 148.064 159.619 148.079C161.314 146.764 162.733 145.127 163.795 143.263Z" fill="#455A64"/>
<path d="M186.464 112.271C186.464 112.271 186.464 112.846 186.464 113.958C186.464 115.07 186.381 116.732 186.232 118.899C185.727 125.214 184.478 131.448 182.511 137.47C181.081 141.816 179.29 146.034 177.157 150.081C175.954 152.272 174.676 154.546 173.159 156.795L172.597 157.651C172.402 157.928 172.204 158.209 172.001 158.478C171.588 159.04 171.208 159.615 170.79 160.181C169.934 161.301 169.082 162.451 168.144 163.563C167.205 164.675 166.23 165.796 165.25 166.924L163.679 168.578C163.158 169.136 162.587 169.661 162.025 170.211C154.717 177.317 146.129 182.972 136.714 186.877L136.685 186.72H142.523C143.019 186.72 143.503 186.72 144.011 186.72C144.523 186.772 145.014 186.945 145.446 187.224C145.876 187.511 146.23 187.897 146.479 188.349C146.728 188.808 146.858 189.322 146.858 189.844C146.858 190.366 146.728 190.879 146.479 191.338C146.228 191.801 145.866 192.195 145.425 192.483C144.982 192.774 144.473 192.948 143.945 192.988C143.42 193.013 142.911 192.988 142.395 192.988H136.131H109.699H68.3549C67.7133 193.044 67.0684 192.928 66.4861 192.653C65.8988 192.359 65.4176 191.889 65.1094 191.309C64.8012 190.729 64.6813 190.067 64.7663 189.416C64.8513 188.764 65.137 188.156 65.5837 187.674C66.0305 187.193 66.6161 186.862 67.2592 186.728C67.5798 186.672 67.9055 186.649 68.2308 186.662H74.9369L74.8956 186.861C63.9557 182.313 54.146 175.422 46.1576 166.673C38.1692 157.924 32.1964 147.529 28.66 136.222C27.1832 131.409 26.148 126.471 25.5674 121.47C24.4827 111.667 25.1208 101.749 27.4527 92.1652C28.6063 87.5114 30.1669 82.968 32.1164 78.5876C35.9201 70.0835 41.2174 62.3301 47.757 55.6952C53.9885 49.3873 61.2367 44.1727 69.1983 40.2695H69.2231L144.247 41.2742C149.843 44.3292 155.062 48.027 159.801 52.2925C161.981 54.2553 164.051 56.3367 166.002 58.5273C166.962 59.5733 167.838 60.6606 168.719 61.7191C169.599 62.7775 170.406 63.8648 171.17 64.9522C171.935 66.0396 172.675 67.1187 173.403 68.1771C174.131 69.2355 174.776 70.3187 175.383 71.3937C176.653 73.5146 177.728 75.6398 178.724 77.6863C180.496 81.446 181.979 85.3354 183.16 89.3207C184.788 94.8449 185.818 100.528 186.232 106.272C186.356 108.24 186.422 109.741 186.422 110.754C186.422 111.767 186.422 112.279 186.422 112.279C186.422 112.279 186.422 111.762 186.385 110.754C186.348 109.745 186.307 108.24 186.178 106.276C185.743 100.542 184.699 94.871 183.065 89.3579C181.896 85.3756 180.427 81.4877 178.67 77.7277C177.674 75.6852 176.603 73.5643 175.326 71.4474C174.718 70.3725 174.019 69.3265 173.341 68.2391C172.663 67.1517 171.91 66.085 171.113 65.0225C170.315 63.9599 169.504 62.8808 168.661 61.7976C167.817 60.7144 166.9 59.656 165.944 58.61C163.993 56.4304 161.922 54.36 159.743 52.4083C155.01 48.1532 149.797 44.4652 144.21 41.4189H144.247L69.2396 40.4597H69.2851C61.3442 44.3545 54.1154 49.558 47.9017 55.8523C41.3826 62.47 36.1022 70.2023 32.3107 78.6827C30.3682 83.0433 28.8118 87.5658 27.6594 92.1982C25.3306 101.757 24.6953 111.65 25.7824 121.429C26.3627 126.417 27.395 131.342 28.8667 136.143C32.3886 147.433 38.3441 157.813 46.3135 166.551C54.2828 175.289 64.0719 182.172 74.9907 186.716L75.4702 186.914H68.2432C67.9318 186.902 67.6199 186.922 67.313 186.976C66.7126 187.103 66.1663 187.412 65.7495 187.863C65.3328 188.313 65.0663 188.882 64.9869 189.49C64.9074 190.098 65.019 190.716 65.3061 191.259C65.5931 191.801 66.0416 192.24 66.5894 192.517C66.8591 192.654 67.1497 192.746 67.4494 192.789C67.7535 192.83 68.0607 192.844 68.3673 192.831H142.407C142.92 192.831 143.445 192.831 143.945 192.831C144.445 192.794 144.928 192.631 145.347 192.355C145.761 192.083 146.102 191.712 146.337 191.275C146.573 190.839 146.695 190.35 146.694 189.854C146.686 189.362 146.562 188.879 146.331 188.444C146.094 188.017 145.758 187.652 145.351 187.382C144.946 187.114 144.482 186.951 143.999 186.906C143.519 186.877 143.011 186.906 142.523 186.906H136.276L136.652 186.749C146.053 182.853 154.629 177.209 161.926 170.116C162.476 169.566 163.046 169.045 163.58 168.487L165.146 166.833C166.143 165.709 167.148 164.621 168.041 163.48C168.934 162.339 169.835 161.223 170.691 160.107C171.104 159.544 171.518 158.97 171.902 158.407L172.498 157.58L173.056 156.729C174.577 154.488 175.855 152.214 177.062 150.027C179.191 145.994 180.98 141.792 182.412 137.462C184.39 131.45 185.654 125.226 186.178 118.919C186.34 116.753 186.427 115.095 186.435 113.979C186.443 112.862 186.464 112.271 186.464 112.271Z" fill="#263238"/>
<path d="M144.263 41.3444C144.203 41.3665 144.14 41.3845 144.077 41.3982L143.515 41.5305L141.361 42.0266C139.492 42.4731 136.763 43.0189 133.386 43.6432L130.723 44.0814L129.309 44.3171L127.833 44.5155L124.728 44.929C123.657 45.0489 122.557 45.1481 121.42 45.2639C116.517 45.7194 111.592 45.8906 106.669 45.7765C96.1672 45.483 86.7655 43.9119 80.0222 42.6509C76.6485 41.9977 73.9239 41.4395 72.051 40.9971L69.8721 40.5423L69.3098 40.41L69.1196 40.3604C69.1849 40.3663 69.2498 40.376 69.3139 40.3894L69.8721 40.5175L72.0551 40.931C73.9363 41.3444 76.6609 41.8612 80.0387 42.4979C86.7861 43.7383 96.1631 45.2639 106.66 45.5574C111.582 45.6731 116.506 45.5074 121.408 45.0613L124.716 44.7388L127.816 44.3253L129.292 44.131L130.706 43.9036L133.365 43.4902C136.747 42.8866 139.476 42.3615 141.348 41.9398L143.515 41.485L144.077 41.3734L144.263 41.3444Z" fill="#263238"/>
<path d="M65.8659 53.6031C65.5537 53.9612 65.206 54.2867 64.8281 54.5747L63.5216 55.6786L62.6947 56.3773C62.4012 56.6295 62.1076 56.9231 61.7852 57.2042L59.6518 59.197C58.891 59.9412 58.1138 60.8012 57.2455 61.6777C56.3773 62.5542 55.5421 63.6043 54.6201 64.6669C53.6982 65.7294 52.8093 66.9326 51.8625 68.177C51.6268 68.4871 51.3911 68.8055 51.1472 69.1238C50.9033 69.4422 50.6966 69.7895 50.465 70.1285C50.0144 70.8107 49.5472 71.5053 49.0758 72.1957C48.6045 72.8862 48.1704 73.6676 47.7156 74.4242C47.2608 75.1808 46.7936 75.9622 46.3512 76.7643C45.9089 77.5664 45.5244 78.4181 45.0696 79.245C44.8587 79.6584 44.6272 80.0719 44.4205 80.5266L43.8251 81.9158C43.4117 82.813 42.9982 83.7102 42.6302 84.6446C42.2623 85.5789 41.915 86.5381 41.5511 87.5056C41.1873 88.4731 40.8855 89.4736 40.5589 90.4783C40.2323 91.4829 39.8974 92.5 39.6617 93.5543C39.426 94.6086 39.1325 95.6629 38.8638 96.7461C38.595 97.8293 38.4503 98.925 38.2436 100.029C37.4749 104.6 37.1358 109.233 37.2306 113.867C37.4006 118.5 38.0055 123.107 39.0374 127.626C39.313 128.729 39.5804 129.809 39.8395 130.868L40.8152 133.993C41.1088 135.035 41.5263 136.023 41.8902 137.016C42.254 138.008 42.6013 138.992 43.0478 139.91C43.4943 140.828 43.8747 141.787 44.2882 142.705C44.7016 143.623 45.1936 144.487 45.636 145.359L46.3016 146.657C46.5332 147.071 46.7854 147.484 47.0252 147.898L48.4433 150.312C48.9311 151.089 49.4521 151.829 49.9399 152.574C50.4278 153.318 50.8909 154.05 51.4242 154.719L52.9333 156.72C53.1855 157.043 53.417 157.378 53.6734 157.684C53.9297 157.99 54.186 158.292 54.4424 158.589C55.4594 159.776 56.3897 160.942 57.3944 161.934C58.399 162.926 59.2549 163.947 60.1893 164.77C61.1236 165.593 61.9299 166.424 62.7319 167.127L64.9728 168.992C65.3118 169.269 65.6219 169.546 65.932 169.781L66.8044 170.43L68.1729 171.46C68.5663 171.724 68.932 172.027 69.2644 172.365C68.8357 172.164 68.4285 171.92 68.0488 171.638L66.6183 170.691L65.7087 170.079C65.3904 169.851 65.0679 169.591 64.7165 169.322L62.4012 167.516C61.5743 166.833 60.7185 166.04 59.7758 165.208C58.8332 164.377 57.907 163.41 56.8817 162.405C55.8563 161.401 54.8889 160.264 53.8429 159.098L53.0532 158.192C52.7886 157.886 52.5488 157.556 52.2925 157.229L50.7379 155.228C50.1922 154.558 49.725 153.81 49.2081 153.074C48.6913 152.338 48.1745 151.59 47.6743 150.804L46.2107 148.377C45.9667 147.964 45.7063 147.55 45.4706 147.137L44.7843 145.83C44.3295 144.95 43.8416 144.069 43.3951 143.155C42.9486 142.242 42.5682 141.282 42.1176 140.331C41.6669 139.381 41.3444 138.355 40.931 137.359C40.5175 136.362 40.1289 135.354 39.8271 134.299L38.8224 131.132C38.5468 130.049 38.2711 128.955 37.9955 127.85C36.9337 123.262 36.3121 118.584 36.1392 113.879C36.0425 109.171 36.3955 104.464 37.1934 99.8221C37.4084 98.7058 37.622 97.6033 37.8343 96.5146C38.1072 95.4313 38.38 94.3564 38.6612 93.298C38.9423 92.2395 39.2731 91.2059 39.5873 90.1806C39.9015 89.1552 40.2075 88.1423 40.6085 87.1748L41.7248 84.2807C42.1134 83.3381 42.5517 82.4326 42.9651 81.5272L43.577 80.1835C43.7879 79.7452 44.0235 79.3194 44.2468 78.8935L45.5657 76.3839C46.0205 75.557 46.5125 74.8004 46.9714 74.0314C47.4303 73.2624 47.8645 72.4934 48.373 71.7947C48.8815 71.096 49.3405 70.3848 49.8118 69.7274C50.0474 69.3884 50.2666 69.0411 50.5146 68.7186L51.2506 67.776C52.2263 66.5357 53.1235 65.3201 54.0951 64.2782C55.0667 63.2364 55.8936 62.1779 56.8073 61.3138C57.721 60.4497 58.5065 59.5898 59.2879 58.8621C60.0694 58.1344 60.8301 57.506 61.4957 56.9272C61.8306 56.6378 62.1366 56.3566 62.4425 56.1003L63.3149 55.4388L64.6917 54.4093C65.0546 54.1012 65.448 53.8311 65.8659 53.6031Z" fill="white"/>
<path d="M144.569 45.3426C144.59 45.4129 143.602 45.7106 141.795 46.1695L140.294 46.5581C139.74 46.6904 139.137 46.8103 138.492 46.9716C137.193 47.2403 135.722 47.5835 134.076 47.8398L131.475 48.2739C130.578 48.4228 129.636 48.5261 128.664 48.6626C126.721 48.9478 124.633 49.1298 122.438 49.3406C117.664 49.718 112.874 49.856 108.087 49.7541C102.989 49.6094 98.1642 49.1835 93.7693 48.6171C91.5863 48.2946 89.5067 48.0093 87.5676 47.629C86.6043 47.4429 85.6699 47.2899 84.781 47.0956L82.2218 46.5292C80.5887 46.186 79.1375 45.7726 77.8558 45.4418C77.2191 45.2682 76.6155 45.1152 76.0738 44.9581L74.5937 44.495C72.8159 43.9328 71.8443 43.5896 71.865 43.5152C71.8857 43.4408 72.8986 43.6516 74.7053 44.0899L76.2062 44.4578L78.0005 44.8713C79.2905 45.1483 80.7499 45.508 82.383 45.8015L84.9381 46.2977C85.827 46.4672 86.7614 46.5995 87.7206 46.7649C89.6431 47.108 91.7103 47.3561 93.8809 47.6496C98.2386 48.154 103.043 48.5509 108.099 48.6915C113.156 48.8321 117.972 48.6502 122.347 48.3608C124.53 48.1788 126.609 48.03 128.548 47.7861C129.516 47.6703 130.454 47.5835 131.351 47.4594L133.927 47.0915C135.581 46.8806 137.049 46.5912 138.351 46.3804L140.166 46.0744L141.683 45.7809C143.532 45.4253 144.553 45.2682 144.569 45.3426Z" fill="white"/>
<path d="M80.845 177.703C80.7086 177.967 79.0755 177.389 77.1943 176.413C75.3131 175.437 73.8867 174.428 74.0356 174.164C74.1844 173.899 75.8092 174.478 77.6904 175.458C79.5716 176.438 80.9856 177.438 80.845 177.703Z" fill="white"/>
<path d="M137.206 186.898C137.206 186.956 123.264 187.005 106.073 187.005C88.8823 187.005 74.9409 186.956 74.9409 186.898C74.9409 186.84 88.8782 186.79 106.073 186.79C123.269 186.79 137.206 186.84 137.206 186.898Z" fill="#263238"/>
<path d="M151.044 78.0419C150.006 79.0011 156.08 88.3532 154.558 89.1512C153.037 89.9491 143.61 94.4267 144.731 94.5839C145.851 94.741 155.997 92.1032 156.307 92.9053C156.617 93.7073 157.423 105.214 158.622 104.812C159.821 104.411 159.42 93.1451 161.103 93.5461C162.786 93.9471 171.973 96.8206 172.452 95.9441C172.932 95.0676 162.897 90.8959 162.633 89.391C162.393 88.0307 167.425 79.0011 166.627 79.2409C165.829 79.4807 159.751 86.6829 158.556 86.4348C157.109 86.1124 152.003 77.645 151.044 78.0419Z" fill="#00B2D0"/>
<path d="M97.4945 165.184C97.103 163.594 97.1501 161.927 97.6309 160.362C98.1116 158.797 99.008 157.392 100.224 156.296C101.441 155.2 102.932 154.454 104.539 154.139C106.145 153.823 107.807 153.95 109.348 154.504C110.853 152.966 113.301 152.801 115.397 153.285C116.398 153.536 117.383 153.851 118.345 154.227C119.453 154.641 120.627 155.083 121.326 156.034C121.509 155.865 121.729 155.741 121.969 155.672C122.209 155.603 122.461 155.591 122.707 155.637C122.952 155.683 123.183 155.785 123.382 155.936C123.581 156.087 123.741 156.282 123.852 156.505C123.916 156.41 124 156.329 124.098 156.268C124.195 156.207 124.305 156.167 124.419 156.151C124.533 156.134 124.649 156.142 124.76 156.173C124.871 156.204 124.974 156.258 125.063 156.332C125.231 156.498 125.351 156.707 125.41 156.937C125.469 157.166 125.465 157.407 125.398 157.634C125.257 158.085 125.034 158.505 124.741 158.874C123.843 160.173 122.764 161.583 121.201 161.798C120.769 162.838 119.994 163.7 119.006 164.242C118.018 164.784 116.875 164.973 115.765 164.778C116.1 165.762 115.19 166.705 114.326 167.284C111.663 169.082 108.438 170.178 105.23 169.889C102.022 169.599 98.863 168.09 97.4945 165.184Z" fill="#00B2D0"/>
<path d="M115.765 164.778C115.594 164.758 115.425 164.716 115.265 164.654C115.07 164.601 114.878 164.538 114.69 164.464L113.95 164.142C112.538 163.438 111.388 162.303 110.667 160.9C109.995 159.494 109.585 157.976 109.456 156.423C109.394 155.831 109.365 155.352 109.352 155.017C109.337 154.846 109.337 154.675 109.352 154.504C109.401 154.67 109.429 154.84 109.435 155.013C109.468 155.344 109.522 155.819 109.604 156.402C109.77 157.927 110.19 159.414 110.845 160.801C111.548 162.166 112.65 163.285 114.004 164.009L114.719 164.353C114.926 164.456 115.132 164.51 115.277 164.576C115.446 164.626 115.61 164.694 115.765 164.778Z" fill="#263238"/>
<path d="M121.202 161.806C121.069 161.787 120.94 161.751 120.817 161.698C120.477 161.573 120.151 161.412 119.845 161.219C118.813 160.588 117.99 159.666 117.48 158.569C117.196 157.968 117.016 157.323 116.947 156.663C116.865 156.118 116.936 155.562 117.15 155.054C117.308 154.712 117.584 154.437 117.927 154.281C118.048 154.218 118.184 154.193 118.32 154.207C118.32 154.207 118.179 154.24 117.96 154.356C117.659 154.529 117.422 154.796 117.286 155.116C117.106 155.604 117.057 156.13 117.146 156.642C117.222 157.278 117.4 157.898 117.675 158.478C118.174 159.539 118.953 160.444 119.928 161.095C120.672 161.599 121.218 161.76 121.202 161.806Z" fill="#263238"/>
<path d="M124.257 159.565C124.01 159.717 123.716 159.772 123.43 159.722C122.735 159.615 122.102 159.263 121.644 158.73C121.413 158.466 121.24 158.156 121.137 157.82C121.035 157.484 121.004 157.131 121.049 156.782C121.061 156.492 121.164 156.214 121.342 155.984C121.379 155.984 121.226 156.29 121.197 156.811C121.158 157.465 121.377 158.107 121.805 158.602C122.235 159.101 122.815 159.446 123.459 159.586C123.725 159.607 123.992 159.6 124.257 159.565Z" fill="#263238"/>
<path d="M125.274 158.006C125.274 158.006 125.179 158.229 124.836 158.358C124.63 158.427 124.409 158.436 124.199 158.382C124.068 158.349 123.945 158.289 123.838 158.205C123.732 158.122 123.643 158.018 123.579 157.899C123.485 157.682 123.443 157.446 123.457 157.211C123.472 156.975 123.542 156.746 123.662 156.543C123.856 156.22 124.137 156.204 124.129 156.232C124.12 156.261 123.926 156.323 123.794 156.617C123.71 156.802 123.664 157.003 123.661 157.206C123.657 157.409 123.695 157.611 123.773 157.799C123.877 157.988 124.051 158.129 124.257 158.192C124.43 158.246 124.614 158.253 124.79 158.213C125.096 158.138 125.245 157.977 125.274 158.006Z" fill="#263238"/>
<path d="M107.992 155.207C107.992 155.249 107.335 155.129 106.284 155.207C104.911 155.285 103.575 155.681 102.381 156.365C101.188 157.049 100.17 158.002 99.4089 159.147C98.8218 160.024 98.582 160.648 98.5572 160.632C98.5855 160.478 98.6341 160.33 98.7019 160.189C98.8639 159.799 99.0575 159.423 99.2807 159.065C100.025 157.87 101.053 156.879 102.274 156.179C103.495 155.479 104.87 155.093 106.276 155.054C106.699 155.043 107.122 155.065 107.541 155.12C107.695 155.129 107.846 155.158 107.992 155.207Z" fill="white"/>
<path d="M116.538 154.707C116.517 154.736 116.182 154.5 115.583 154.26C114.802 153.943 113.959 153.81 113.119 153.872C112.278 153.933 111.463 154.188 110.737 154.616C110.179 154.943 109.881 155.224 109.857 155.199C110.074 154.911 110.347 154.669 110.659 154.488C111.389 154.007 112.23 153.721 113.102 153.657C113.974 153.592 114.848 153.752 115.641 154.12C115.977 154.252 116.282 154.452 116.538 154.707Z" fill="white"/>
<path d="M113.168 162.426C112.959 162.385 112.762 162.296 112.594 162.165C112.167 161.882 111.802 161.517 111.518 161.091C111.234 160.665 111.037 160.187 110.94 159.685C110.884 159.478 110.877 159.262 110.919 159.052C111.079 159.731 111.343 160.381 111.701 160.979C112.114 161.532 112.609 162.02 113.168 162.426Z" fill="white"/>
<path d="M118.568 159.044C118.214 158.802 117.952 158.448 117.824 158.039C117.629 157.657 117.566 157.221 117.646 156.799C117.708 156.799 117.766 157.34 118.022 157.957C118.279 158.573 118.618 159.003 118.568 159.044Z" fill="white"/>
<path d="M122.587 158.61C122.554 158.655 122.219 158.432 122.012 157.998C121.805 157.564 121.83 157.171 121.888 157.171C121.946 157.171 122.016 157.522 122.206 157.911C122.396 158.3 122.628 158.564 122.587 158.61Z" fill="white"/>
<path d="M124.398 158.019C124.398 158.044 124.307 158.048 124.199 157.986C124.059 157.901 123.95 157.774 123.889 157.622C123.827 157.471 123.817 157.304 123.86 157.146C123.897 157.026 123.955 156.969 123.98 156.981C124.005 156.993 123.98 157.262 124.092 157.539C124.203 157.816 124.422 157.965 124.398 158.019Z" fill="white"/>
<path d="M120.838 156.348C120.449 155.946 119.989 155.619 119.482 155.385C118.948 155.212 118.388 155.138 117.828 155.166C117.828 155.141 118.001 155.054 118.32 155.013C118.74 154.97 119.164 155.028 119.557 155.183C119.949 155.337 120.299 155.584 120.577 155.902C120.788 156.146 120.858 156.336 120.838 156.348Z" fill="white"/>
<path d="M123.062 156.179C123.021 156.224 122.769 156.055 122.421 156.088C122.074 156.121 121.847 156.311 121.801 156.274C121.756 156.237 121.801 156.171 121.909 156.076C122.048 155.957 122.221 155.886 122.403 155.873C122.585 155.859 122.767 155.904 122.922 156.001C123.037 156.08 123.079 156.158 123.062 156.179Z" fill="white"/>
<path d="M124.782 80.5846C124.598 79.2728 124.096 78.0257 123.321 76.9515C122.546 75.8773 121.52 75.0084 120.333 74.4201C119.827 74.1205 119.226 74.023 118.651 74.1473C118.394 74.23 118.171 74.3871 117.915 74.4698C117.367 74.586 116.799 74.5647 116.261 74.4077C115.762 74.2838 115.236 74.3274 114.764 74.5318C114.535 74.6451 114.359 74.8431 114.274 75.0839C114.188 75.3246 114.199 75.5892 114.305 75.8217C114.488 76.0586 114.739 76.2334 115.025 76.322L124.947 80.6012" fill="#00B2D0"/>
<g opacity="0.3">
<path opacity="0.3" d="M124.294 79.9397C125.026 80.5433 121.706 76.0575 117.952 75.4662C116.864 75.2926 115.587 75.0735 114.851 75.8797C114.851 75.8921 121.292 77.459 124.294 79.9397Z" fill="black"/>
</g>
<path d="M111.887 75.4661C111.029 74.144 110.002 72.9403 108.831 71.8857C107.62 70.881 106.065 70.1906 104.498 70.3311C104.201 70.3352 103.909 70.4051 103.642 70.536C103.375 70.6668 103.141 70.8553 102.956 71.0878C102.846 71.3195 102.717 71.5421 102.572 71.7534C102.228 72.1338 101.617 72.1255 101.224 72.4521C100.633 72.9441 100.856 73.9736 101.459 74.4491C102.063 74.9245 102.882 74.9948 103.647 75.0486L111.936 75.6605" fill="#00B2D0"/>
<path d="M102.423 83.1024C101.697 83.1132 100.982 82.9244 100.356 82.5567C99.7195 82.1814 99.018 81.9303 98.2883 81.8166C97.5607 81.7587 96.742 82.0895 96.4898 82.7758C96.1715 83.6564 96.9033 84.5536 97.6351 85.1366C100.181 87.1209 103.404 88.0266 106.611 87.6586" fill="#00B2D0"/>
<path d="M128.445 85.1408C127.544 82.0854 124.426 78.5257 114.727 75.983C105.027 73.4403 97.7757 75.061 97.7757 75.061C97.7757 75.061 96.1219 75.5985 89.2918 76.384C82.4616 77.1696 80.4234 82.6312 83.4002 84.4007C84.5619 85.0912 88.7749 80.3159 88.7749 80.3159C86.6085 83.4498 88.7749 86.931 90.2964 88.0638C91.8179 89.1967 93.3228 88.2292 94.7244 86.5299C96.126 84.8307 94.7492 80.626 94.7492 80.626C94.7492 80.626 95.4976 79.737 98.6191 80.1877C101.741 80.6384 104.788 87.332 106.694 88.3987C108.6 89.4654 116.422 93.389 122.785 93.1947C129.148 93.0004 129.346 88.1961 128.445 85.1408Z" fill="white"/>
<path d="M112.808 75.5282C109.78 74.8779 106.69 74.5522 103.593 74.5566C103.593 74.5566 102.137 75.6026 101.98 76.5411C101.823 77.4796 101.662 78.4264 101.662 78.4264C100.256 78.6455 99.5493 80.4936 99.5493 80.4936C101.914 81.705 104.172 85.8684 105.846 87.6669C106.408 79.1293 112.143 75.8754 112.808 75.5282Z" fill="#00B2D0"/>
<path d="M123.885 79.6709H123.856C122.844 79.0494 121.791 78.4969 120.705 78.0171L120.321 77.8559L120.16 77.7856C119.3 77.43 118.353 77.0828 117.311 76.752L117.245 76.7313L117.038 76.6693C116.112 77.7277 116.236 78.9639 116.248 80.3903C116.261 81.8167 116.31 83.2844 115.591 84.5248C115.077 85.2825 114.412 85.9269 113.639 86.4183C112.683 87.1102 111.706 87.7662 110.708 88.3863C110.146 88.7378 109.509 89.2132 109.493 89.8582C111.896 90.9703 114.395 91.8628 116.959 92.5249C116.959 92.5249 116.823 87.1874 118.382 85.2566C118.382 85.2028 120.362 81.1345 123.885 79.6709Z" fill="#00B2D0"/>
<path d="M128.445 85.1408C128.151 84.1647 127.676 83.2529 127.043 82.4534C127.043 82.4534 122.677 83.2141 121.503 86.5423C120.783 88.6511 120.41 90.8629 120.399 93.0913C121.187 93.1788 121.98 93.2133 122.773 93.1947C129.131 93.0004 129.346 88.1961 128.445 85.1408Z" fill="#00B2D0"/>
<path d="M95.2288 80.3323C94.7015 78.8471 94.3058 77.3183 94.0464 75.7637C92.8432 75.9415 91.2845 76.1524 89.2752 76.3839C82.4409 77.1694 80.4068 82.6311 83.3836 84.4006C84.5454 85.0911 88.7584 80.3158 88.7584 80.3158C86.5919 83.4497 88.7584 86.9309 90.2799 88.0637C91.8013 89.1966 93.3063 88.2291 94.7079 86.5298C96.1095 84.8306 94.7327 80.6258 94.7327 80.6258C94.8756 80.4943 95.0447 80.3943 95.2288 80.3323Z" fill="#00B2D0"/>
<path d="M110.803 75.2098C110.453 75.0967 110.112 74.9585 109.782 74.7963C108.973 74.4414 108.145 74.1322 107.301 73.8702C106.45 73.6141 105.584 73.407 104.709 73.25C104.341 73.2043 103.976 73.1339 103.618 73.0392C103.989 73.0101 104.363 73.0296 104.73 73.0971C105.622 73.2112 106.503 73.4007 107.363 73.6635C108.217 73.924 109.047 74.2574 109.844 74.6599C110.185 74.8043 110.507 74.9889 110.803 75.2098Z" fill="#263238"/>
<path d="M127.064 87.5677C127.021 87.8209 126.904 88.0557 126.728 88.2424C126.552 88.4291 126.324 88.5593 126.074 88.6165C125.823 88.6737 125.561 88.6555 125.322 88.564C125.082 88.4725 124.874 88.3119 124.726 88.1025C124.577 87.8931 124.494 87.6443 124.486 87.3876C124.479 87.1309 124.548 86.8779 124.685 86.6604C124.821 86.443 125.019 86.2709 125.254 86.166C125.488 86.0611 125.748 86.0281 126.002 86.0711C126.17 86.0991 126.331 86.1601 126.475 86.2506C126.62 86.3411 126.745 86.4593 126.844 86.5984C126.943 86.7375 127.013 86.8948 127.051 87.0611C127.089 87.2275 127.093 87.3997 127.064 87.5677Z" fill="white"/>
<path d="M126.692 87.5056C126.664 87.6767 126.585 87.8354 126.466 87.9617C126.347 88.088 126.194 88.1762 126.025 88.2153C125.856 88.2543 125.679 88.2423 125.517 88.1809C125.355 88.1195 125.215 88.0113 125.114 87.8701C125.013 87.729 124.957 87.5611 124.951 87.3878C124.946 87.2145 124.992 87.0435 125.084 86.8965C125.176 86.7495 125.31 86.6331 125.468 86.5619C125.626 86.4908 125.802 86.4681 125.973 86.4968C126.202 86.5353 126.406 86.6632 126.541 86.8523C126.676 87.0415 126.73 87.2765 126.692 87.5056Z" fill="#263238"/>
<path d="M127.945 91.1068C127.138 90.8494 126.355 90.5229 125.605 90.131C124.825 89.8071 124.072 89.42 123.355 88.9734C124.162 89.226 124.945 89.5483 125.696 89.9367C126.476 90.2638 127.229 90.6552 127.945 91.1068Z" fill="#263238"/>
<path d="M123.087 89.7879C123.062 89.7879 122.967 89.7383 122.839 89.5894C122.76 89.4983 122.7 89.3931 122.661 89.2793C122.605 89.13 122.605 88.9657 122.661 88.8163C122.722 88.6701 122.83 88.5481 122.967 88.469C123.077 88.4182 123.197 88.3901 123.318 88.3863C123.513 88.3863 123.633 88.4111 123.633 88.44C123.633 88.469 123.517 88.4938 123.339 88.5393C123.243 88.5615 123.149 88.5963 123.062 88.6426C122.973 88.7074 122.904 88.7964 122.864 88.899C122.83 88.9992 122.82 89.1058 122.834 89.2105C122.849 89.3152 122.887 89.4151 122.946 89.5026C123.05 89.6638 123.112 89.7672 123.087 89.7879Z" fill="#263238"/>
<path d="M125.82 81.1386C125.724 81.0774 125.633 81.0097 125.547 80.936C125.369 80.8037 125.133 80.5928 124.778 80.353C123.819 79.6538 122.803 79.0382 121.739 78.5132C120.165 77.7328 118.522 77.099 116.831 76.6196C114.76 76.0322 112.653 75.5833 110.522 75.2759C108.393 74.9449 106.246 74.7461 104.093 74.6806C102.336 74.6342 100.578 74.7061 98.8299 74.8956C97.6509 75.0295 96.4794 75.2226 95.3198 75.4744L94.3812 75.6976C94.2712 75.7272 94.1593 75.7493 94.0464 75.7638C94.1504 75.7184 94.2583 75.6824 94.3688 75.6563L95.3032 75.3917C96.4594 75.1069 97.6315 74.8915 98.8134 74.7467C100.566 74.5321 102.332 74.4437 104.097 74.4821C106.26 74.5375 108.417 74.7308 110.555 75.0609C112.696 75.3706 114.812 75.8279 116.889 76.4294C118.586 76.9234 120.234 77.5754 121.809 78.3768C122.872 78.918 123.882 79.556 124.827 80.2828C125.166 80.535 125.406 80.7582 125.572 80.9029C125.662 80.9729 125.745 81.0518 125.82 81.1386Z" fill="#263238"/>
<path d="M109.484 89.8003C109.484 89.8003 109.484 89.7424 109.513 89.6349C109.551 89.4791 109.61 89.329 109.687 89.1884C109.992 88.6774 110.427 88.2565 110.948 87.9687C111.262 87.7703 111.622 87.5801 111.994 87.3651C112.366 87.1501 112.755 86.8979 113.156 86.625C114.038 86.0664 114.809 85.3486 115.43 84.5082C115.968 83.6155 116.235 82.5856 116.199 81.5438C116.219 80.5763 116.174 79.6915 116.228 78.9515C116.253 78.363 116.378 77.783 116.596 77.2357C116.655 77.0916 116.726 76.9532 116.811 76.8222C116.835 76.7728 116.865 76.7269 116.902 76.6858C116.581 77.4083 116.404 78.1862 116.381 78.9763C116.343 79.7081 116.405 80.5804 116.381 81.5603C116.427 82.6432 116.154 83.7159 115.595 84.6446C114.96 85.5111 114.163 86.2455 113.247 86.8069C112.833 87.0798 112.449 87.3237 112.064 87.5387C111.68 87.7537 111.324 87.9315 111.01 88.1176C110.499 88.3798 110.063 88.7683 109.745 89.2463C109.563 89.577 109.509 89.8085 109.484 89.8003Z" fill="#263238"/>
<path d="M123.819 79.6626C123.652 79.7785 123.478 79.8834 123.298 79.9768C122.822 80.2511 122.363 80.5549 121.925 80.8864C120.484 81.999 119.299 83.4092 118.452 85.0208C117.628 86.6382 117.151 88.4096 117.05 90.222C116.997 90.9166 116.988 91.483 116.984 91.8758C116.994 92.0787 116.986 92.2821 116.959 92.4835C116.921 92.2832 116.9 92.0798 116.897 91.8758C116.877 91.483 116.864 90.9166 116.897 90.222C116.954 88.3773 117.42 86.5683 118.262 84.9258C119.122 83.2936 120.344 81.8794 121.834 80.7913C122.285 80.4664 122.76 80.1775 123.256 79.9272C123.434 79.8189 123.622 79.7302 123.819 79.6626Z" fill="#263238"/>
<path d="M127.105 82.5029C127.105 82.5443 126.353 82.7138 125.183 83.152C124.501 83.406 123.869 83.7798 123.318 84.2559C122.653 84.8479 122.109 85.5624 121.714 86.3604C121.018 87.8348 120.629 89.4358 120.573 91.0654C120.532 91.6607 120.494 92.1569 120.465 92.5496C120.46 92.7332 120.438 92.9159 120.399 93.0954C120.379 92.9126 120.379 92.7283 120.399 92.5455C120.399 92.1941 120.399 91.6855 120.441 91.0571C120.466 90.3167 120.543 89.5789 120.672 88.8493C120.833 87.9491 121.124 87.0772 121.536 86.2611C121.942 85.441 122.504 84.7079 123.19 84.103C123.764 83.6207 124.423 83.2493 125.133 83.0073C125.604 82.8411 126.085 82.703 126.572 82.5939C126.745 82.5419 126.925 82.5114 127.105 82.5029Z" fill="#263238"/>
<path d="M111.684 90.743C111.612 90.7354 111.541 90.7187 111.473 90.6934C111.337 90.6479 111.134 90.5942 110.882 90.4991C110.163 90.251 109.459 89.9611 108.773 89.6308C107.752 89.1445 106.788 88.5454 105.9 87.8448C104.811 86.9764 103.875 85.9326 103.13 84.7563C102.348 83.516 101.67 82.2757 100.728 81.4488C99.878 80.7287 98.8269 80.2884 97.7177 80.1878C96.9745 80.0696 96.215 80.1034 95.4851 80.287C95.2225 80.37 94.9711 80.4853 94.7368 80.6301C94.7871 80.5766 94.8424 80.5282 94.9022 80.4854C95.0754 80.3682 95.263 80.2737 95.4603 80.2043C96.1976 79.9867 96.9729 79.9289 97.7343 80.0348C98.2624 80.0898 98.7826 80.2049 99.2847 80.3779C99.8666 80.5777 100.402 80.8927 100.86 81.3041C101.844 82.1599 102.534 83.4168 103.312 84.6447C104.045 85.8001 104.961 86.8291 106.024 87.6918C106.898 88.3912 107.843 88.9968 108.844 89.4985C109.695 89.912 110.415 90.2303 110.911 90.4247C111.175 90.515 111.433 90.6213 111.684 90.743Z" fill="#263238"/>
<path d="M91.6071 78.4222C90.9432 78.7135 90.3148 79.0797 89.7342 79.5137C89.2027 80.0071 88.7208 80.5513 88.2954 81.1386C88.5444 80.427 88.9973 79.8043 89.5977 79.3484C90.1565 78.8406 90.8581 78.5172 91.6071 78.4222Z" fill="#263238"/>
<path d="M92.1279 87.9687C92.0572 87.8503 92.0043 87.7222 91.9708 87.5884C91.8518 87.2333 91.7538 86.8716 91.6773 86.5051C91.4228 85.2914 91.3684 84.0443 91.516 82.8131C91.5934 82.1308 91.7659 81.4628 92.0287 80.8285C92.2414 80.3032 92.5358 79.8148 92.9011 79.3815C93.142 79.0938 93.4201 78.8394 93.728 78.6249C93.8369 78.5393 93.9601 78.4735 94.0918 78.4305C93.697 78.744 93.3341 79.0958 93.0086 79.4807C92.2808 80.4551 91.8345 81.6107 91.7186 82.8213C91.5779 84.0326 91.6113 85.2578 91.8179 86.4596C91.9832 87.3982 92.1651 87.9563 92.1279 87.9687Z" fill="#263238"/>
<path d="M89.5522 77.831C89.5522 77.8682 89.023 77.9592 88.2168 78.2858C87.1624 78.7041 86.2105 79.3446 85.4258 80.1636C84.641 80.9826 84.0418 81.9609 83.6689 83.0322C83.3795 83.8591 83.3133 84.3924 83.2761 84.3883C83.2553 84.261 83.2553 84.1311 83.2761 84.0038C83.3232 83.6576 83.3993 83.316 83.5035 82.9826C83.849 81.8682 84.4503 80.8501 85.2593 80.0095C86.0683 79.1688 87.0627 78.529 88.163 78.1411C88.4914 78.022 88.8287 77.9294 89.1718 77.8641C89.2961 77.8335 89.4245 77.8224 89.5522 77.831Z" fill="#263238"/>
<path d="M103.233 85.0746C101.941 85.157 100.665 84.7595 99.6485 83.9583C99.6816 83.9004 100.409 84.3387 101.402 84.6446C102.394 84.9506 103.237 85.0085 103.233 85.0746Z" fill="#263238"/>
<path d="M112.808 75.5282C112.808 75.5654 112.089 75.9416 111.06 76.7685C109.73 77.8596 108.627 79.1993 107.81 80.7128C107.002 82.2332 106.444 83.8734 106.156 85.5708C106.04 86.2199 105.966 86.7491 105.925 87.1171C105.911 87.3095 105.88 87.5004 105.834 87.6876C105.814 87.4952 105.814 87.3012 105.834 87.1088C105.854 86.7408 105.904 86.2034 106.003 85.546C106.253 83.8233 106.8 82.1571 107.62 80.6218C108.089 79.7818 108.643 78.9921 109.274 78.2652C109.787 77.6737 110.359 77.1362 110.981 76.661C111.399 76.3395 111.842 76.0506 112.304 75.7969C112.462 75.6889 112.631 75.5988 112.808 75.5282Z" fill="#263238"/>
<path d="M103.618 74.482C103.335 74.7089 103.067 74.9533 102.815 75.2138C102.247 75.8771 101.941 76.7258 101.955 77.5994C101.961 77.74 101.936 77.8801 101.884 78.0105C101.831 78.1409 101.751 78.2587 101.65 78.356C101.455 78.4961 101.254 78.6258 101.046 78.7447C100.721 78.9613 100.432 79.2278 100.19 79.5343C99.9903 79.8315 99.8067 80.1393 99.6402 80.4563C99.642 80.3559 99.666 80.257 99.7105 80.1669C99.8039 79.9096 99.9318 79.6662 100.091 79.4434C100.327 79.1076 100.619 78.8153 100.955 78.5793C101.141 78.4428 101.368 78.3436 101.53 78.1989C101.609 78.1189 101.67 78.0229 101.709 77.9174C101.748 77.8119 101.765 77.6993 101.757 77.587C101.751 77.0853 101.851 76.5878 102.051 76.1276C102.213 75.7512 102.441 75.4068 102.725 75.1105C102.913 74.9115 103.129 74.7403 103.365 74.6019C103.51 74.5027 103.613 74.4696 103.618 74.482Z" fill="#263238"/>
<path d="M95.2288 80.3324C94.8692 79.6366 94.6103 78.8932 94.4598 78.1246C94.2442 77.3758 94.1057 76.6069 94.0464 75.83C94.3171 76.5598 94.5273 77.3106 94.6748 78.075C94.9725 79.3194 95.2826 80.3117 95.2288 80.3324Z" fill="#263238"/>
<g opacity="0.3">
<path opacity="0.3" d="M93.9471 78.6166C93.3871 79.7164 92.9955 80.8941 92.7853 82.1102C92.5786 83.8012 93.0789 85.5294 92.8101 87.2121C92.777 87.4064 92.7109 87.6256 92.529 87.6958C92.4527 87.712 92.3733 87.7061 92.3002 87.6791C92.227 87.652 92.163 87.6048 92.1155 87.5429C92.0222 87.4095 91.9601 87.2569 91.9336 87.0964C91.4902 85.5629 91.3497 83.9578 91.5202 82.3707C91.76 80.7954 92.5703 79.2492 93.9388 78.4305" fill="black"/>
</g>
<g opacity="0.3">
<path opacity="0.3" d="M83.3298 84.1319C84.4877 81.7606 86.2414 79.7305 88.4193 78.2403C86.0296 78.9266 83.6564 81.6719 83.3298 84.1319Z" fill="black"/>
</g>
<path d="M119.105 126.043C120.697 128.073 122.301 130.124 124.306 131.744C124.96 132.274 125.762 132.778 126.58 132.596C127.186 132.398 127.71 132.007 128.073 131.484C128.606 130.922 129.027 130.264 129.313 129.545C129.45 129.183 129.496 128.793 129.448 128.409C129.401 128.025 129.261 127.659 129.04 127.341C128.594 126.87 128.019 126.541 127.387 126.394C126.181 126.005 124.943 125.728 123.686 125.567C122.27 125.33 120.817 125.439 119.453 125.886" fill="#00B2D0"/>
<path d="M117.361 126.514C121.082 127.527 130.636 127.395 135.825 126.341C139.332 125.693 142.899 125.427 146.463 125.547C146.463 125.547 152.706 128.801 155.869 128.627C159.032 128.453 156.485 125.46 155.869 122.297C155.253 119.134 156.663 117.638 153.847 115.703C151.032 113.768 145.322 118.956 145.322 118.956L141.452 118.514C137.057 116.492 124.22 110.865 115.777 111.304C107.334 111.742 108.323 118.956 108.323 118.956C108.323 118.956 108.041 123.967 117.361 126.514Z" fill="#00B2D0"/>
<path d="M114.5 116.252C114.5 116.509 114.424 116.759 114.281 116.972C114.139 117.185 113.936 117.351 113.7 117.448C113.463 117.546 113.203 117.572 112.951 117.521C112.7 117.471 112.47 117.347 112.289 117.166C112.108 116.985 111.985 116.754 111.936 116.502C111.886 116.251 111.912 115.991 112.011 115.754C112.11 115.518 112.276 115.316 112.489 115.174C112.703 115.033 112.953 114.958 113.21 114.958C113.379 114.958 113.547 114.992 113.704 115.057C113.861 115.122 114.003 115.217 114.123 115.338C114.243 115.458 114.338 115.601 114.403 115.758C114.467 115.915 114.5 116.083 114.5 116.252Z" fill="white"/>
<path d="M113.21 117.055C113.653 117.055 114.012 116.695 114.012 116.252C114.012 115.809 113.653 115.45 113.21 115.45C112.767 115.45 112.407 115.809 112.407 116.252C112.407 116.695 112.767 117.055 113.21 117.055Z" fill="#263238"/>
<path d="M114.624 119.899C113.54 119.785 112.466 119.6 111.407 119.345C110.334 119.16 109.275 118.905 108.236 118.58C109.319 118.694 110.393 118.88 111.452 119.134C112.525 119.319 113.584 119.575 114.624 119.899Z" fill="#263238"/>
<path d="M118.791 111.324C120.958 110.299 123.149 109.257 125.489 108.74C126.448 108.521 127.556 108.422 128.325 109.03C129.094 109.637 129.264 110.737 129.363 111.721C129.429 112.346 129.466 113.048 129.057 113.52L123.814 113.842L118.791 111.324Z" fill="#00B2D0"/>
<path d="M130.235 114.061C133.071 113.207 136.023 112.805 138.984 112.871C139.525 112.831 140.064 112.968 140.522 113.259C141.278 113.867 141.121 115.095 140.584 115.901C140.046 116.707 139.219 117.29 138.69 118.101L132.608 116.273C131.488 115.938 130.21 115.446 129.863 114.338" fill="#00B2D0"/>
<path d="M130.119 126.969C131.819 127.841 133.518 128.718 135.292 129.45C136.196 129.853 137.159 130.105 138.144 130.198C139.141 130.289 140.132 129.984 140.906 129.35C141.284 129.029 141.555 128.6 141.684 128.121C141.812 127.642 141.792 127.135 141.626 126.667C141.442 126.296 141.176 125.973 140.848 125.721C140.52 125.469 140.138 125.297 139.732 125.216C138.912 125.069 138.072 125.069 137.251 125.216C134.784 125.563 132.336 126.036 129.917 126.634" fill="#00B2D0"/>
<path d="M114.549 125.563C114.549 125.563 117.199 121.429 116.525 117.542C115.851 113.656 114.251 111.473 114.251 111.473C115.956 111.147 117.704 111.116 119.419 111.382C119.419 111.382 120.631 113.449 119.833 118.58C119.035 123.711 117.352 126.514 117.352 126.514C116.375 126.342 115.429 126.022 114.549 125.563Z" fill="white"/>
<path d="M125.931 112.718C125.878 112.718 126.498 113.267 125.621 115.074C124.745 116.881 122.698 118.382 122.727 121.346C122.756 124.311 126.25 127.201 126.25 127.201L132.555 126.833C132.555 126.833 133.431 123.5 133.382 121.144C133.332 118.787 132.472 114.528 132.472 114.528C132.472 114.33 126.564 112.627 125.931 112.718Z" fill="white"/>
<path d="M141.452 118.514C141.62 118.827 141.708 119.176 141.708 119.531C141.708 119.886 141.62 120.236 141.452 120.548C140.89 121.722 139.885 122.739 140.778 124.178L141.671 125.613L146.463 125.547L145.322 118.956L141.452 118.514Z" fill="white"/>
<path d="M146.463 125.547C146.365 125.558 146.267 125.558 146.169 125.547H145.343C144.615 125.547 143.561 125.567 142.258 125.629C140.956 125.691 139.414 125.811 137.71 126.043C136.007 126.274 134.146 126.642 132.17 126.911C131.182 127.048 130.206 127.122 129.276 127.167C128.346 127.213 127.432 127.25 126.568 127.267C124.844 127.308 123.289 127.267 121.983 127.201C120.676 127.134 119.63 126.998 118.911 126.89C118.547 126.841 118.27 126.791 118.084 126.754C117.986 126.745 117.891 126.723 117.799 126.688C117.897 126.691 117.995 126.699 118.092 126.713L118.919 126.808C119.643 126.89 120.693 126.99 121.991 127.048C123.289 127.105 124.844 127.122 126.564 127.068C127.424 127.043 128.324 127.006 129.264 126.957C130.198 126.911 131.161 126.833 132.158 126.696C134.122 126.432 135.986 126.055 137.698 125.844C139.41 125.634 140.964 125.522 142.271 125.476C143.577 125.431 144.631 125.443 145.359 125.476L146.186 125.505C146.279 125.514 146.371 125.528 146.463 125.547Z" fill="#263238"/>
<path d="M141.452 118.514C141.367 118.498 141.283 118.471 141.204 118.435L140.509 118.167C139.91 117.931 139.046 117.571 137.991 117.108C135.871 116.203 133.001 114.789 129.656 113.718C128.08 113.216 126.48 112.795 124.86 112.457L123.769 112.226L122.739 112.035C122.074 111.907 121.45 111.804 120.879 111.713C119.742 111.523 118.812 111.395 118.183 111.299L117.447 111.184C117.361 111.177 117.276 111.157 117.195 111.126C117.281 111.12 117.366 111.12 117.452 111.126L118.192 111.204C118.832 111.275 119.763 111.378 120.904 111.552C121.474 111.63 122.099 111.729 122.768 111.849L123.806 112.027L124.902 112.25C126.526 112.576 128.131 112.99 129.71 113.491C133.08 114.566 135.941 116.004 138.045 116.947C139.091 117.423 139.943 117.807 140.526 118.063L141.204 118.369C141.29 118.411 141.373 118.459 141.452 118.514Z" fill="#263238"/>
<path d="M153.884 118.588C153.529 118.677 153.169 118.743 152.805 118.787C151.945 118.95 151.103 119.196 150.291 119.523C149.482 119.858 148.708 120.274 147.98 120.763C147.688 120.984 147.385 121.188 147.071 121.375C147.31 121.092 147.588 120.844 147.898 120.639C149.331 119.573 151.013 118.892 152.784 118.659C153.146 118.584 153.516 118.56 153.884 118.588Z" fill="#263238"/>
<path d="M154.517 125.08C154.13 125.067 153.746 125.01 153.372 124.91C151.546 124.511 149.795 123.826 148.183 122.88C147.839 122.702 147.519 122.482 147.228 122.227C147.583 122.376 147.927 122.55 148.257 122.748C149.076 123.175 149.916 123.559 150.775 123.897C151.637 124.233 152.516 124.521 153.409 124.761C153.786 124.84 154.156 124.946 154.517 125.08Z" fill="#263238"/>
<path d="M146.388 125.133C146.287 124.839 146.221 124.534 146.19 124.224L145.822 122.012C145.686 121.185 145.562 120.449 145.45 119.8C145.38 119.496 145.344 119.186 145.342 118.874C145.466 119.161 145.553 119.462 145.603 119.771C145.731 120.329 145.888 121.111 146.016 121.975C146.145 122.839 146.264 123.628 146.326 124.203C146.384 124.51 146.405 124.822 146.388 125.133Z" fill="#263238"/>
<path d="M141.696 125.687C141.696 125.687 141.609 125.617 141.481 125.464C141.301 125.247 141.132 125.021 140.977 124.786C140.741 124.427 140.562 124.034 140.447 123.62C140.294 123.109 140.313 122.561 140.501 122.061C140.715 121.596 140.962 121.147 141.241 120.718C141.445 120.366 141.585 119.981 141.655 119.581C141.703 119.314 141.685 119.04 141.601 118.783C141.535 118.609 141.452 118.526 141.469 118.514C141.485 118.502 141.576 118.568 141.679 118.75C141.797 119.008 141.84 119.295 141.803 119.577C141.762 120.001 141.635 120.413 141.431 120.788C141.17 121.217 140.931 121.66 140.716 122.115C140.548 122.576 140.526 123.077 140.654 123.55C140.758 123.942 140.917 124.318 141.125 124.666C141.334 124.996 141.525 125.337 141.696 125.687Z" fill="#263238"/>
<path d="M132.447 114.524C132.517 114.669 132.569 114.822 132.604 114.979C132.695 115.277 132.811 115.715 132.931 116.257C133.247 117.675 133.426 119.12 133.464 120.573C133.504 122.026 133.365 123.478 133.051 124.898C132.956 125.328 132.837 125.753 132.695 126.171C132.656 126.328 132.596 126.48 132.517 126.622C132.48 126.622 132.691 125.952 132.902 124.869C133.171 123.455 133.292 122.016 133.262 120.577C133.219 119.138 133.063 117.704 132.794 116.29C132.691 115.744 132.6 115.306 132.534 115C132.485 114.846 132.456 114.686 132.447 114.524Z" fill="#263238"/>
<path d="M125.886 112.556C125.916 112.605 125.938 112.658 125.952 112.713C125.996 112.867 126.027 113.025 126.043 113.185C126.078 113.778 125.973 114.371 125.737 114.917C125.373 115.707 124.922 116.455 124.393 117.145C124.099 117.556 123.836 117.989 123.608 118.44C123.374 118.925 123.211 119.442 123.124 119.973C122.945 121.005 122.99 122.062 123.256 123.074C123.502 123.893 123.918 124.651 124.476 125.299C124.939 125.869 125.34 126.312 125.592 126.638C125.735 126.799 125.86 126.975 125.964 127.163C125.808 127.017 125.663 126.859 125.53 126.692C125.257 126.386 124.84 125.96 124.356 125.394C123.767 124.74 123.325 123.967 123.062 123.128C122.778 122.088 122.727 120.998 122.913 119.936C123.001 119.385 123.171 118.85 123.418 118.349C123.659 117.89 123.936 117.45 124.244 117.034C124.775 116.358 125.234 115.63 125.613 114.859C125.851 114.34 125.975 113.776 125.977 113.205C125.94 112.784 125.865 112.564 125.886 112.556Z" fill="#263238"/>
<path d="M121.201 119.924L125.927 118.092C126.328 117.891 126.779 117.811 127.225 117.861C128.106 118.055 128.433 119.163 128.329 120.06C128.226 120.958 127.866 121.847 128.048 122.731C128.168 123.302 128.515 123.856 128.408 124.431C128.319 124.747 128.132 125.026 127.873 125.229C127.614 125.431 127.297 125.545 126.969 125.555C126.31 125.56 125.657 125.419 125.059 125.142L120.313 123.409" fill="#00B2D0"/>
<path d="M120.313 123.409C120.389 123.418 120.464 123.437 120.536 123.467L121.16 123.674L123.438 124.476L125.009 125.038C125.584 125.285 126.199 125.425 126.824 125.452C127.154 125.448 127.475 125.353 127.755 125.179C127.897 125.093 128.02 124.979 128.117 124.844C128.214 124.709 128.282 124.556 128.317 124.393C128.433 123.715 127.862 123.029 127.903 122.198C127.945 121.367 128.185 120.656 128.247 119.944C128.294 119.612 128.261 119.273 128.15 118.955C128.039 118.638 127.854 118.352 127.61 118.121C127.486 118.034 127.345 117.972 127.197 117.94C127.049 117.907 126.895 117.904 126.746 117.931C126.448 117.989 126.156 118.079 125.878 118.2L124.319 118.787L122.053 119.614L121.433 119.833C121.363 119.862 121.289 119.883 121.214 119.895C121.276 119.851 121.344 119.816 121.416 119.792L122.024 119.535L124.261 118.63L125.811 118.014C126.102 117.887 126.406 117.791 126.717 117.728C127.068 117.663 127.431 117.741 127.726 117.943C128.018 118.171 128.23 118.485 128.333 118.841C128.446 119.197 128.488 119.572 128.457 119.944C128.391 120.697 128.123 121.425 128.118 122.181C128.127 122.555 128.204 122.923 128.346 123.269C128.502 123.629 128.565 124.023 128.528 124.414C128.488 124.604 128.408 124.785 128.294 124.943C128.18 125.101 128.034 125.233 127.866 125.332C127.558 125.529 127.199 125.634 126.833 125.633C126.183 125.598 125.545 125.444 124.951 125.179L123.389 124.592L121.135 123.723L120.523 123.479C120.451 123.462 120.381 123.439 120.313 123.409Z" fill="#263238"/>
<path d="M126.229 121.586C124.485 121.89 122.707 121.956 120.945 121.78C121.823 121.69 122.705 121.646 123.587 121.648C124.466 121.581 125.348 121.56 126.229 121.586Z" fill="#263238"/>
<path d="M119.42 111.382C119.42 111.382 119.457 111.423 119.502 111.518C119.575 111.652 119.638 111.79 119.692 111.932C119.904 112.464 120.053 113.019 120.139 113.586C120.399 115.008 120.313 117.017 119.928 119.167C119.581 121.002 119.042 122.795 118.32 124.517C118.051 125.179 117.819 125.712 117.658 126.076C117.583 126.269 117.491 126.454 117.381 126.63C117.431 126.429 117.497 126.232 117.58 126.043L118.175 124.463C118.852 122.737 119.368 120.951 119.717 119.13C120.09 117.315 120.182 115.453 119.99 113.61C119.871 112.851 119.68 112.105 119.42 111.382Z" fill="#263238"/>
<path d="M114.251 111.473C114.361 111.634 114.457 111.804 114.537 111.982L115.277 113.392C115.645 114.09 115.95 114.821 116.186 115.575C116.472 116.503 116.655 117.459 116.732 118.427C116.817 119.399 116.732 120.379 116.48 121.321C116.249 122.079 115.946 122.813 115.574 123.513C115.264 124.112 114.987 124.579 114.789 124.898C114.694 125.069 114.582 125.229 114.454 125.377C114.525 125.195 114.612 125.019 114.714 124.852C114.892 124.521 115.149 124.046 115.438 123.442C115.785 122.744 116.07 122.016 116.29 121.268C116.524 120.344 116.601 119.388 116.517 118.44C116.441 117.487 116.266 116.545 115.996 115.628C115.77 114.881 115.484 114.154 115.14 113.454C114.851 112.85 114.611 112.362 114.462 112.015C114.373 111.842 114.302 111.661 114.251 111.473Z" fill="#263238"/>
<path d="M114.876 118.853C114.876 118.853 115.099 118.956 115.355 119.267C115.515 119.455 115.603 119.694 115.603 119.94C115.59 120.095 115.54 120.243 115.456 120.374C115.372 120.504 115.258 120.612 115.124 120.689C114.86 120.833 114.556 120.883 114.26 120.833C114.029 120.793 113.805 120.717 113.598 120.606C113.255 120.416 113.073 120.267 113.086 120.242C113.287 120.291 113.482 120.366 113.664 120.466C113.862 120.551 114.071 120.609 114.285 120.635C114.535 120.669 114.79 120.623 115.012 120.503C115.118 120.444 115.208 120.361 115.276 120.262C115.344 120.162 115.388 120.048 115.405 119.928C115.412 119.723 115.351 119.521 115.231 119.353C115.025 119.047 114.851 118.878 114.876 118.853Z" fill="#263238"/>
<path d="M140.199 114.433C140.199 114.5 138.781 114.487 137.049 114.694C135.316 114.901 133.936 115.235 133.919 115.173C134.202 115.039 134.5 114.942 134.808 114.884C135.537 114.698 136.277 114.56 137.024 114.471C137.769 114.385 138.519 114.344 139.269 114.351C139.581 114.338 139.894 114.366 140.199 114.433Z" fill="#263238"/>
</svg>
