<svg width="200" height="148" viewBox="0 0 200 148" fill="none" xmlns="http://www.w3.org/2000/svg">
<path d="M179.96 137.396H166.712V137.496H179.96V137.396Z" fill="#EBEBEB"/>
<path d="M132.488 138.484H129.012V138.584H132.488V138.484Z" fill="#EBEBEB"/>
<path d="M166.312 133.684H158.636V133.784H166.312V133.684Z" fill="#EBEBEB"/>
<path d="M38.26 134.356H20.984V134.456H38.26V134.356Z" fill="#EBEBEB"/>
<path d="M44.356 134.356H41.824V134.456H44.356V134.356Z" fill="#EBEBEB"/>
<path d="M90.06 136.044H52.588V136.144H90.06V136.044Z" fill="#EBEBEB"/>
<path d="M95.3601 113.12H18.1201C17.5143 113.12 16.9334 112.879 16.505 112.451C16.0767 112.023 15.8361 111.442 15.8361 110.836V2.264C15.8413 1.66172 16.0843 1.0859 16.5121 0.661882C16.9398 0.237865 17.5178 -2.30904e-05 18.1201 1.68102e-09H95.3601C95.66 1.68102e-09 95.957 0.0590769 96.2341 0.173859C96.5112 0.28864 96.763 0.456879 96.9751 0.668968C97.1872 0.881057 97.3554 1.13284 97.4702 1.40995C97.585 1.68706 97.6441 1.98406 97.6441 2.284V110.836C97.6441 111.136 97.585 111.433 97.4702 111.71C97.3554 111.987 97.1872 112.239 96.9751 112.451C96.763 112.663 96.5112 112.831 96.2341 112.946C95.957 113.061 95.66 113.12 95.3601 113.12V113.12ZM18.1201 0.0800003C17.5412 0.0810577 16.9863 0.311496 16.5769 0.720847C16.1676 1.1302 15.9371 1.68509 15.9361 2.264V110.836C15.9371 111.415 16.1676 111.97 16.5769 112.379C16.9863 112.789 17.5412 113.019 18.1201 113.02H95.3601C95.939 113.019 96.4939 112.789 96.9032 112.379C97.3126 111.97 97.543 111.415 97.5441 110.836V2.264C97.543 1.68509 97.3126 1.1302 96.9032 0.720847C96.4939 0.311496 95.939 0.0810577 95.3601 0.0800003H18.1201Z" fill="#EBEBEB"/>
<path d="M181.88 113.12H104.64C104.034 113.12 103.453 112.879 103.025 112.451C102.597 112.023 102.356 111.442 102.356 110.836V2.264C102.361 1.66172 102.604 1.0859 103.032 0.661882C103.46 0.237865 104.038 -2.30904e-05 104.64 1.68102e-09H181.88C182.486 1.68102e-09 183.067 0.240635 183.495 0.668968C183.923 1.0973 184.164 1.67825 184.164 2.284V110.836C184.164 111.442 183.923 112.023 183.495 112.451C183.067 112.879 182.486 113.12 181.88 113.12V113.12ZM104.64 0.0800003C104.061 0.0810577 103.506 0.311496 103.097 0.720847C102.687 1.1302 102.457 1.68509 102.456 2.264V110.836C102.457 111.415 102.687 111.97 103.097 112.379C103.506 112.789 104.061 113.019 104.64 113.02H181.88C182.459 113.019 183.014 112.789 183.423 112.379C183.832 111.97 184.063 111.415 184.064 110.836V2.264C184.063 1.68509 183.832 1.1302 183.423 0.720847C183.014 0.311496 182.459 0.0810577 181.88 0.0800003H104.64Z" fill="#EBEBEB"/>
<path d="M200 130.96H0V131.06H200V130.96Z" fill="#EBEBEB"/>
<path d="M158.52 110.216H168.62C169.052 110.217 169.479 110.132 169.878 109.967C170.277 109.802 170.639 109.561 170.945 109.256C171.25 108.951 171.492 108.588 171.658 108.19C171.823 107.791 171.908 107.364 171.908 106.932V92.1681C171.908 92.009 171.845 91.8564 171.732 91.7438C171.62 91.6313 171.467 91.5681 171.308 91.5681V91.5681C171.149 91.5681 170.996 91.6313 170.884 91.7438C170.771 91.8564 170.708 92.009 170.708 92.1681V106.932C170.707 107.485 170.487 108.015 170.095 108.406C169.704 108.797 169.173 109.016 168.62 109.016H158.52V110.216Z" fill="#E0E0E0"/>
<path d="M155.632 124.372V110.62L154.832 110.364C154.389 110.225 154.002 109.948 153.727 109.574C153.452 109.2 153.304 108.748 153.304 108.284H160.92C160.92 108.748 160.772 109.2 160.497 109.574C160.222 109.948 159.835 110.225 159.392 110.364L158.592 110.62V124.372L164.92 127.2V128.4L157.108 125.672L149.3 128.4V127.2L155.632 124.372Z" fill="#E0E0E0"/>
<path d="M147.148 109.016H167.072C167.645 109.016 168.195 108.788 168.601 108.383C169.006 107.979 169.235 107.429 169.236 106.856V106.856C169.236 106.282 169.008 105.732 168.602 105.326C168.196 104.92 167.646 104.692 167.072 104.692H147.148C146.574 104.692 146.024 104.92 145.618 105.326C145.212 105.732 144.984 106.282 144.984 106.856V106.856C144.985 107.429 145.214 107.979 145.619 108.383C146.025 108.788 146.575 109.016 147.148 109.016V109.016Z" fill="#F0F0F0"/>
<path d="M170.588 97.364L171.664 82C171.704 81.429 171.515 80.8655 171.141 80.433C170.766 80.0004 170.235 79.734 169.664 79.692V79.692C169.093 79.6524 168.53 79.8407 168.099 80.2156C167.667 80.5905 167.401 81.1215 167.36 81.692L166.284 97.068C166.243 97.6392 166.431 98.2032 166.806 98.636C167.181 99.0688 167.713 99.335 168.284 99.376V99.376C168.856 99.4144 169.42 99.2241 169.852 98.8468C170.284 98.4695 170.549 97.9362 170.588 97.364V97.364Z" fill="#EBEBEB"/>
<path d="M163.556 129.26C163.556 129.531 163.636 129.795 163.787 130.021C163.937 130.246 164.151 130.421 164.401 130.524C164.652 130.628 164.927 130.655 165.192 130.602C165.458 130.548 165.702 130.418 165.893 130.226C166.084 130.034 166.214 129.79 166.266 129.525C166.319 129.259 166.291 128.984 166.187 128.734C166.083 128.484 165.907 128.271 165.681 128.121C165.456 127.971 165.191 127.891 164.92 127.892C164.558 127.893 164.211 128.038 163.955 128.294C163.7 128.551 163.556 128.898 163.556 129.26V129.26Z" fill="#E0E0E0"/>
<path d="M147.932 129.26C147.932 129.531 148.012 129.795 148.163 130.02C148.313 130.245 148.527 130.42 148.777 130.524C149.026 130.627 149.302 130.655 149.567 130.602C149.832 130.549 150.076 130.419 150.267 130.227C150.459 130.036 150.589 129.792 150.642 129.527C150.695 129.262 150.667 128.987 150.564 128.737C150.46 128.487 150.285 128.273 150.06 128.123C149.835 127.972 149.571 127.892 149.3 127.892C148.937 127.892 148.589 128.036 148.333 128.293C148.076 128.549 147.932 128.897 147.932 129.26V129.26Z" fill="#E0E0E0"/>
<path d="M40.104 110.216H30C29.5684 110.217 29.141 110.132 28.7421 109.967C28.3432 109.802 27.9807 109.561 27.6753 109.256C27.3699 108.951 27.1277 108.588 26.9624 108.19C26.7971 107.791 26.712 107.364 26.712 106.932V92.1681C26.712 92.009 26.7752 91.8564 26.8878 91.7438C27.0003 91.6313 27.1529 91.5681 27.312 91.5681C27.4712 91.5681 27.6238 91.6313 27.7363 91.7438C27.8488 91.8564 27.912 92.009 27.912 92.1681V106.932C27.9131 107.485 28.1335 108.015 28.525 108.406C28.9165 108.797 29.447 109.016 30 109.016H40.1L40.104 110.216Z" fill="#E0E0E0"/>
<path d="M42.992 124.372V110.62L43.792 110.364C44.2349 110.225 44.622 109.948 44.8969 109.574C45.1717 109.2 45.3199 108.748 45.32 108.284H37.72C37.72 108.748 37.8683 109.2 38.1431 109.574C38.4179 109.948 38.805 110.225 39.248 110.364L40.048 110.62V124.372L33.704 127.2V128.4L41.516 125.672L49.328 128.4V127.2L42.992 124.372Z" fill="#E0E0E0"/>
<path d="M51.4759 109.016H31.5519C30.9787 109.016 30.4289 108.788 30.0232 108.383C29.6175 107.979 29.389 107.429 29.3879 106.856V106.856C29.3879 106.282 29.6159 105.732 30.0218 105.326C30.4276 104.92 30.978 104.692 31.5519 104.692H51.4759C52.0499 104.692 52.6003 104.92 53.0061 105.326C53.4119 105.732 53.6399 106.282 53.6399 106.856V106.856C53.6389 107.429 53.4104 107.979 53.0047 108.383C52.599 108.788 52.0492 109.016 51.4759 109.016V109.016Z" fill="#F0F0F0"/>
<path d="M28.036 97.364L26.96 82C26.9204 81.429 27.1086 80.8655 27.4834 80.433C27.8583 80.0004 28.3892 79.734 28.96 79.692V79.692C29.5306 79.6524 30.0936 79.8407 30.5255 80.2156C30.9575 80.5905 31.223 81.1215 31.264 81.692L32.34 97.068C32.3807 97.6392 32.1929 98.2032 31.8179 98.636C31.4428 99.0688 30.9113 99.335 30.34 99.376V99.376C29.7678 99.4144 29.2036 99.2241 28.7716 98.8468C28.3396 98.4695 28.075 97.9362 28.036 97.364V97.364Z" fill="#EBEBEB"/>
<path d="M35.068 129.26C35.068 129.531 34.9877 129.795 34.8372 130.021C34.6867 130.246 34.4728 130.421 34.2226 130.524C33.9724 130.628 33.6971 130.655 33.4317 130.602C33.1662 130.548 32.9225 130.418 32.7313 130.226C32.5401 130.034 32.4102 129.79 32.3578 129.525C32.3055 129.259 32.3332 128.984 32.4373 128.734C32.5415 128.484 32.7174 128.271 32.9429 128.121C33.1684 127.971 33.4333 127.891 33.704 127.892C34.0662 127.893 34.4131 128.038 34.6688 128.294C34.9245 128.551 35.068 128.898 35.068 129.26V129.26Z" fill="#E0E0E0"/>
<path d="M50.6921 129.26C50.6921 129.531 50.6117 129.795 50.4612 130.021C50.3107 130.246 50.0968 130.421 49.8466 130.524C49.5964 130.628 49.3212 130.655 49.0557 130.602C48.7902 130.548 48.5465 130.418 48.3553 130.226C48.1642 130.034 48.0342 129.79 47.9819 129.525C47.9295 129.259 47.9572 128.984 48.0613 128.734C48.1655 128.484 48.3415 128.271 48.5669 128.121C48.7924 127.971 49.0573 127.891 49.3281 127.892C49.6902 127.893 50.0371 128.038 50.2928 128.294C50.5485 128.551 50.6921 128.898 50.6921 129.26V129.26Z" fill="#E0E0E0"/>
<path d="M83.0281 131.076H75.2241L74.4241 116.284H83.8281L83.0281 131.076Z" fill="#EBEBEB"/>
<path d="M77.024 131.076H73.824V130.42L77.024 130.02V131.076Z" fill="#E0E0E0"/>
<path d="M75.6001 115.084H82.6241C82.9423 115.084 83.2476 115.21 83.4726 115.435C83.6976 115.661 83.8241 115.966 83.8241 116.284V116.284H74.4241C74.4241 115.966 74.5505 115.661 74.7755 115.435C75.0006 115.21 75.3058 115.084 75.6241 115.084H75.6001Z" fill="#E0E0E0"/>
<path d="M67.024 92.7159H54.54V91.2199L67.024 90.4199V92.7159Z" fill="#E0E0E0"/>
<path d="M85.4921 94.24H48.5601V99.352H85.4921V94.24Z" fill="#F0F0F0"/>
<path d="M93.148 92.7161H41.036V95.7641H93.148V92.7161Z" fill="#FAFAFA"/>
<path d="M88.308 131.076H90.66L86.588 95.7639H83.828L88.308 131.076Z" fill="#E6E6E6"/>
<path d="M50.356 95.7639H47.596L43.52 131.076H45.876L50.356 95.7639Z" fill="#E6E6E6"/>
<path d="M79.672 91.9559C78.6054 86.6572 77.5387 81.3586 76.472 76.0599C76.316 75.2999 75.16 75.6239 75.312 76.3759L78.36 91.5159H71.76C71.6009 91.5159 71.4483 91.5791 71.3358 91.6916C71.2233 91.8041 71.16 91.9568 71.16 92.1159C71.16 92.275 71.2233 92.4276 71.3358 92.5401C71.4483 92.6527 71.6009 92.7159 71.76 92.7159H79.092C79.1838 92.7138 79.274 92.6911 79.3558 92.6495C79.4376 92.6078 79.509 92.5483 79.5648 92.4753C79.6205 92.4023 79.659 92.3177 79.6776 92.2278C79.6962 92.1379 79.6943 92.045 79.672 91.9559V91.9559Z" fill="#E0E0E0"/>
<path d="M72.2 87.6919L74.256 58.2959C75.0147 58.8391 75.6216 59.5678 76.0187 60.4123C76.4157 61.2568 76.5897 62.189 76.524 63.1199L75.12 83.2319C75.0542 84.1627 74.7514 85.0612 74.2403 85.8418C73.7292 86.6225 73.0268 87.2594 72.2 87.6919V87.6919Z" fill="#FAFAFA"/>
<path d="M88.2201 84.1719H84.8761C84.2354 84.1719 83.7161 84.6912 83.7161 85.3319V91.5559C83.7161 92.1965 84.2354 92.7159 84.8761 92.7159H88.2201C88.8607 92.7159 89.3801 92.1965 89.3801 91.5559V85.3319C89.3801 84.6912 88.8607 84.1719 88.2201 84.1719Z" fill="#F5F5F5"/>
<path d="M85.956 80.988C85.072 80.988 84.356 81.208 84.356 81.48C84.356 81.752 85.076 81.384 85.956 81.384C86.072 81.384 86.184 81.384 86.296 81.384V83.324H86.8V81.46C87.256 81.548 87.556 81.636 87.556 81.46C87.556 81.2 86.84 80.988 85.956 80.988Z" fill="#E0E0E0"/>
<path d="M87.448 82.708H85.644V84.512H87.448V82.708Z" fill="#F0F0F0"/>
<path d="M113.132 99.3521H150.064V94.2401H113.132V99.3521Z" fill="#F0F0F0"/>
<path d="M105.48 95.7639H157.592V92.7159H105.48V95.7639Z" fill="#FAFAFA"/>
<path d="M110.316 131.076H107.964L112.036 95.7639H114.796L110.316 131.076Z" fill="#E6E6E6"/>
<path d="M148.272 95.7639H151.028L155.104 131.076H152.748L148.272 95.7639Z" fill="#E6E6E6"/>
<path d="M139.408 92.7159H151.892V91.2199L139.408 90.4199V92.7159Z" fill="#E0E0E0"/>
<path d="M114.292 65.884V92.716H116.024L116.424 90.316C116.497 89.895 116.717 89.5134 117.044 89.2383C117.371 88.9632 117.785 88.8123 118.212 88.812H134.36C134.787 88.8123 135.201 88.9632 135.528 89.2383C135.855 89.5134 136.075 89.895 136.148 90.316L136.548 92.716H138.28V65.884H114.292Z" fill="#F5F5F5"/>
<path d="M122.052 91.9559C123.119 86.6572 124.185 81.3586 125.252 76.0599C125.408 75.2999 126.564 75.6239 126.412 76.3759L123.364 91.5159H129.964C130.123 91.5159 130.276 91.5791 130.388 91.6916C130.501 91.8041 130.564 91.9568 130.564 92.1159C130.564 92.275 130.501 92.4276 130.388 92.5401C130.276 92.6527 130.123 92.7159 129.964 92.7159H122.632C122.54 92.7138 122.45 92.6911 122.368 92.6495C122.286 92.6078 122.215 92.5483 122.159 92.4753C122.104 92.4023 122.065 92.3177 122.046 92.2278C122.028 92.1379 122.03 92.045 122.052 91.9559V91.9559Z" fill="#E0E0E0"/>
<path d="M129.524 87.6919L127.468 58.2959C126.709 58.8391 126.102 59.5678 125.705 60.4123C125.308 61.2568 125.134 62.189 125.2 63.1199L126.604 83.2319C126.669 84.1629 126.971 85.0617 127.483 85.8425C127.994 86.6233 128.697 87.26 129.524 87.6919V87.6919Z" fill="#E0E0E0"/>
<path d="M87.064 37.176H21.532V77.108H87.064V37.176Z" fill="#EBEBEB"/>
<path d="M87.552 37.1599H87.072V77.0919H87.552V37.1599Z" fill="#E0E0E0"/>
<path d="M23.912 38.908H23.516V74.84H23.912V38.908Z" fill="#E0E0E0"/>
<path d="M84.928 38.908H23.476V74.84H84.928V38.908Z" fill="white"/>
<path d="M45.244 54.736V56.448H49.236V54.736H45.244Z" fill="#F5F5F5"/>
<path d="M46.024 67.6199V68.9519H50.016V67.6199H46.024Z" fill="#F5F5F5"/>
<path d="M46.672 54.176H33.704V72.4H46.672V54.176Z" fill="#F0F0F0"/>
<path d="M45.1279 70.564V71.896H49.1199V70.564H45.1279Z" fill="#F5F5F5"/>
<path d="M45.792 58.3799V59.7119H49.784V58.3799H45.792Z" fill="#F5F5F5"/>
<path d="M44.916 61.688V63.02H48.908V61.688H44.916Z" fill="#F5F5F5"/>
<path d="M44.0719 56.416H35.2319V57.984H44.0719V56.416Z" fill="#E6E6E6"/>
<path d="M44.2119 63.1161H35.3719L35.2319 62.4041H44.0679L44.2119 63.1161Z" fill="#E6E6E6"/>
<path d="M38.3679 59.552H35.2319V61.12H38.3679V59.552Z" fill="#E6E6E6"/>
<path d="M65.076 50.884H60.012V58.156H65.076V50.884Z" fill="#F5F5F5"/>
<path d="M31.5 62.408H26.436V69.68H31.5V62.408Z" fill="#F5F5F5"/>
<path d="M32.188 41.512H27.124V46.576H32.188V41.512Z" fill="#F5F5F5"/>
<path d="M56.196 64.728H51.132V69.792H56.196V64.728Z" fill="#F5F5F5"/>
<path d="M81.068 51.512H68.1V69.736H81.068V51.512Z" fill="#F5F5F5"/>
<path d="M79.192 54.1479H69.876V54.3479H79.192V54.1479Z" fill="#E0E0E0"/>
<path d="M74.632 54.344H74.432V67.84H74.632V54.344Z" fill="#E0E0E0"/>
<path d="M78.912 54.344H78.712V67.84H78.912V54.344Z" fill="#E0E0E0"/>
<path d="M70.832 54.344H70.632V67.84H70.832V54.344Z" fill="#E0E0E0"/>
<path d="M70.164 54.344H69.964V67.84H70.164V54.344Z" fill="#E0E0E0"/>
<path d="M78.712 55.0559H70.064V55.2559H78.712V55.0559Z" fill="#E0E0E0"/>
<path d="M98.072 147.484C140.905 147.484 175.628 145.457 175.628 142.956C175.628 140.455 140.905 138.428 98.072 138.428C55.239 138.428 20.516 140.455 20.516 142.956C20.516 145.457 55.239 147.484 98.072 147.484Z" fill="#F5F5F5"/>
<path d="M110.08 60.0281C110.08 62.3843 109.145 64.6442 107.48 66.3114C105.815 67.9786 103.556 68.9169 101.2 68.9201H97.9679V77.3921H89.1999V80.8681C89.1505 83.1932 88.1923 85.4065 86.5304 87.0334C84.8686 88.6603 82.6355 89.5715 80.3099 89.5715C77.9842 89.5715 75.7511 88.6603 74.0893 87.0334C72.4275 85.4065 71.4692 83.1932 71.4199 80.8681V77.3921H63.2319V68.9201H59.5119C57.1536 68.9201 54.8919 67.9832 53.2243 66.3157C51.5567 64.6481 50.6199 62.3864 50.6199 60.0281C50.6199 57.6698 51.5567 55.408 53.2243 53.7405C54.8919 52.0729 57.1536 51.1361 59.5119 51.1361H63.2319V42.6641H71.7039V46.4001C71.6788 47.5834 71.8902 48.7598 72.3256 49.8604C72.7611 50.9609 73.412 51.9635 74.24 52.8092C75.068 53.655 76.0565 54.3269 77.1475 54.7856C78.2386 55.2444 79.4103 55.4806 80.5939 55.4806C81.7775 55.4806 82.9491 55.2444 84.0402 54.7856C85.1313 54.3269 86.1198 53.655 86.9478 52.8092C87.7758 51.9635 88.4266 50.9609 88.8621 49.8604C89.2976 48.7598 89.509 47.5834 89.4839 46.4001V42.6801H97.9559V51.1521H101.2C103.553 51.1552 105.81 52.0913 107.474 53.755C109.139 55.4188 110.076 57.6746 110.08 60.0281V60.0281Z" fill="#00B2D0"/>
<g opacity="0.5">
<path opacity="0.5" d="M110.08 60.0281C110.08 62.3843 109.145 64.6442 107.48 66.3114C105.815 67.9786 103.556 68.9169 101.2 68.9201H97.9679V77.3921H89.1999V80.8681C89.1505 83.1932 88.1923 85.4065 86.5304 87.0334C84.8686 88.6603 82.6355 89.5715 80.3099 89.5715C77.9842 89.5715 75.7511 88.6603 74.0893 87.0334C72.4275 85.4065 71.4692 83.1932 71.4199 80.8681V77.3921H63.2319V68.9201H59.5119C57.1536 68.9201 54.8919 67.9832 53.2243 66.3157C51.5567 64.6481 50.6199 62.3864 50.6199 60.0281C50.6199 57.6698 51.5567 55.408 53.2243 53.7405C54.8919 52.0729 57.1536 51.1361 59.5119 51.1361H63.2319V42.6641H71.7039V46.4001C71.6788 47.5834 71.8902 48.7598 72.3256 49.8604C72.7611 50.9609 73.412 51.9635 74.24 52.8092C75.068 53.655 76.0565 54.3269 77.1475 54.7856C78.2386 55.2444 79.4103 55.4806 80.5939 55.4806C81.7775 55.4806 82.9491 55.2444 84.0402 54.7856C85.1313 54.3269 86.1198 53.655 86.9478 52.8092C87.7758 51.9635 88.4266 50.9609 88.8621 49.8604C89.2976 48.7598 89.509 47.5834 89.4839 46.4001V42.6801H97.9559V51.1521H101.2C103.553 51.1552 105.81 52.0913 107.474 53.755C109.139 55.4188 110.076 57.6746 110.08 60.0281V60.0281Z" fill="white"/>
</g>
<path d="M101.232 68.8761H97.5118V77.3481H132.24V68.8761H135.468C137.826 68.8761 140.088 67.9392 141.755 66.2716C143.423 64.6041 144.36 62.3424 144.36 59.9841C144.36 57.6258 143.423 55.364 141.755 53.6965C140.088 52.0289 137.826 51.0921 135.468 51.0921H132.24V42.6201H123.768V38.9001C123.768 36.5418 122.831 34.28 121.163 32.6125C119.496 30.9449 117.234 30.0081 114.876 30.0081C112.518 30.0081 110.256 30.9449 108.588 32.6125C106.921 34.28 105.984 36.5418 105.984 38.9001V42.6201H97.5118V51.0921H101.232C103.59 51.0921 105.852 52.0289 107.519 53.6965C109.187 55.364 110.124 57.6258 110.124 59.9841C110.124 62.3424 109.187 64.6041 107.519 66.2716C105.852 67.9392 103.59 68.8761 101.232 68.8761Z" fill="#00B2D0"/>
<g opacity="0.3">
<path opacity="0.3" d="M101.232 68.8761H97.5118V77.3481H132.24V68.8761H135.468C137.826 68.8761 140.088 67.9392 141.755 66.2716C143.423 64.6041 144.36 62.3424 144.36 59.9841C144.36 57.6258 143.423 55.364 141.755 53.6965C140.088 52.0289 137.826 51.0921 135.468 51.0921H132.24V42.6201H123.768V38.9001C123.768 36.5418 122.831 34.28 121.163 32.6125C119.496 30.9449 117.234 30.0081 114.876 30.0081C112.518 30.0081 110.256 30.9449 108.588 32.6125C106.921 34.28 105.984 36.5418 105.984 38.9001V42.6201H97.5118V51.0921H101.232C103.59 51.0921 105.852 52.0289 107.519 53.6965C109.187 55.364 110.124 57.6258 110.124 59.9841C110.124 62.3424 109.187 64.6041 107.519 66.2716C105.852 67.9392 103.59 68.8761 101.232 68.8761Z" fill="white"/>
</g>
<path d="M103.352 38.6921L102.604 38.5041C101.799 38.3384 101.014 38.0849 100.264 37.7481L100.164 37.7001C99.428 37.3441 98.508 36.9001 98.312 35.3521C98.3085 35.2544 98.271 35.161 98.206 35.088C98.141 35.015 98.0526 34.9669 97.956 34.9521C91.1 34.6201 88.712 30.9921 88.708 26.9521C88.708 22.9921 91.312 19.2521 98.708 19.1641C105.564 19.0801 108.996 23.3001 108.788 27.6481C108.652 30.4241 106.476 34.2281 102.336 35.0921C101.828 35.2641 100.924 35.2961 100.608 35.7521C100.538 35.8626 100.5 35.991 100.5 36.1221C100.5 36.2532 100.538 36.3815 100.608 36.4921C100.757 36.7193 100.939 36.923 101.148 37.0961C101.884 37.7281 103.352 38.6921 103.352 38.6921Z" fill="white"/>
<path d="M103.352 38.8921H103.304L102.556 38.7081C101.737 38.5377 100.939 38.2789 100.176 37.9361L100.08 37.8881C99.3401 37.5321 98.3241 37.0441 98.1161 35.3841C98.1161 35.3481 98.0801 35.1521 97.9441 35.1441C89.7401 34.7441 88.5121 29.8441 88.5081 26.9601C88.5081 24.5961 89.4961 19.0841 98.7081 18.9601C103.056 18.9161 105.508 20.5121 106.82 21.8721C107.561 22.6347 108.136 23.5421 108.51 24.5374C108.884 25.5327 109.048 26.5944 108.992 27.6561C108.855 29.4663 108.14 31.1847 106.954 32.5585C105.767 33.9324 104.171 34.8891 102.4 35.2881C102.232 35.3421 102.061 35.3849 101.888 35.4161C101.46 35.5041 100.976 35.6041 100.796 35.8681C100.747 35.9452 100.721 36.0347 100.721 36.1261C100.721 36.2175 100.747 36.307 100.796 36.3841C100.934 36.5945 101.103 36.7832 101.296 36.9441C102.012 37.5601 103.464 38.5121 103.48 38.5241C103.519 38.5496 103.548 38.5881 103.561 38.6329C103.574 38.6776 103.571 38.7255 103.552 38.7681C103.536 38.8073 103.508 38.8404 103.472 38.8626C103.436 38.8849 103.394 38.8952 103.352 38.8921ZM98.9161 19.3601H98.7121C89.8561 19.4681 88.9041 24.7001 88.9081 26.9601C88.9081 29.7041 90.0881 34.3641 97.9641 34.7441C98.1116 34.7596 98.2486 34.8281 98.3494 34.9371C98.4502 35.046 98.508 35.1878 98.5121 35.3361C98.6961 36.7761 99.5201 37.1761 100.252 37.5281L100.352 37.5761C100.983 37.8656 101.642 38.0869 102.32 38.2361C101.876 37.9281 101.368 37.5561 101.02 37.2561C100.796 37.0694 100.602 36.8496 100.444 36.6041C100.35 36.4625 100.3 36.2962 100.3 36.1261C100.3 35.9561 100.35 35.7898 100.444 35.6481C100.712 35.2481 101.28 35.1361 101.784 35.0321C101.964 34.9921 102.14 34.9561 102.272 34.9121C103.965 34.5395 105.493 33.6321 106.631 32.3239C107.768 31.0158 108.454 29.3764 108.588 27.6481C108.642 26.6408 108.486 25.6332 108.132 24.6888C107.777 23.7443 107.231 22.8834 106.528 22.1601C105.296 20.8721 102.976 19.3601 98.9161 19.3601Z" fill="#00B2D0"/>
<path d="M95.1999 37.0119C95.6759 36.4719 95.8999 35.9319 95.7799 35.4359C95.5319 34.3919 94.6079 34.4079 94.0119 34.2079C89.8719 33.3399 87.6959 30.3399 87.5599 27.5639C87.3519 23.2159 90.784 18.9919 97.6399 19.0759C105.04 19.1679 107.64 22.9079 107.64 26.8639C107.64 30.8919 105.24 34.5199 98.3919 34.8639C98.1639 34.8639 98.0599 35.0839 98.0319 35.2639C97.8399 36.8119 96.92 37.2639 96.184 37.6119L96.084 37.6599C95.3333 37.995 94.5488 38.2484 93.7439 38.4159L92.9959 38.5999C92.9959 38.5999 94.5479 37.7399 95.1999 37.0119Z" fill="white"/>
<path d="M92.984 38.8C92.9438 38.8006 92.9044 38.7891 92.8709 38.767C92.8374 38.7449 92.8113 38.7132 92.796 38.676C92.7782 38.631 92.7773 38.5811 92.7935 38.5355C92.8097 38.4899 92.8418 38.4517 92.884 38.428C92.884 38.428 94.428 37.568 95.036 36.876C95.488 36.356 95.668 35.888 95.572 35.48C95.4 34.756 94.876 34.632 94.324 34.5C94.188 34.468 94.052 34.436 93.924 34.396C89.564 33.484 87.468 30.308 87.336 27.572C87.2804 26.5097 87.4446 25.4474 87.8184 24.4515C88.1921 23.4556 88.7673 22.5475 89.508 21.784C90.82 20.428 93.272 18.816 97.62 18.872C106.82 18.988 107.824 24.496 107.82 26.872C107.82 29.756 106.588 34.66 98.384 35.056C98.248 35.056 98.216 35.256 98.212 35.296C98.004 36.952 96.988 37.444 96.248 37.8L96.152 37.848C95.3819 38.1904 94.5773 38.4492 93.752 38.62L93 38.804L92.984 38.8ZM97.42 19.272C93.356 19.272 91.02 20.784 89.82 22.072C89.1168 22.7953 88.5708 23.6563 88.2163 24.6007C87.8618 25.5451 87.7065 26.5527 87.76 27.56C87.884 30.144 89.88 33.16 94.052 34.016C94.184 34.06 94.308 34.088 94.452 34.12C95.004 34.252 95.764 34.432 95.992 35.392C96.12 35.936 95.912 36.524 95.368 37.148C95.0171 37.5132 94.6251 37.8367 94.2 38.112C94.8248 37.9655 95.4332 37.7565 96.016 37.488L96.116 37.44C96.844 37.088 97.672 36.688 97.856 35.248C97.8583 35.0992 97.9155 34.9564 98.0167 34.8471C98.1178 34.7379 98.2558 34.6698 98.404 34.656C106.276 34.276 107.456 29.616 107.46 26.868C107.46 24.624 106.512 19.392 97.652 19.268L97.42 19.272Z" fill="#00B2D0"/>
<path d="M95.356 27.26L97.1 29.004L101.04 25.812" fill="white"/>
<path d="M97.0999 29.4039C97.0473 29.4042 96.9951 29.3941 96.9464 29.3742C96.8976 29.3543 96.8533 29.325 96.8159 29.2879L95.0719 27.5439C95.0301 27.5081 94.9961 27.4639 94.9721 27.4143C94.948 27.3647 94.9346 27.3106 94.9324 27.2555C94.9303 27.2005 94.9396 27.1455 94.9597 27.0942C94.9798 27.0429 95.0103 26.9962 95.0493 26.9573C95.0883 26.9183 95.1349 26.8878 95.1862 26.8677C95.2375 26.8476 95.2925 26.8383 95.3476 26.8404C95.4027 26.8425 95.4567 26.856 95.5063 26.88C95.556 26.904 95.6001 26.938 95.6359 26.9799L97.1279 28.4679L100.788 25.5039C100.828 25.4677 100.876 25.44 100.927 25.4226C100.978 25.4052 101.032 25.3984 101.087 25.4026C101.141 25.4068 101.193 25.422 101.241 25.4471C101.289 25.4723 101.332 25.507 101.366 25.5491C101.4 25.5911 101.425 25.6397 101.44 25.6918C101.455 25.744 101.459 25.7986 101.452 25.8523C101.445 25.9061 101.427 25.9579 101.4 26.0046C101.372 26.0513 101.336 26.0919 101.292 26.1239L97.3519 29.3239C97.2794 29.3784 97.1906 29.4066 97.0999 29.4039Z" fill="#00B2D0"/>
<path d="M148.048 17.772C148.152 17.8094 148.265 17.8121 148.37 17.7796C148.475 17.7471 148.567 17.6813 148.632 17.592L151.664 13.36C151.703 13.3067 151.731 13.2461 151.746 13.1818C151.762 13.1175 151.764 13.0508 151.753 12.9856C151.742 12.9203 151.719 12.8579 151.683 12.802C151.648 12.7461 151.602 12.6978 151.548 12.66C151.439 12.5831 151.305 12.5522 151.174 12.5739C151.043 12.5956 150.926 12.6683 150.848 12.776L147.816 17.008C147.777 17.0613 147.749 17.1219 147.733 17.1862C147.718 17.2505 147.716 17.3172 147.727 17.3824C147.737 17.4476 147.761 17.51 147.796 17.5659C147.832 17.6218 147.878 17.6701 147.932 17.708C147.967 17.7347 148.006 17.7562 148.048 17.772V17.772Z" fill="#00B2D0"/>
<path d="M151.632 23.3439C151.714 23.3739 151.802 23.3822 151.888 23.3679L156.916 22.5359C157.04 22.5063 157.148 22.4307 157.219 22.3245C157.289 22.2183 157.317 22.0893 157.296 21.9635C157.275 21.8378 157.207 21.7245 157.106 21.6467C157.006 21.5688 156.879 21.5321 156.752 21.5439L151.724 22.3759C151.615 22.3948 151.515 22.449 151.44 22.5301C151.365 22.6112 151.319 22.7148 151.308 22.8248C151.298 22.9348 151.324 23.0452 151.382 23.139C151.441 23.2329 151.529 23.3048 151.632 23.3439V23.3439Z" fill="#00B2D0"/>
<path d="M136.184 19.8439C136.298 19.8841 136.422 19.882 136.534 19.8382C136.647 19.7944 136.74 19.7118 136.796 19.6053C136.853 19.4988 136.87 19.3755 136.843 19.2578C136.817 19.1401 136.749 19.0359 136.652 18.9639L132.292 15.8399C132.185 15.7829 132.062 15.7662 131.944 15.793C131.827 15.8198 131.723 15.8882 131.652 15.9857C131.58 16.0832 131.547 16.2031 131.557 16.3234C131.568 16.4436 131.621 16.556 131.708 16.6399L136.068 19.7639C136.102 19.7963 136.141 19.8232 136.184 19.8439V19.8439Z" fill="#00B2D0"/>
<path d="M154.256 32.8C154.37 32.8424 154.496 32.842 154.61 32.799C154.723 32.7559 154.818 32.6731 154.875 32.5658C154.933 32.4585 154.95 32.3339 154.923 32.2152C154.896 32.0965 154.826 31.9917 154.728 31.92L150.628 28.98C150.574 28.9414 150.513 28.9138 150.449 28.8987C150.384 28.8836 150.317 28.8814 150.252 28.8922C150.186 28.903 150.124 28.9265 150.068 28.9615C150.011 28.9965 149.962 29.0422 149.924 29.096C149.885 29.1499 149.858 29.2108 149.843 29.2753C149.827 29.3398 149.825 29.4067 149.836 29.472C149.847 29.5374 149.87 29.6 149.905 29.6563C149.94 29.7126 149.986 29.7614 150.04 29.8L154.14 32.736C154.176 32.7619 154.215 32.7833 154.256 32.8Z" fill="#00B2D0"/>
<path d="M141.66 16.4C141.742 16.4304 141.831 16.4387 141.918 16.424C142.005 16.4094 142.086 16.3723 142.154 16.3165C142.222 16.2607 142.274 16.1881 142.305 16.1059C142.336 16.0237 142.346 15.9348 142.332 15.848L141.464 10.604C141.457 10.5351 141.437 10.4682 141.403 10.4076C141.37 10.347 141.325 10.2939 141.27 10.2517C141.215 10.2094 141.152 10.1789 141.085 10.162C141.018 10.1451 140.948 10.1422 140.88 10.1535C140.812 10.1648 140.746 10.19 140.688 10.2276C140.63 10.2652 140.58 10.3143 140.542 10.372C140.504 10.4296 140.478 10.4945 140.466 10.5627C140.454 10.6308 140.456 10.7007 140.472 10.768L141.34 16C141.352 16.0893 141.388 16.1736 141.445 16.2441C141.501 16.3145 141.575 16.3684 141.66 16.4V16.4Z" fill="#00B2D0"/>
<g opacity="0.5">
<path opacity="0.5" d="M148.048 17.772C148.152 17.8094 148.265 17.8121 148.37 17.7796C148.475 17.7471 148.567 17.6813 148.632 17.592L151.664 13.36C151.703 13.3067 151.731 13.2461 151.746 13.1818C151.762 13.1175 151.764 13.0508 151.753 12.9856C151.742 12.9203 151.719 12.8579 151.683 12.802C151.648 12.7461 151.602 12.6978 151.548 12.66C151.439 12.5831 151.305 12.5522 151.174 12.5739C151.043 12.5956 150.926 12.6683 150.848 12.776L147.816 17.008C147.777 17.0613 147.749 17.1219 147.733 17.1862C147.718 17.2505 147.716 17.3172 147.727 17.3824C147.737 17.4476 147.761 17.51 147.796 17.5659C147.832 17.6218 147.878 17.6701 147.932 17.708C147.967 17.7347 148.006 17.7562 148.048 17.772V17.772Z" fill="white"/>
<path opacity="0.5" d="M151.632 23.3439C151.714 23.3739 151.802 23.3822 151.888 23.3679L156.916 22.5359C157.04 22.5063 157.148 22.4307 157.219 22.3245C157.289 22.2183 157.317 22.0893 157.296 21.9635C157.275 21.8378 157.207 21.7245 157.106 21.6467C157.006 21.5688 156.879 21.5321 156.752 21.5439L151.724 22.3759C151.615 22.3948 151.515 22.449 151.44 22.5301C151.365 22.6112 151.319 22.7148 151.308 22.8248C151.298 22.9348 151.324 23.0452 151.382 23.139C151.441 23.2329 151.529 23.3048 151.632 23.3439V23.3439Z" fill="white"/>
<path opacity="0.5" d="M136.184 19.8439C136.298 19.8841 136.422 19.882 136.534 19.8382C136.647 19.7944 136.74 19.7118 136.796 19.6053C136.853 19.4988 136.87 19.3755 136.843 19.2578C136.817 19.1401 136.749 19.0359 136.652 18.9639L132.292 15.8399C132.185 15.7829 132.062 15.7662 131.944 15.793C131.827 15.8198 131.723 15.8882 131.652 15.9857C131.58 16.0832 131.547 16.2031 131.557 16.3234C131.568 16.4436 131.621 16.556 131.708 16.6399L136.068 19.7639C136.102 19.7963 136.141 19.8232 136.184 19.8439V19.8439Z" fill="white"/>
<path opacity="0.5" d="M154.256 32.8C154.37 32.8424 154.496 32.842 154.61 32.799C154.723 32.7559 154.818 32.6731 154.875 32.5658C154.933 32.4585 154.95 32.3339 154.923 32.2152C154.896 32.0965 154.826 31.9917 154.728 31.92L150.628 28.98C150.574 28.9414 150.513 28.9138 150.449 28.8987C150.384 28.8836 150.317 28.8814 150.252 28.8922C150.186 28.903 150.124 28.9265 150.068 28.9615C150.011 28.9965 149.962 29.0422 149.924 29.096C149.885 29.1499 149.858 29.2108 149.843 29.2753C149.827 29.3398 149.825 29.4067 149.836 29.472C149.847 29.5374 149.87 29.6 149.905 29.6563C149.94 29.7126 149.986 29.7614 150.04 29.8L154.14 32.736C154.176 32.7619 154.215 32.7833 154.256 32.8Z" fill="white"/>
<path opacity="0.5" d="M141.66 16.4C141.742 16.4304 141.831 16.4387 141.918 16.424C142.005 16.4094 142.086 16.3723 142.154 16.3165C142.222 16.2607 142.274 16.1881 142.305 16.1059C142.336 16.0237 142.346 15.9348 142.332 15.848L141.464 10.604C141.457 10.5351 141.437 10.4682 141.403 10.4076C141.37 10.347 141.325 10.2939 141.27 10.2517C141.215 10.2094 141.152 10.1789 141.085 10.162C141.018 10.1451 140.948 10.1422 140.88 10.1535C140.812 10.1648 140.746 10.19 140.688 10.2276C140.63 10.2652 140.58 10.3143 140.542 10.372C140.504 10.4296 140.478 10.4945 140.466 10.5627C140.454 10.6308 140.456 10.7007 140.472 10.768L141.34 16C141.352 16.0893 141.388 16.1736 141.445 16.2441C141.501 16.3145 141.575 16.3684 141.66 16.4V16.4Z" fill="white"/>
</g>
<path d="M137.292 21.276C138.387 19.9234 139.958 19.042 141.683 18.8132C143.409 18.5844 145.156 19.0257 146.565 20.0462C147.975 21.0667 148.939 22.5888 149.261 24.299C149.582 26.0093 149.235 27.7777 148.292 29.24C146.692 31.444 143.864 31.664 141.492 32.608C140.756 32.9 139.332 34.948 139.332 34.948L134.668 31.568C134.668 31.568 136.168 29.568 136.216 28.788C136.372 26.24 135.696 23.48 137.292 21.276Z" fill="#00B2D0"/>
<path opacity="0.4" d="M137.292 21.276C138.387 19.9234 139.958 19.042 141.683 18.8132C143.409 18.5844 145.156 19.0257 146.565 20.0462C147.975 21.0667 148.939 22.5888 149.261 24.299C149.582 26.0093 149.235 27.7777 148.292 29.24C146.692 31.444 143.864 31.664 141.492 32.608C140.756 32.9 139.332 34.948 139.332 34.948L134.668 31.568C134.668 31.568 136.168 29.568 136.216 28.788C136.372 26.24 135.696 23.48 137.292 21.276Z" fill="white"/>
<path d="M134.8 34.188L136.8 35.628C136.976 35.7555 137.175 35.8471 137.386 35.8976C137.597 35.9481 137.816 35.9565 138.03 35.9223C138.245 35.8881 138.45 35.812 138.635 35.6984C138.82 35.5848 138.981 35.4358 139.108 35.26L134.44 31.884C134.184 32.2379 134.078 32.6786 134.146 33.1101C134.213 33.5417 134.448 33.9291 134.8 34.188V34.188Z" fill="#263238"/>
<path d="M134.8 36.3119C135.089 36.5209 135.449 36.6067 135.802 36.5505C136.154 36.4943 136.47 36.3006 136.68 36.0119V36.0119L134.5 34.4319C134.291 34.7211 134.205 35.0815 134.261 35.4339C134.317 35.7863 134.511 36.1021 134.8 36.3119Z" fill="#263238"/>
<path opacity="0.5" d="M134.8 36.3119C135.089 36.5209 135.449 36.6067 135.802 36.5505C136.154 36.4943 136.47 36.3006 136.68 36.0119V36.0119L134.5 34.4319C134.291 34.7211 134.205 35.0815 134.261 35.4339C134.317 35.7863 134.511 36.1021 134.8 36.3119Z" fill="white"/>
<g opacity="0.7">
<path opacity="0.7" d="M134.8 34.188L136.8 35.628C136.976 35.7555 137.175 35.8471 137.386 35.8976C137.597 35.9481 137.816 35.9565 138.03 35.9223C138.245 35.8881 138.45 35.812 138.635 35.6984C138.82 35.5848 138.981 35.4358 139.108 35.26L134.44 31.884C134.184 32.2379 134.078 32.6786 134.146 33.1101C134.213 33.5417 134.448 33.9291 134.8 34.188V34.188Z" fill="white"/>
</g>
<path opacity="0.3" d="M138.68 20.7239C136.188 24.1999 135.544 29.6959 138.228 31.6159C140.912 33.5359 146.228 30.6959 148.396 27.6879C149.724 25.8359 148.628 22.7719 145.944 20.8519C143.26 18.9319 140 18.8719 138.68 20.7239Z" fill="white"/>
<path opacity="0.4" d="M137.964 25.3321C137.519 25.951 137.268 26.6879 137.243 27.4495C137.217 28.2111 137.418 28.9632 137.82 29.6107C138.221 30.2582 138.806 30.7719 139.5 31.0869C140.194 31.4019 140.966 31.5039 141.718 31.3802C142.47 31.2565 143.168 30.9125 143.724 30.3917C144.281 29.871 144.67 29.197 144.844 28.4549C145.017 27.7128 144.966 26.9359 144.698 26.2227C144.429 25.5095 143.955 24.8919 143.336 24.4481C142.506 23.8535 141.474 23.6127 140.467 23.7784C139.46 23.9442 138.559 24.503 137.964 25.3321V25.3321Z" fill="white"/>
<path opacity="0.4" d="M138.356 26.7999C137.484 27.9999 138.204 29.0879 139.42 29.9599C140.636 30.8319 141.88 31.1599 142.752 29.9599C143.624 28.7599 142.888 27.6879 141.676 26.8159C140.464 25.9439 139.224 25.5999 138.356 26.7999Z" fill="white"/>
<path d="M42.6641 35.3L44.0281 36.436L51.9161 29.696L61.9881 31.732L69.6641 24.492L70.3521 25.436L72.1721 21.332L67.7081 21.808L68.3961 22.752L61.6601 30.212L51.5761 28.252L42.6641 35.3Z" fill="#00B2D0"/>
<g opacity="0.3">
<path opacity="0.3" d="M42.6641 35.3L44.0281 36.436L51.9161 29.696L61.9881 31.732L69.6641 24.492L70.3521 25.436L72.1721 21.332L67.7081 21.808L68.3961 22.752L61.6601 30.212L51.5761 28.252L42.6641 35.3Z" fill="white"/>
</g>
<path d="M117.24 94.288C117.472 97.912 116.576 102.576 115.72 106.052C115.012 108.924 114.52 109.716 114.332 110.988C114.128 112.436 114.568 114.588 114.456 116.408C114.028 123.608 111.1 138.168 111.1 138.168L108.644 138.012L108.708 109.824L110.308 82.512L120 85.096C120.968 90.4 117.24 94.288 117.24 94.288Z" fill="#DD8C6A"/>
<path d="M129.712 138.668L127.48 138.604L121.284 111.084L115.02 84.456L125.064 84.156C127.464 88.956 125.028 93.756 125.028 93.756C126.28 97.168 126.756 101.892 126.928 105.472C127.072 108.424 126.812 109.328 127.004 110.596C127.228 112.044 127.932 113.968 128.352 115.756C130 122.852 129.712 138.668 129.712 138.668Z" fill="#DD8C6A"/>
<path d="M97 59.836L98.168 61.372C99.332 61.732 99.308 63.464 99.308 63.464C99.56 63.66 101.928 65.156 102.48 65.64L101.084 67.144C100.48 66.22 98.38 64.656 98.38 64.656C98.38 64.656 95.524 62.908 95.056 62.284C94.588 61.66 95.368 59.804 95.368 59.804L97 59.836Z" fill="#DD8C6A"/>
<path d="M100.232 63.62C102.148 65.016 104.976 67.156 104.976 67.156C106.482 65.4919 108.071 63.9046 109.736 62.4C110.769 61.4201 111.95 60.6101 113.236 60L112.744 65.756C111.228 67.06 106.476 71.004 104.62 70.844C103.088 70.712 100.244 67.428 98.62 65.396L100.232 63.62Z" fill="#263238"/>
<path opacity="0.2" d="M108.06 69.3241C109.072 67.6161 111.848 63.1321 111.848 63.1321L112.512 64.6401L112.064 66.2961C111.36 66.8881 109.076 68.5841 108.06 69.3241Z" fill="black"/>
<path d="M126.284 62.9121C125.877 68.1831 125.121 73.4213 124.02 78.5921C124.02 78.5921 129.88 83.3921 127.98 103.108C127.98 103.108 122.052 105.732 108.06 102.612L110.72 78.5041C110.72 78.5041 110.104 62.8361 111.768 61.0881C113.24 59.5361 119.66 57.4881 124.568 59.9201C125.119 60.1919 125.576 60.6217 125.882 61.1546C126.188 61.6875 126.327 62.2993 126.284 62.9121V62.9121Z" fill="#00B2D0"/>
<path opacity="0.4" d="M126.284 62.9121C125.877 68.1831 125.121 73.4213 124.02 78.5921C124.02 78.5921 129.88 83.3921 127.98 103.108C127.98 103.108 122.052 105.732 108.06 102.612L110.72 78.5041C110.72 78.5041 110.104 62.8361 111.768 61.0881C113.24 59.5361 119.66 57.4881 124.568 59.9201C125.119 60.1919 125.576 60.6217 125.882 61.1546C126.188 61.6875 126.327 62.2993 126.284 62.9121V62.9121Z" fill="black"/>
<path opacity="0.3" d="M119.472 78.064C119.472 78.064 115.18 78.808 112.164 78.064V79.904C112.164 79.904 114.408 80.228 119.472 79.904V78.064Z" fill="black"/>
<path d="M121.968 53.2C121.4 54.8 120.66 57.6599 121.268 59.3039C121.34 59.495 121.345 59.705 121.282 59.8993C121.219 60.0935 121.091 60.2603 120.92 60.3719C119.684 61.2639 117.672 61.9719 116.16 61.8239C114.22 61.6119 114.724 60.224 115.22 59.484C115.352 59.284 115.56 59 115.796 58.956C117.704 58.632 118.068 57.2 117.92 55.756L121.968 53.2Z" fill="#DD8C6A"/>
<path opacity="0.3" d="M120.32 54.2439L117.92 55.7439C117.952 56.0978 117.952 56.454 117.92 56.8079C118.401 56.7933 118.871 56.6614 119.289 56.4237C119.707 56.186 120.061 55.8496 120.32 55.4439C120.6 54.9359 120.516 54.3359 120.32 54.2439Z" fill="black"/>
<path d="M115.668 54.02L114.584 55.968C114.92 55.996 115.224 56.108 115.56 56.136C115.728 55.872 115.928 55.612 116.096 55.336C116.032 55.608 115.812 55.9 115.744 56.168C116.341 56.2777 116.945 56.3353 117.552 56.34C117.582 56.2505 117.594 56.1557 117.587 56.0615C117.579 55.9672 117.552 55.8755 117.508 55.792C117.187 55.0686 116.62 54.482 115.908 54.136L115.668 54.02Z" fill="#263238"/>
<path d="M122.724 50.572C122.024 53.064 121.74 54.572 120.184 55.58C117.844 57.116 114.984 55.28 114.916 52.632C114.864 50.232 116.02 46.568 118.708 46.1C119.627 45.9368 120.574 46.1444 121.341 46.6774C122.108 47.2103 122.632 48.0253 122.8 48.944C122.899 49.4854 122.873 50.0423 122.724 50.572Z" fill="#DD8C6A"/>
<path d="M116.88 50.572C116.579 51.0415 116.216 51.4681 115.8 51.84C115.899 51.9432 116.018 52.0241 116.151 52.0772C116.283 52.1303 116.425 52.1545 116.568 52.148L116.88 50.572Z" fill="#FF5652"/>
<path d="M119.62 49.656C119.64 49.66 119.66 49.66 119.68 49.656C119.709 49.6414 119.731 49.6163 119.742 49.5859C119.753 49.5554 119.753 49.5219 119.74 49.492C119.661 49.3123 119.54 49.154 119.388 49.0302C119.236 48.9064 119.056 48.8206 118.864 48.78C118.832 48.7755 118.799 48.7838 118.773 48.8033C118.746 48.8227 118.729 48.8518 118.724 48.884C118.719 48.9164 118.728 48.9492 118.747 48.9754C118.767 49.0016 118.796 49.0191 118.828 49.024V49.024C118.979 49.0588 119.121 49.1287 119.24 49.2281C119.36 49.3274 119.454 49.4535 119.516 49.596C119.527 49.6143 119.542 49.6294 119.56 49.64C119.578 49.6505 119.599 49.6561 119.62 49.656V49.656Z" fill="#263238"/>
<path d="M115.688 48.4799C115.706 48.4908 115.727 48.4966 115.748 48.4966C115.769 48.4966 115.79 48.4908 115.808 48.4799C115.939 48.3992 116.088 48.351 116.242 48.3392C116.395 48.3274 116.55 48.3523 116.692 48.4119C116.721 48.4258 116.755 48.4277 116.785 48.4173C116.816 48.4068 116.841 48.3848 116.856 48.3559C116.864 48.3417 116.868 48.3262 116.87 48.3103C116.871 48.2943 116.869 48.2782 116.865 48.2629C116.86 48.2476 116.852 48.2334 116.841 48.2212C116.831 48.209 116.818 48.1991 116.804 48.1919C116.624 48.1133 116.427 48.0789 116.231 48.0914C116.035 48.1039 115.845 48.163 115.676 48.2639C115.662 48.2714 115.65 48.2816 115.64 48.294C115.63 48.3064 115.622 48.3206 115.618 48.3358C115.613 48.3511 115.612 48.3671 115.614 48.3829C115.615 48.3987 115.62 48.414 115.628 48.4279V48.4279C115.643 48.4504 115.664 48.4683 115.688 48.4799V48.4799Z" fill="#263238"/>
<path d="M121.176 58.488L118.376 60.656C118.257 60.7488 118.118 60.8128 117.97 60.8429C117.822 60.8731 117.669 60.8686 117.523 60.8299C117.377 60.7912 117.242 60.7192 117.128 60.6197C117.015 60.5201 116.926 60.3957 116.868 60.256L116.232 58.8L115.488 58.992C115.403 59.0123 115.325 59.056 115.264 59.1183C115.202 59.1805 115.159 59.2587 115.14 59.344C114.992 60.028 114.448 61.7 114.48 63.2C114.48 63.2 116.196 60.904 117.164 62.556C117.164 62.556 118.428 61.064 119.448 63.644C120.101 62.7058 120.679 61.7174 121.176 60.688C121.7 59.464 122.052 58.8 122.052 58.8L121.176 58.488Z" fill="white"/>
<path d="M121.512 58.6121C120.286 63.9089 119.45 69.2887 119.012 74.7081C118.448 82.8201 118.332 85.2721 121.54 84.9201C124.748 84.5681 127.376 84.1641 126.908 82.9961C126.44 81.8281 124.692 79.2001 124.8 77.8601C124.908 76.5201 126.024 66.0761 126.152 64.4961C126.28 62.9161 127.232 59.6001 121.512 58.6121Z" fill="#263238"/>
<path d="M122.06 80.7039C122.02 80.4879 122.788 79.7079 123.66 79.1639C124.241 78.8171 124.858 78.5342 125.5 78.3199C125.5 78.3199 127.292 76.2119 127.788 75.6399L129.172 76.8399C128.27 77.6701 127.412 78.5459 126.6 79.4639L125.856 81.0359C125.588 81.4152 125.229 81.7207 124.812 81.9239C124.343 82.1417 123.854 82.3145 123.352 82.4399C123.255 82.4654 123.153 82.4593 123.06 82.4226C122.968 82.3859 122.889 82.3205 122.836 82.2359C122.502 81.767 122.24 81.2506 122.06 80.7039V80.7039Z" fill="#DD8C6A"/>
<path d="M115.884 58.884C115.884 58.884 113.256 63.828 113.084 72.084C112.912 80.34 113.272 84.716 111.744 84.968C110.216 85.22 109.876 84.168 109.876 84.168C109.876 84.168 110.328 79.688 110.328 78.596C110.328 77.504 109.848 70.892 110.328 66.168C110.808 61.444 110.328 61.732 111.128 61.204C111.928 60.676 113.74 59.32 115.884 58.884Z" fill="#263238"/>
<path opacity="0.2" d="M125.26 73.3961L123.684 64.3521C123.684 64.3521 124.984 65.676 125.948 66.692C125.764 68.54 125.492 71.1481 125.26 73.3961Z" fill="black"/>
<path d="M124.544 59.6479C124.544 59.6479 123.476 62.372 123.684 64.352C123.772 65.192 129.74 71.5919 129.74 71.5919L125.24 77.5599L127.56 79.5599C127.56 79.5599 133.96 73.224 134.012 71.508C134.064 69.792 126.948 60.3719 124.544 59.6479Z" fill="#263238"/>
<path d="M118.712 50.2759C118.672 50.4839 118.528 50.6279 118.392 50.6039C118.256 50.5799 118.176 50.3879 118.22 50.1759C118.264 49.9639 118.404 49.8239 118.54 49.8479C118.676 49.8719 118.752 50.0639 118.712 50.2759Z" fill="#263238"/>
<path d="M116.356 49.8119C116.316 50.0199 116.172 50.1679 116.036 50.1399C115.9 50.1119 115.824 49.9239 115.864 49.7159C115.904 49.5079 116.048 49.3599 116.184 49.3879C116.32 49.4159 116.4 49.5999 116.356 49.8119Z" fill="#263238"/>
<path d="M116.24 49.408L115.768 49.168C115.768 49.168 115.952 49.6 116.24 49.408Z" fill="#263238"/>
<path d="M118.596 49.8721L118.124 49.6321C118.124 49.6321 118.308 50.0721 118.596 49.8721Z" fill="#263238"/>
<path d="M117.252 53.308C117.119 53.3186 116.985 53.3186 116.852 53.308C116.843 53.3081 116.834 53.3062 116.825 53.3025C116.817 53.2988 116.81 53.2933 116.804 53.2865C116.798 53.2797 116.793 53.2717 116.79 53.263C116.788 53.2542 116.787 53.245 116.788 53.236V53.236C116.789 53.2187 116.797 53.2024 116.809 53.1905C116.822 53.1786 116.839 53.172 116.856 53.172C117.143 53.1969 117.432 53.1546 117.7 53.0483C117.968 52.9421 118.208 52.7749 118.4 52.56C118.406 52.5532 118.413 52.5477 118.422 52.544C118.43 52.5403 118.439 52.5383 118.448 52.5383C118.457 52.5383 118.466 52.5403 118.474 52.544C118.483 52.5477 118.49 52.5532 118.496 52.56C118.509 52.5727 118.516 52.59 118.516 52.608C118.516 52.626 118.509 52.6433 118.496 52.656C118.179 53.023 117.734 53.256 117.252 53.308Z" fill="#263238"/>
<path d="M121.236 45.7C122.464 49.2118 122.289 53.0618 120.748 56.4479C121.096 56.3439 121.468 56.264 121.812 56.164C121.98 55.72 122.112 55.264 122.28 54.824C122.224 55.224 122.116 55.72 122.06 56.14L123 55.968C123.164 55.54 123.3 55.06 123.464 54.632C123.392 55.012 123.312 55.544 123.236 55.924C124.326 55.1806 125.096 54.0537 125.392 52.768C125.695 51.3445 125.509 49.8607 124.864 48.556C124.088 47.2 122.732 46.644 121.236 45.7Z" fill="#263238"/>
<path d="M123.6 52.6119C123.407 53.2362 122.976 53.7593 122.4 54.0679C121.636 54.4679 121.072 53.8359 121.132 53.0199C121.18 52.2879 121.64 51.1919 122.48 51.1199C122.666 51.1052 122.852 51.1375 123.022 51.2141C123.191 51.2906 123.339 51.4088 123.451 51.5577C123.562 51.7066 123.635 51.8813 123.661 52.0656C123.687 52.2499 123.666 52.4379 123.6 52.6119V52.6119Z" fill="#DD8C6A"/>
<path d="M115.9 65.1358C115.778 65.1351 115.657 65.1064 115.548 65.0518C115.423 64.9895 115.315 64.8988 115.231 64.7869C115.148 64.6751 115.092 64.5452 115.068 64.4078C115.044 64.1751 115.089 63.9405 115.197 63.733C115.305 63.5255 115.472 63.3541 115.676 63.2398C116.036 63.032 116.432 62.8961 116.844 62.8398H116.892H117.216C117.268 62.8429 117.317 62.8657 117.353 62.9037C117.388 62.9416 117.408 62.9918 117.408 63.0438C117.407 63.0955 117.386 63.1448 117.349 63.1813C117.313 63.2178 117.264 63.2388 117.212 63.2398C117.016 63.2398 116.78 63.6398 116.732 63.9638V64.0118C116.732 64.2096 116.686 64.4047 116.598 64.5817C116.51 64.7587 116.382 64.9128 116.224 65.0318C116.127 65.0934 116.015 65.1292 115.9 65.1358V65.1358ZM116.568 63.3198C116.329 63.3639 116.1 63.4506 115.892 63.5758C115.756 63.653 115.645 63.7657 115.569 63.9017C115.492 64.0378 115.455 64.192 115.46 64.3478C115.475 64.4219 115.507 64.4915 115.554 64.5512C115.6 64.6108 115.66 64.659 115.728 64.6918C115.773 64.7163 115.824 64.7292 115.876 64.7292C115.928 64.7292 115.978 64.7163 116.024 64.6918C116.232 64.5838 116.28 64.2678 116.328 63.9638V63.9158C116.369 63.7035 116.45 63.501 116.568 63.3198V63.3198Z" fill="white"/>
<path d="M118.344 65.2678C118.209 65.2681 118.076 65.2277 117.964 65.1518C117.818 65.0182 117.705 64.8517 117.635 64.666C117.566 64.4803 117.541 64.2808 117.564 64.0838V64.0358C117.564 63.7198 117.356 63.2918 117.164 63.2638C117.113 63.2578 117.066 63.2317 117.034 63.1913C117.001 63.1508 116.986 63.0993 116.992 63.0478C116.996 62.9965 117.02 62.9489 117.059 62.9152C117.098 62.8815 117.149 62.8645 117.2 62.8678H117.524H117.572C117.976 62.9654 118.357 63.1392 118.696 63.3798C118.886 63.5155 119.032 63.7036 119.116 63.9209C119.201 64.1383 119.22 64.3756 119.172 64.6038C119.135 64.7386 119.065 64.8624 118.97 64.9647C118.874 65.0671 118.756 65.145 118.624 65.1918C118.536 65.2346 118.441 65.2604 118.344 65.2678V65.2678ZM117.8 63.3838C117.895 63.582 117.951 63.7966 117.964 64.0158V64.0678C117.964 64.3718 117.996 64.6878 118.188 64.8238C118.232 64.8502 118.282 64.8657 118.334 64.8692C118.385 64.8727 118.437 64.864 118.484 64.8438C118.556 64.818 118.62 64.776 118.673 64.7213C118.726 64.6665 118.765 64.6003 118.788 64.5278C118.809 64.3758 118.788 64.221 118.727 64.08C118.667 63.9391 118.569 63.8173 118.444 63.7278C118.25 63.5779 118.032 63.4616 117.8 63.3838V63.3838Z" fill="white"/>
<path d="M116 67.2958C115.979 67.3 115.957 67.3 115.936 67.2958C115.886 67.2794 115.844 67.2436 115.82 67.1963C115.796 67.1491 115.792 67.0942 115.808 67.0438C116.206 65.8071 116.474 64.5322 116.608 63.2398C116.613 63.1868 116.639 63.138 116.681 63.1043C116.722 63.0705 116.775 63.0545 116.828 63.0598C116.881 63.0651 116.93 63.0913 116.963 63.1326C116.997 63.1738 117.013 63.2268 117.008 63.2798C116.876 64.5999 116.607 65.9028 116.208 67.1678C116.192 67.2092 116.163 67.2441 116.126 67.2673C116.088 67.2904 116.044 67.3005 116 67.2958V67.2958Z" fill="white"/>
<path d="M117.6 68.292C117.561 68.2918 117.522 68.2799 117.489 68.2578C117.456 68.2358 117.431 68.2045 117.416 68.168C117.26 67.7666 117.173 67.3421 117.156 66.912C117.155 66.475 117.191 66.0388 117.264 65.608C117.296 65.392 117.328 65.176 117.348 64.96C117.449 64.3618 117.34 63.747 117.04 63.22C117.025 63.1982 117.015 63.1737 117.01 63.1479C117.005 63.1221 117.004 63.0956 117.009 63.0698C117.014 63.044 117.024 63.0194 117.039 62.9975C117.053 62.9755 117.072 62.9567 117.094 62.942C117.116 62.9273 117.14 62.917 117.166 62.9117C117.192 62.9065 117.218 62.9064 117.244 62.9114C117.27 62.9164 117.295 62.9265 117.316 62.941C117.338 62.9555 117.357 62.9742 117.372 62.996C117.726 63.5987 117.857 64.3063 117.744 64.996C117.724 65.22 117.692 65.444 117.66 65.664C117.59 66.0709 117.556 66.4831 117.556 66.896C117.571 67.2809 117.649 67.6607 117.788 68.02C117.807 68.0694 117.805 68.1241 117.784 68.1726C117.764 68.221 117.725 68.2595 117.676 68.28C117.651 68.2882 117.626 68.2922 117.6 68.292V68.292Z" fill="white"/>
<path d="M121.044 50.288C120.828 50.092 120.524 49.848 120.308 49.648C120.41 49.2132 120.445 48.7653 120.412 48.32C120.312 48.672 120.28 49.032 120.18 49.384L119.444 48.896C119.269 48.7523 119.054 48.6657 118.828 48.648C118.868 48.284 118.884 47.912 118.928 47.548C118.844 47.872 118.748 48.232 118.668 48.556C118.38 48.516 118.048 48.448 117.764 48.408C117.796 48.008 117.844 47.64 117.88 47.252C117.756 47.556 117.668 48.076 117.544 48.38L117.46 48.264C116.641 48.0635 115.792 48.016 114.956 48.124C114.676 47.024 115.012 45.468 116.092 45.112C119.752 43.892 122.748 46.748 122.832 46.984C123.38 48.492 122.368 49.492 121.044 50.288Z" fill="#263238"/>
<path d="M122.4 53.36C122.4 53.4288 122.38 53.4961 122.341 53.5533C122.303 53.6105 122.249 53.6551 122.185 53.6815C122.122 53.7078 122.052 53.7147 121.984 53.7013C121.917 53.6878 121.855 53.6547 121.806 53.606C121.757 53.5574 121.724 53.4954 121.711 53.4279C121.697 53.3604 121.704 53.2904 121.73 53.2268C121.757 53.1632 121.801 53.1089 121.859 53.0706C121.916 53.0324 121.983 53.012 122.052 53.012C122.144 53.012 122.233 53.0486 122.298 53.1139C122.363 53.1792 122.4 53.2677 122.4 53.36V53.36Z" fill="#00B2D0"/>
<path d="M107.808 137.512C105.876 138.572 105.66 138.592 103.528 138.996C103.06 139.084 103.224 140.196 104.328 140.22C106.132 140.276 105.98 140.22 107.528 140.252C108.84 140.284 110.42 140.396 111.464 140.44H111.5C111.614 140.432 111.72 140.379 111.795 140.292C111.87 140.206 111.908 140.094 111.9 139.98L111.672 137.604C111.665 137.554 111.641 137.507 111.604 137.473C111.567 137.438 111.519 137.418 111.468 137.416L108.492 137.332C108.252 137.329 108.015 137.391 107.808 137.512V137.512Z" fill="#263238"/>
<path d="M107.82 137.692C107.826 137.682 107.829 137.671 107.829 137.66C107.829 137.649 107.826 137.638 107.82 137.628C107.81 137.621 107.798 137.617 107.786 137.617C107.774 137.617 107.762 137.621 107.752 137.628C107.624 137.672 106.512 138.112 106.428 138.468C106.42 138.502 106.421 138.537 106.43 138.57C106.439 138.604 106.456 138.635 106.48 138.66V138.66C106.519 138.702 106.567 138.734 106.62 138.754C106.674 138.774 106.731 138.782 106.788 138.776C107.188 138.732 107.608 138.096 107.828 137.72L107.82 137.692ZM106.544 138.456C106.624 138.26 107.18 137.98 107.608 137.796C107.292 138.3 106.976 138.596 106.76 138.632C106.723 138.637 106.684 138.633 106.649 138.619C106.614 138.605 106.583 138.582 106.56 138.552C106.549 138.544 106.541 138.532 106.537 138.52C106.533 138.507 106.532 138.493 106.536 138.48L106.544 138.456Z" fill="#00B2D0"/>
<path d="M107.82 137.692C107.823 137.681 107.822 137.669 107.818 137.658C107.813 137.647 107.806 137.638 107.796 137.632C107.499 137.399 107.137 137.266 106.76 137.252C106.697 137.26 106.637 137.281 106.582 137.313C106.528 137.345 106.481 137.389 106.444 137.44V137.44C106.344 137.58 106.372 137.676 106.42 137.732C106.616 137.976 107.464 137.88 107.784 137.732C107.793 137.729 107.801 137.724 107.807 137.717C107.813 137.71 107.818 137.701 107.82 137.692V137.692ZM106.516 137.56L106.56 137.512C106.586 137.474 106.62 137.442 106.659 137.418C106.699 137.394 106.742 137.378 106.788 137.372C107.093 137.379 107.389 137.48 107.636 137.66C107.268 137.772 106.644 137.792 106.528 137.66C106.528 137.66 106.5 137.628 106.528 137.58L106.516 137.56Z" fill="#00B2D0"/>
<path d="M126.444 137.7C125.353 138.594 124.072 139.227 122.7 139.552C122.132 139.712 122.488 140.752 123.848 140.752C126.1 140.716 125.204 140.68 127.128 140.636C128.772 140.604 129.208 140.592 130.512 140.584H130.556C130.622 140.583 130.687 140.568 130.747 140.541C130.807 140.513 130.862 140.474 130.906 140.426C130.951 140.377 130.986 140.32 131.008 140.258C131.03 140.196 131.04 140.13 131.036 140.064L130.6 137.512C130.586 137.454 130.552 137.403 130.503 137.368C130.455 137.332 130.396 137.316 130.336 137.32L126.9 137.412C126.6 137.376 126.676 137.536 126.444 137.7Z" fill="#263238"/>
<path d="M126.428 137.9C126.436 137.89 126.44 137.877 126.44 137.864C126.44 137.851 126.436 137.838 126.428 137.828C126.423 137.815 126.414 137.803 126.403 137.795C126.392 137.786 126.378 137.781 126.364 137.78C126.192 137.78 124.7 137.828 124.464 138.18C124.444 138.212 124.433 138.248 124.433 138.286C124.433 138.324 124.444 138.36 124.464 138.392C124.496 138.451 124.541 138.502 124.596 138.542C124.651 138.581 124.714 138.608 124.78 138.62C125.252 138.716 126.02 138.22 126.444 137.912L126.428 137.9ZM124.604 138.22C124.776 138.044 125.548 137.956 126.128 137.928C125.544 138.328 125.044 138.524 124.784 138.48C124.74 138.473 124.699 138.455 124.664 138.429C124.628 138.402 124.6 138.368 124.58 138.328C124.571 138.316 124.566 138.301 124.566 138.286C124.566 138.271 124.571 138.256 124.58 138.244L124.604 138.22Z" fill="#00B2D0"/>
<path d="M126.428 137.9C126.435 137.89 126.439 137.878 126.439 137.866C126.439 137.854 126.435 137.842 126.428 137.832C126.4 137.812 125.9 137.16 125.364 137.076C125.21 137.047 125.05 137.075 124.916 137.156V137.156C124.736 137.264 124.732 137.372 124.764 137.444C124.892 137.756 125.932 137.968 126.364 137.94C126.377 137.939 126.39 137.935 126.401 137.928C126.412 137.921 126.421 137.911 126.428 137.9V137.9ZM124.944 137.296L124.996 137.244C125.095 137.186 125.211 137.166 125.324 137.188C125.67 137.293 125.976 137.5 126.204 137.78C125.72 137.76 124.98 137.564 124.904 137.38C124.904 137.38 124.904 137.336 124.956 137.292L124.944 137.296Z" fill="#00B2D0"/>
<path d="M91.2322 74.5159C90.6682 75.6279 92.5442 76.9919 92.5442 76.9919L93.4322 77.8999C93.5777 78.0583 93.7766 78.1574 93.9907 78.1781C94.2049 78.1988 94.4191 78.1396 94.5922 78.0119L95.4682 77.3879L95.4962 77.3679C95.6762 77.2304 95.7956 77.0283 95.8292 76.8043C95.8628 76.5803 95.8079 76.3521 95.6762 76.1679L95.0882 75.3679C94.8501 75.0403 94.5446 74.7675 94.1922 74.5679L92.5082 73.5999L91.2322 74.5159Z" fill="#FFC3BD"/>
<path d="M83.9162 50.1518C84.1286 49.6829 84.4742 49.2869 84.9101 49.013C85.3459 48.739 85.8526 48.5994 86.3672 48.6113C86.8819 48.6232 87.3816 48.7863 87.8042 49.0801C88.2269 49.3739 88.5538 49.7856 88.7442 50.2638L88.8002 50.4038C89.1461 51.3818 89.2824 52.4217 89.2002 53.4558C89.1762 54.4758 89.1442 55.5118 89.1602 56.4998C89.1762 57.4878 89.1602 61.0558 89.1922 62.0238C89.2242 62.9198 91.0362 66.9718 92.7922 72.8238C92.8279 72.9363 92.872 73.046 92.9242 73.1518L93.2482 73.7958C93.2482 73.7958 92.7642 74.1038 92.2682 74.3998C91.8666 74.7018 91.4268 74.9493 90.9602 75.1358C90.6994 74.8994 90.4839 74.6175 90.3242 74.3038C88.9242 72.0958 84.3522 63.9038 84.1122 62.7038C83.8762 61.5918 83.7122 57.9038 83.6082 56.7838C83.5042 55.6638 83.4242 54.5718 83.3922 53.4678C83.3676 52.9137 83.389 52.3584 83.4562 51.8078C83.5269 51.2348 83.6819 50.6754 83.9162 50.1478V50.1518Z" fill="#263238"/>
<path opacity="0.3" d="M83.9162 50.1518C84.1286 49.6829 84.4742 49.2869 84.9101 49.013C85.3459 48.739 85.8526 48.5994 86.3672 48.6113C86.8819 48.6232 87.3816 48.7863 87.8042 49.0801C88.2269 49.3739 88.5538 49.7856 88.7442 50.2638L88.8002 50.4038C89.1461 51.3818 89.2824 52.4217 89.2002 53.4558C89.1762 54.4758 89.1442 55.5118 89.1602 56.4998C89.1762 57.4878 89.1602 61.0558 89.1922 62.0238C89.2242 62.9198 91.0362 66.9718 92.7922 72.8238C92.8279 72.9363 92.872 73.046 92.9242 73.1518L93.2482 73.7958C93.2482 73.7958 92.7642 74.1038 92.2682 74.3998C91.8666 74.7018 91.4268 74.9493 90.9602 75.1358C90.6994 74.8994 90.4839 74.6175 90.3242 74.3038C88.9242 72.0958 84.3522 63.9038 84.1122 62.7038C83.8762 61.5918 83.7122 57.9038 83.6082 56.7838C83.5042 55.6638 83.4242 54.5718 83.3922 53.4678C83.3676 52.9137 83.389 52.3584 83.4562 51.8078C83.5269 51.2348 83.6819 50.6754 83.9162 50.1478V50.1518Z" fill="black"/>
<path d="M69.5522 51.5318C70.2362 59.4118 72.8522 63.8518 72.5002 70.1478C72.5002 70.1478 86.7002 70.4278 87.1882 70.4278C87.3962 58.8278 89.0522 59.7118 88.5442 52.3678C88.6322 49.9678 87.2602 48.4678 85.8722 48.2278L79.8242 46.9758L72.0282 48.3158C71.2868 48.4425 70.6204 48.8438 70.1615 49.4398C69.7027 50.0358 69.4851 50.7827 69.5522 51.5318Z" fill="#00B2D0"/>
<path d="M80.7042 123.68L82.5442 138.22L86.1282 137.964L85.1602 123.68H80.7042Z" fill="#FFC3BD"/>
<path d="M87.0003 108.284C87.3243 121.996 86.5323 133.748 86.5323 133.748L81.6963 134.076C81.6963 134.076 78.9723 116.284 80.0723 109.016C80.0203 107.488 78.2523 88.38 77.6443 84.768C76.5443 78.284 75.3683 73.8359 75.3683 73.8359L86.7483 73.2C86.7483 73.2 86.8003 99.6519 87.0003 108.284Z" fill="#00B2D0"/>
<g opacity="0.2">
<path opacity="0.2" d="M80.5083 78.8198C80.5083 78.8198 80.1403 93.8398 79.4843 102.076C79.1443 97.6238 78.2523 88.3798 77.6443 84.7678L80.5083 78.8198Z" fill="black"/>
</g>
<path d="M65.5643 123.948L64.0883 137.728L67.6603 137.34L70.2523 123.776L65.5643 123.948Z" fill="#FFC3BD"/>
<path d="M63.6403 133.7L69.1243 133.5C69.1243 133.5 73.7963 116.664 75.7683 107.768C77.6803 97.8519 81.2483 73.1039 81.2483 73.1039L72.1323 72.3999C67.2763 81.1719 69.0243 102.172 68.1643 108.052C64.0443 115.4 63.6403 133.7 63.6403 133.7Z" fill="#00B2D0"/>
<path d="M86.6562 68.7998H73.3082C73.3082 68.7998 71.1162 76.5238 71.1362 76.4478C71.1562 76.3718 86.8002 77.1998 86.8002 77.1998L86.6562 68.7998Z" fill="#00B2D0"/>
<path d="M86.8003 136.8C89.1683 138 89.4283 138.024 92.0003 138.432C92.5683 138.524 92.4003 139.868 91.0923 139.94C88.9203 140.072 89.0923 139.984 87.2483 140.088C85.6683 140.176 83.3803 140.364 82.1203 140.456H82.0803C82.0115 140.454 81.9437 140.438 81.8809 140.41C81.8181 140.382 81.7615 140.341 81.7144 140.291C81.6672 140.241 81.6304 140.182 81.606 140.118C81.5816 140.053 81.5701 139.985 81.5723 139.916L81.7643 137.04C81.7699 136.979 81.7972 136.922 81.8413 136.879C81.8853 136.837 81.9431 136.812 82.0043 136.808L85.9763 136.604C86.2641 136.589 86.5502 136.657 86.8003 136.8V136.8Z" fill="#263238"/>
<path d="M86.8002 137.008C87.0802 137.456 87.6242 138.208 88.0922 138.244C88.1612 138.25 88.2307 138.239 88.2948 138.213C88.3588 138.186 88.4155 138.145 88.4602 138.092V138.092C88.4886 138.061 88.5087 138.024 88.5185 137.983C88.5283 137.943 88.5275 137.9 88.5162 137.86C88.4002 137.432 87.0442 136.944 86.8922 136.896C86.8772 136.89 86.8608 136.889 86.8451 136.892C86.8294 136.896 86.8152 136.904 86.8042 136.916C86.7975 136.928 86.7941 136.942 86.7941 136.956C86.7941 136.97 86.7975 136.984 86.8042 136.996L86.8002 137.008ZM88.3722 137.9C88.3762 137.915 88.3761 137.932 88.3719 137.947C88.3677 137.963 88.3595 137.977 88.3482 137.988C88.3208 138.025 88.284 138.053 88.2418 138.071C88.1996 138.088 88.1535 138.094 88.1082 138.088C87.8442 138.068 87.4562 137.688 87.0522 137.112C87.5802 137.316 88.2522 137.636 88.3642 137.868L88.3722 137.9Z" fill="#00B2D0"/>
<path d="M86.8002 137.04C87.2002 137.2 88.2202 137.284 88.4482 136.984C88.5002 136.916 88.5362 136.796 88.4082 136.632C88.3595 136.571 88.299 136.52 88.2302 136.483C88.1615 136.446 88.086 136.423 88.0082 136.416C87.4842 136.352 86.8082 136.888 86.7722 136.908C86.7624 136.917 86.7547 136.928 86.7499 136.941C86.745 136.953 86.7431 136.967 86.7442 136.98V136.98C86.7442 136.995 86.7499 137.01 86.7603 137.021C86.7707 137.032 86.785 137.039 86.8002 137.04V137.04ZM88.3282 136.796C88.3384 136.811 88.3438 136.828 88.3438 136.846C88.3438 136.864 88.3384 136.881 88.3282 136.896C88.1922 137.072 87.4402 137.072 86.9922 136.948C87.2839 136.723 87.6367 136.592 88.0042 136.572C88.0594 136.578 88.1128 136.595 88.161 136.622C88.2092 136.65 88.2512 136.687 88.2842 136.732V136.732L88.3402 136.788L88.3282 136.796Z" fill="#00B2D0"/>
<path d="M68.5403 136.652C69.5083 137.5 70.8963 138.276 73.0643 138.884C73.7483 139.076 73.3163 140.348 71.6763 140.312C68.9603 140.272 70.0403 140.224 67.7203 140.176C65.7203 140.136 65.2123 140.12 63.6363 140.108H63.6003C63.5206 140.107 63.442 140.09 63.3691 140.058C63.2963 140.025 63.2307 139.979 63.1765 139.92C63.1222 139.862 63.0804 139.793 63.0536 139.718C63.0267 139.643 63.0154 139.563 63.0203 139.484L63.5443 136.404C63.562 136.333 63.6044 136.271 63.6637 136.228C63.723 136.186 63.7955 136.166 63.8683 136.172L68.0123 136.284C68.3563 136.26 68.2683 136.452 68.5403 136.652Z" fill="#263238"/>
<path d="M68.5522 136.904C69.0602 137.276 69.9842 137.868 70.5522 137.756C70.636 137.745 70.716 137.714 70.7856 137.666C70.8552 137.618 70.9123 137.554 70.9522 137.48V137.48C70.9779 137.442 70.9916 137.397 70.9916 137.352C70.9916 137.306 70.9779 137.262 70.9522 137.224C70.6682 136.804 68.8642 136.748 68.6602 136.748C68.6421 136.747 68.6243 136.753 68.6097 136.764C68.5952 136.775 68.5848 136.79 68.5802 136.808C68.5708 136.82 68.5657 136.835 68.5657 136.85C68.5657 136.865 68.5708 136.88 68.5802 136.892L68.5522 136.904ZM70.7922 137.304C70.803 137.318 70.8087 137.336 70.8087 137.354C70.8087 137.372 70.803 137.389 70.7922 137.404C70.7676 137.451 70.7325 137.493 70.6895 137.524C70.6465 137.556 70.5968 137.578 70.5442 137.588C70.2322 137.64 69.6242 137.4 68.9202 136.92C69.6202 136.956 70.5522 137.064 70.7602 137.276L70.7922 137.304Z" fill="#00B2D0"/>
<path d="M68.6242 136.924C69.1522 136.96 70.4082 136.704 70.5602 136.328C70.6042 136.24 70.5962 136.108 70.3802 135.98C70.2177 135.884 70.0264 135.848 69.8402 135.88C69.1922 135.984 68.5882 136.768 68.5562 136.796C68.5478 136.807 68.5432 136.821 68.5432 136.836C68.5432 136.85 68.5478 136.864 68.5562 136.876C68.5719 136.9 68.5962 136.917 68.6242 136.924V136.924ZM70.3402 136.152C70.3962 136.208 70.3802 136.244 70.4042 136.26C70.3122 136.484 69.4202 136.72 68.8362 136.748C69.1102 136.409 69.4793 136.159 69.8962 136.032C70.0334 136.003 70.1764 136.027 70.2962 136.1L70.3602 136.164L70.3402 136.152Z" fill="#00B2D0"/>
<path opacity="0.8" d="M69.5522 51.5318C70.2362 59.4118 72.8522 63.8518 72.5002 70.1478C72.5002 70.1478 86.7002 70.4278 87.1882 70.4278C87.3962 58.8278 89.0522 59.7118 88.5442 52.3678C88.6322 49.9678 87.1962 48.4518 85.8082 48.2118L79.8082 46.9758L72.0122 48.3158C71.2738 48.4461 70.6112 48.8489 70.1556 49.4445C69.7 50.0401 69.4847 50.785 69.5522 51.5318V51.5318Z" fill="white"/>
<path d="M84.3002 63.2558L82.7002 66.1038L79.8042 63.0198C79.8042 62.9438 81.0442 49.9998 81.0442 49.9998L81.7922 49.9438C81.7202 51.5158 84.3002 63.2558 84.3002 63.2558Z" fill="#00B2D0"/>
<path d="M83.8203 49.4519C84.5057 54.9841 83.9397 60.5996 82.1643 65.8839L83.3643 78.8199C83.6003 80.6959 84.8043 81.0639 85.8803 81.1639L88.0883 80.9879L87.2883 68.6439C87.2883 68.6439 89.0923 55.0439 88.6763 51.9639C88.4003 49.9319 87.7283 49.1399 87.2483 48.7279C87.0423 48.5548 86.7961 48.4365 86.5323 48.3839C85.6923 48.2079 83.2203 47.5399 83.3323 47.5839C83.4443 47.6279 83.8203 49.4519 83.8203 49.4519Z" fill="#263238"/>
<path d="M82.6483 43.7839C82.3443 45.2279 81.8763 47.1959 83.4483 47.8679C84.1323 48.1639 84.4563 49.1239 83.8003 49.4319C83.1443 49.7399 78.8963 49.4319 78.5243 49.2559C77.6043 48.7839 76.9563 48.4559 77.4523 47.5359C78.3163 45.9639 77.7683 42.6759 77.6523 41.0959L82.6483 43.7839Z" fill="#FFC3BD"/>
<path d="M82.2163 49.2798L82.0203 49.8998C82.0064 49.971 81.9716 50.0365 81.9203 50.0878C81.869 50.1391 81.8035 50.1739 81.7323 50.1878L80.9843 50.2438C80.924 50.2442 80.8652 50.2254 80.8163 50.1902C80.7674 50.1549 80.7309 50.1051 80.7123 50.0478L80.3483 49.4958L81.2803 48.9478L82.2163 49.2798Z" fill="#00B2D0"/>
<path opacity="0.2" d="M78.6443 43.3799C78.8714 43.9348 79.1966 44.4442 79.6043 44.8839C80.1843 45.5479 81.2763 45.8399 82.3323 45.8399C82.3681 45.1407 82.4726 44.4466 82.6443 43.7679L82.4243 43.6519L78.6443 43.3799Z" fill="black"/>
<path d="M76.8002 81.116C80.4002 81.36 81.4002 80.988 81.9002 78.18C81.9002 78.18 82.8522 68.112 82.6642 65.884C82.6642 65.884 80.2642 61.204 79.7922 57.952C79.2802 54.316 77.0482 47.036 76.4042 47.084C75.1682 47.168 70.5562 48.784 69.8082 49.772C68.8162 51.088 69.4602 52.608 69.6962 54.24C70.4482 59.468 71.0122 61.268 71.2962 66.54C71.2962 66.54 68.8962 80.14 69.2642 80.188C69.5442 80.216 73.9282 80.92 76.8002 81.116Z" fill="#263238"/>
<path opacity="0.2" d="M72.5002 70.1479H78.6442V70.424C78.6442 70.8143 78.4892 71.1888 78.2131 71.4648C77.9371 71.7409 77.5626 71.896 77.1722 71.896H73.9722C73.5818 71.896 73.2074 71.7409 72.9314 71.4648C72.6553 71.1888 72.5002 70.8143 72.5002 70.424V70.1479Z" fill="white"/>
<path opacity="0.2" d="M87.4283 71.9639H86.5643C86.1737 71.9791 85.793 71.8392 85.5052 71.5746C85.2174 71.3101 85.046 70.9424 85.0283 70.5519V70.2799L87.4043 70.1799L87.4283 71.9639Z" fill="white"/>
<path d="M85.0683 41.7599C84.6683 44.6199 81.3523 46.2679 79.0243 44.3399C77.6763 43.2279 77.4243 41.8439 77.0723 39.6799C77.0203 39.3519 76.9683 39.0079 76.9083 38.6399C76.8118 38.0692 76.8446 37.4842 77.0043 36.9279C77.0675 36.6955 77.1546 36.4703 77.2643 36.2559C77.6647 35.4464 78.3363 34.803 79.1622 34.4375C79.988 34.0721 80.9159 34.0078 81.7843 34.2559C84.6363 35.0879 85.4243 39.1999 85.0683 41.7599Z" fill="#FFC3BD"/>
<path d="M78.2203 36.4878C78.6085 37.1225 78.9366 37.7921 79.2003 38.4878C78.9449 38.5459 78.6996 38.6416 78.4723 38.7718C78.2643 38.9038 78.4723 39.5278 78.5803 39.7598C78.7749 40.2277 79.0008 40.6821 79.2563 41.1198C78.8856 41.2773 78.4976 41.39 78.1003 41.4558C77.9915 41.1523 77.8135 40.8784 77.5803 40.6558C77.4451 40.4905 77.2634 40.3696 77.0586 40.309C76.8539 40.2484 76.6356 40.2507 76.4323 40.3158C76.3603 39.9598 74.2683 38.3518 76.0123 37.2758C76.2677 37.0731 76.5488 36.9049 76.8483 36.7758L77.2483 36.6278C77.562 36.5266 77.8907 36.4793 78.2203 36.4878Z" fill="#263238"/>
<path d="M76.5282 39.5999C77.4202 39.3959 78.2482 40.3759 78.5282 41.1199C78.8562 41.9439 78.4642 42.7879 77.5442 42.6239C77.2016 42.5585 76.8752 42.4258 76.5841 42.2336C76.293 42.0414 76.0429 41.7933 75.8482 41.5039C75.725 41.3446 75.6437 41.1569 75.6121 40.958C75.5804 40.7591 75.5993 40.5554 75.6671 40.3657C75.7348 40.1761 75.8492 40.0065 75.9997 39.8726C76.1502 39.7388 76.332 39.645 76.5282 39.5999V39.5999Z" fill="#FFC3BD"/>
<path d="M81.8802 38.3999C82.0282 38.3999 82.1682 38.5559 82.1922 38.7999C82.2162 39.0439 82.1323 39.2239 81.9643 39.2399C81.7963 39.2559 81.6602 39.0839 81.6362 38.8399C81.6122 38.5959 81.7322 38.4319 81.8802 38.3999Z" fill="#263238"/>
<path d="M84.4442 38.2319C84.5922 38.2319 84.7322 38.3879 84.7562 38.6319C84.7802 38.8759 84.6802 39.0559 84.5282 39.0719C84.3762 39.0879 84.2402 38.9159 84.2162 38.6919C84.1922 38.4679 84.2962 38.2519 84.4442 38.2319Z" fill="#263238"/>
<path d="M83.7963 41.0839C83.9892 41.0916 84.1814 41.0565 84.3591 40.9811C84.5369 40.9057 84.6957 40.7919 84.8243 40.6479C84.2616 40.1572 83.7702 39.5904 83.3643 38.9639L83.7963 41.0839Z" fill="#F98C8C"/>
<path d="M81.2682 38.0238C81.3503 37.8778 81.4653 37.7529 81.6042 37.6591C81.7431 37.5654 81.902 37.5053 82.0682 37.4838H82.1122C82.1477 37.478 82.1794 37.4582 82.2004 37.429C82.2214 37.3997 82.23 37.3634 82.2242 37.3278C82.2174 37.2928 82.1974 37.2617 82.1684 37.2409C82.1394 37.2201 82.1036 37.2111 82.0682 37.2158C81.8561 37.2359 81.6518 37.3062 81.4723 37.421C81.2929 37.5358 81.1433 37.6917 81.0362 37.8758C81.0192 37.9065 81.0142 37.9423 81.0224 37.9764C81.0305 38.0105 81.0512 38.0402 81.0802 38.0598C81.1025 38.0656 81.1259 38.0656 81.1482 38.0598C81.1913 38.0638 81.2343 38.0509 81.2682 38.0238Z" fill="#263238"/>
<path d="M84.9522 37.7918C84.9799 37.7697 84.9979 37.7378 85.0023 37.7026C85.0068 37.6675 84.9974 37.6321 84.9762 37.6038C84.8475 37.4342 84.6802 37.2978 84.4882 37.2059C84.2962 37.1141 84.085 37.0695 83.8722 37.0758V37.0758C83.855 37.0773 83.8382 37.0822 83.823 37.0903C83.8077 37.0984 83.7943 37.1096 83.7834 37.123C83.7726 37.1365 83.7646 37.152 83.7599 37.1686C83.7552 37.1852 83.754 37.2026 83.7562 37.2198V37.2198C83.7612 37.2534 83.7789 37.2838 83.8057 37.3047C83.8325 37.3255 83.8664 37.3352 83.9002 37.3318C84.0685 37.3291 84.2349 37.3665 84.3859 37.4409C84.5368 37.5154 84.6679 37.6247 84.7682 37.7598C84.7816 37.7775 84.7992 37.7916 84.8195 37.8007C84.8398 37.8098 84.862 37.8136 84.8842 37.8118C84.9079 37.8094 84.931 37.8026 84.9522 37.7918V37.7918Z" fill="#263238"/>
<path d="M80.4883 63.6639C79.9883 61.9039 79.4123 60.1279 78.3683 58.6279C77.9923 58.0839 77.5683 57.5839 77.1683 57.0279C76.632 56.3197 76.1391 55.5797 75.6923 54.8119C76.1323 54.4119 76.7123 54.0119 77.1843 53.6439L75.4003 52.1679C75.8488 50.4721 76.0548 48.7214 76.0123 46.9679C76.208 46.8282 76.4507 46.7708 76.6883 46.8079C77.5411 48.1317 78.162 49.5913 78.5243 51.1239C79.5487 55.2375 80.2059 59.434 80.4883 63.6639V63.6639Z" fill="#263238"/>
<path opacity="0.2" d="M82.4523 65.4439C82.4243 65.4079 82.4003 65.3639 82.3723 65.3199C81.2363 63.5519 76.0683 55.4799 75.7083 54.8079C76.1523 54.4079 76.7323 54.0079 77.2043 53.6399L75.4203 52.1639C75.8668 50.4678 76.0728 48.7173 76.0323 46.9639C76.2268 46.8249 76.468 46.7675 76.7043 46.8039C77.2426 47.6393 77.6905 48.5297 78.0403 49.4599C78.2425 50.0019 78.4096 50.5564 78.5403 51.1199C79.5523 55.0959 80.6083 61.5759 82.3883 65.2679L82.4523 65.4439Z" fill="white"/>
<path d="M85.0283 64.5158C85.0003 62.6838 85.0283 60.8198 85.6003 59.0798C85.8043 58.4518 86.0763 57.8478 86.2883 57.2198C86.5603 56.4198 87.3883 55.4278 87.5563 54.5878C87.0203 54.3438 86.3563 54.0958 85.7883 53.8998L87.0723 51.9718C86.1523 50.4798 84.7483 49.2638 84.2723 47.5718C84.0452 47.4949 83.797 47.5092 83.5803 47.6118C83.2963 48.5518 83.7443 51.2878 83.7683 51.8638C83.9683 56.1158 84.0923 60.3678 85.0283 64.5158Z" fill="#263238"/>
<path opacity="0.2" d="M87.5563 54.5878C86.5603 57.3158 84.4843 62.9878 82.4523 65.4438C82.3883 65.5198 82.3283 65.5918 82.2643 65.6598L82.3723 65.3198C82.371 65.3012 82.371 65.2825 82.3723 65.2638C84.2243 59.2638 83.9723 56.0038 83.7763 51.8478C83.7523 51.2718 83.3043 48.4598 83.5883 47.5238C83.6953 47.4719 83.8115 47.4417 83.9303 47.4349C84.049 47.428 84.168 47.4446 84.2803 47.4838C84.7483 49.1718 86.1523 50.4598 87.0803 51.9518C86.6563 52.5958 86.2283 53.2358 85.8003 53.8798C86.3403 54.0958 87.0203 54.3438 87.5563 54.5878Z" fill="white"/>
<path opacity="0.3" d="M69.3842 52.6878C69.3842 52.6878 70.6122 55.4478 73.5762 59.5238C76.5882 63.6638 78.2802 63.6638 78.2802 63.6638L80.4882 64.3278C80.4882 64.3278 79.9202 53.8878 73.5042 52.3278C71.6002 51.8518 68.9762 52.6998 69.3842 52.6878Z" fill="black"/>
<path d="M94.4802 59.4839L91.1802 59.6359V61.4519L94.4802 60.9879V59.4839Z" fill="#FFC3BD"/>
<path d="M93.5323 60.6799C93.4643 62.2799 95.4163 62.6439 95.4163 62.6439L96.4323 63.4759C96.5948 63.6156 96.802 63.6924 97.0163 63.6924C97.2305 63.6924 97.4377 63.6156 97.6003 63.4759L98.4403 62.7599L98.4643 62.7399C98.639 62.5795 98.743 62.3564 98.7535 62.1195C98.764 61.8825 98.6801 61.6511 98.5203 61.4759L97.8363 60.7199C97.5598 60.4112 97.2201 60.1656 96.8403 59.9999L94.4803 59.4839L93.5323 60.6799Z" fill="#FFC3BD"/>
<path d="M69.7082 50.4879C69.0282 51.8159 69.3322 53.3519 70.1482 54.5999C72.0042 57.4239 78.1242 61.1759 79.3482 62.0039C82.1162 63.8919 93.3482 61.6919 93.3482 61.6919L93.5122 58.9199L81.5122 58.3199C81.5122 58.3199 77.4842 51.6119 74.7122 49.5639C73.3162 48.5399 70.6602 48.6279 69.7082 50.4879Z" fill="#263238"/>
<path d="M78.5921 33.892C78.4057 33.8705 78.2169 33.889 78.0383 33.9463C77.8597 34.0035 77.6953 34.0982 77.5561 34.224C76.7611 34.8226 76.2052 35.6847 75.9881 36.656C75.9366 36.854 75.9366 37.0619 75.9881 37.26C76.0099 37.361 76.0617 37.4532 76.1366 37.5246C76.2115 37.5959 76.3061 37.6431 76.4081 37.66C76.6891 37.3663 77.0401 37.1489 77.4281 37.028C78.2099 36.7714 79.0131 36.5853 79.8281 36.472C81.3081 36.2469 82.7694 35.9127 84.2001 35.472C84.4841 35.388 84.8081 35.26 84.8841 34.976C84.9601 34.692 84.3481 34.228 84.4481 34.136C84.6041 33.984 84.8201 33.848 84.8201 33.632C84.8179 33.5463 84.7945 33.4624 84.7521 33.388C84.6926 33.2482 84.6062 33.1214 84.4978 33.0151C84.3893 32.9087 84.261 32.8247 84.1201 32.768C83.9768 32.7189 83.82 32.7279 83.6832 32.7929C83.5464 32.8579 83.4405 32.9739 83.3881 33.116C83.3441 32.8568 83.2853 32.6004 83.2121 32.348C83.1417 32.2318 83.0304 32.1462 82.9001 32.108C82.7006 32.0509 82.4901 32.0437 82.2872 32.0869C82.0842 32.1302 81.895 32.2225 81.7361 32.356C81.4189 32.6256 81.1486 32.946 80.9361 33.304C80.5201 33.912 79.3201 34.06 78.5921 33.892Z" fill="#263238"/>
<path d="M82.3281 41.52C82.3219 41.5141 82.317 41.5069 82.3137 41.499C82.3103 41.4911 82.3086 41.4826 82.3086 41.474C82.3086 41.4655 82.3103 41.457 82.3137 41.4491C82.317 41.4412 82.3219 41.434 82.3281 41.428C82.3393 41.4171 82.3544 41.4109 82.3701 41.4109C82.3858 41.4109 82.4009 41.4171 82.4121 41.428C82.5949 41.6206 82.8206 41.7674 83.0708 41.8563C83.321 41.9453 83.5887 41.974 83.8521 41.94C83.8695 41.9389 83.8867 41.9445 83.9001 41.9557C83.9135 41.9668 83.9221 41.9827 83.9241 42C83.9252 42.0164 83.9201 42.0326 83.9097 42.0452C83.8992 42.0579 83.8844 42.066 83.8681 42.068C83.5863 42.1054 83.2997 42.0751 83.032 41.9799C82.7642 41.8846 82.5229 41.727 82.3281 41.52V41.52Z" fill="#263238"/>
<path d="M76.6841 46.936L77.7001 46.616C78.7355 47.755 80.0232 48.6359 81.4601 49.188C80.8109 49.5802 80.2929 50.1566 79.9721 50.844C76.5721 49.5 76.6841 46.936 76.6841 46.936Z" fill="white"/>
<path d="M83.4561 47.1119L82.5321 46.8679C82.5321 46.8679 82.0601 48.7919 81.0881 49.0199C82.7321 49.7519 82.9681 50.5919 82.9681 50.5919C85.4161 49.9319 83.4561 47.1119 83.4561 47.1119Z" fill="white"/>
<path opacity="0.3" d="M81.5361 66.36C81.5305 66.4329 81.5035 66.5026 81.4585 66.5603C81.4135 66.618 81.3525 66.6611 81.2831 66.6843C81.2137 66.7075 81.139 66.7097 81.0684 66.6907C80.9977 66.6716 80.9343 66.6322 80.8859 66.5772C80.8376 66.5223 80.8065 66.4543 80.7966 66.3818C80.7867 66.3094 80.7984 66.2356 80.8302 66.1697C80.8621 66.1038 80.9126 66.0488 80.9756 66.0114C81.0385 65.9741 81.111 65.9562 81.1841 65.96C81.2335 65.963 81.2819 65.9758 81.3263 65.9976C81.3708 66.0193 81.4105 66.0497 81.4432 66.0868C81.4759 66.124 81.501 66.1673 81.5169 66.2141C81.5328 66.261 81.5394 66.3106 81.5361 66.36V66.36Z" fill="white"/>
</svg>
