<svg width="200" height="209" viewBox="0 0 200 209" fill="none" xmlns="http://www.w3.org/2000/svg">
<path d="M8.22309 160.707H66.9489L68.8375 123.443H6.33447L8.22309 160.707Z" fill="#EBEBEB"/>
<path d="M62.6446 140.487H10.9323L10.2218 127.55H63.4743L62.6446 140.487ZM11.3632 140.028H62.2137L62.9884 128.009H10.6985L11.3632 140.028Z" fill="#DBDBDB"/>
<path d="M61.9432 155.385H12.4359L11.8491 143.695H62.6721L61.9432 155.385ZM12.8484 154.926H61.5123L62.1862 144.154H12.3075L12.8484 154.926Z" fill="#DBDBDB"/>
<path d="M42.7316 135.444H31.7712L31.3678 132.322H43.135L42.7316 135.444ZM32.1883 134.986H42.3328L42.617 132.781H31.8904L32.1883 134.986Z" fill="#DBDBDB"/>
<path d="M42.7316 151.103H31.7712L31.3678 147.986H43.135L42.7316 151.103ZM32.1883 150.645H42.3328L42.617 148.444H31.8904L32.1883 150.645Z" fill="#DBDBDB"/>
<path d="M16.3689 160.707L15.8005 164.763L14.6499 172.923H12.4083V160.707H16.3689Z" fill="#EBEBEB"/>
<path d="M16.3689 160.707L15.8005 164.763H12.4083V160.707H16.3689Z" fill="#DBDBDB"/>
<path d="M58.8077 160.707L59.3762 164.763L60.5222 172.923H62.7637V160.707H58.8077Z" fill="#EBEBEB"/>
<path d="M58.8077 160.707L59.3762 164.763H62.7637V160.707H58.8077Z" fill="#DBDBDB"/>
<path d="M121.104 14.9624H99.4587V44.7218H121.104V14.9624Z" fill="#EBEBEB"/>
<path d="M145.189 14.9624H123.543V44.7218H145.189V14.9624Z" fill="#EBEBEB"/>
<path d="M121.104 47.1605H99.4587V76.9199H121.104V47.1605Z" fill="#EBEBEB"/>
<path d="M145.189 47.1605H123.543V76.9199H145.189V47.1605Z" fill="#EBEBEB"/>
<path d="M170.8 14.9624H149.154V44.7218H170.8V14.9624Z" fill="#EBEBEB"/>
<path d="M194.884 14.9624H173.239V44.7218H194.884V14.9624Z" fill="#EBEBEB"/>
<path d="M170.8 47.1605H149.154V76.9199H170.8V47.1605Z" fill="#EBEBEB"/>
<path d="M194.884 47.1605H173.239V76.9199H194.884V47.1605Z" fill="#EBEBEB"/>
<path d="M175.324 205.616C187.056 205.616 196.566 203.379 196.566 200.62C196.566 197.86 187.056 195.623 175.324 195.623C163.592 195.623 154.082 197.86 154.082 200.62C154.082 203.379 163.592 205.616 175.324 205.616Z" fill="#EBEBEB"/>
<path d="M105.812 196.874C146.506 196.874 179.496 192.727 179.496 187.61C179.496 182.494 146.506 178.346 105.812 178.346C65.1179 178.346 32.1287 182.494 32.1287 187.61C32.1287 192.727 65.1179 196.874 105.812 196.874Z" fill="#EBEBEB"/>
<path d="M96.2865 208.793C136.981 208.793 169.97 204.645 169.97 199.528C169.97 194.412 136.981 190.264 96.2865 190.264C55.5922 190.264 22.603 194.412 22.603 199.528C22.603 204.645 55.5922 208.793 96.2865 208.793Z" fill="#EBEBEB"/>
<path d="M3.79956 172.923L27.013 172.808L50.2265 172.772L96.6534 172.694L143.08 172.772L166.294 172.808L189.507 172.923L166.294 173.033L143.08 173.074L96.6534 173.152L50.2265 173.074L27.013 173.033L3.79956 172.923Z" fill="#263238"/>
<path d="M96.3639 57.9302C99.9532 33.1147 82.7459 10.0881 57.9303 6.49883C33.1148 2.90959 10.0881 20.1169 6.49889 44.9325C2.90965 69.748 20.117 92.7746 44.9325 96.3639C69.7481 99.9531 92.7747 82.7458 96.3639 57.9302Z" fill="#00B2D0"/>
<path opacity="0.1" d="M96.7838 54.3799C97.8524 30.4794 79.3434 10.2379 55.4429 9.16933C31.5424 8.10074 11.3009 26.6097 10.2324 50.5102C9.16375 74.4107 27.6727 94.6522 51.5732 95.7208C75.4737 96.7894 95.7152 78.2804 96.7838 54.3799Z" fill="black"/>
<path d="M94.0333 54.6597C95.2532 32.28 78.0997 13.1487 55.72 11.9288C33.3402 10.7089 14.2089 27.8624 12.9891 50.2421C11.7692 72.6219 28.9226 91.7532 51.3024 92.9731C73.6822 94.1929 92.8134 77.0395 94.0333 54.6597Z" fill="white"/>
<path d="M93.1742 43.8326C74.6914 55.0313 44.3177 73.3994 27.3431 83.4705C22.5441 79.4237 18.7486 74.3195 16.2544 68.5587L72.3994 16.521C77.645 19.2821 82.2229 23.1577 85.8117 27.8758C89.4006 32.5939 91.9135 38.0402 93.1742 43.8326Z" fill="#EBEBEB"/>
<path d="M94.0635 53.8486C93.9165 58.3641 93.0099 62.8225 91.3818 67.0368L40.7651 90.9792C38.5591 90.25 36.421 89.3297 34.375 88.2287C49.6627 79.4045 77.6023 63.3284 94.0635 53.8486Z" fill="#EBEBEB"/>
<path d="M53.9029 14.8112H53.119V20.9629H53.9029V14.8112Z" fill="#C7C7C7"/>
<path d="M35.0313 19.6526L34.3524 20.0446L37.4283 25.3721L38.1071 24.9802L35.0313 19.6526Z" fill="#C7C7C7"/>
<path d="M21.1067 33.2827L20.7147 33.9615L26.0423 37.0374L26.4342 36.3586L21.1067 33.2827Z" fill="#C7C7C7"/>
<path d="M22.0256 52.0563H15.8739V52.8401H22.0256V52.0563Z" fill="#C7C7C7"/>
<path d="M26.0431 67.8527L20.7156 70.9286L21.1075 71.6074L26.4351 68.5316L26.0431 67.8527Z" fill="#C7C7C7"/>
<path d="M37.4267 79.5195L34.3536 84.8486L35.0327 85.2402L38.1058 79.911L37.4267 79.5195Z" fill="#C7C7C7"/>
<path d="M53.9029 83.9335H53.119V90.0852H53.9029V83.9335Z" fill="#C7C7C7"/>
<path d="M69.5923 79.5194L68.9135 79.9114L71.9893 85.2389L72.6682 84.847L69.5923 79.5194Z" fill="#C7C7C7"/>
<path d="M80.9708 67.8442L80.5789 68.5231L85.9064 71.5989L86.2984 70.9201L80.9708 67.8442Z" fill="#C7C7C7"/>
<path d="M91.148 52.0563H84.9962V52.8401H91.148V52.0563Z" fill="#C7C7C7"/>
<path d="M85.9101 33.2963L80.5825 36.3722L80.9745 37.051L86.302 33.9752L85.9101 33.2963Z" fill="#C7C7C7"/>
<path d="M71.9913 19.659L68.9182 24.9882L69.5973 25.3797L72.6703 20.0506L71.9913 19.659Z" fill="#C7C7C7"/>
<path d="M54.1 17.5936L55.434 55.1871L51.5834 55.1367L53.0548 17.5845L54.1 17.5936Z" fill="#00B2D0"/>
<path d="M77.5152 39.3356L52.2252 55.4805L50.387 52.0975L77.0155 38.4188L77.5152 39.3356Z" fill="#263238"/>
<path d="M53.5086 53.7615C54.2352 53.7615 54.8242 53.1725 54.8242 52.4459C54.8242 51.7193 54.2352 51.1302 53.5086 51.1302C52.782 51.1302 52.193 51.7193 52.193 52.4459C52.193 53.1725 52.782 53.7615 53.5086 53.7615Z" fill="#00B2D0"/>
<path d="M142.36 135.316C144.721 136.494 147.055 137.718 149.383 138.946C151.712 140.175 154.027 141.435 156.351 142.682C158.675 143.929 160.972 145.217 163.268 146.51L166.706 148.458C167.843 149.123 168.998 149.774 170.121 150.452C168.939 149.865 167.774 149.256 166.596 148.655L163.099 146.822C160.765 145.593 158.455 144.328 156.131 143.086C153.807 141.843 151.515 140.546 149.218 139.253C146.922 137.961 144.63 136.659 142.36 135.316Z" fill="#A6A6A6"/>
<path d="M168.164 135.316C166.06 136.526 163.928 137.695 161.797 138.859C159.665 140.023 157.515 141.151 155.379 142.293C153.243 143.434 151.075 144.534 148.906 145.634L145.652 147.271C144.561 147.798 143.474 148.343 142.374 148.861C143.424 148.252 144.492 147.67 145.546 147.069L148.755 145.318C150.891 144.158 153.041 143.026 155.173 141.885C157.304 140.743 159.482 139.643 161.645 138.547C163.809 137.452 165.968 136.361 168.164 135.316Z" fill="#A6A6A6"/>
<path d="M116.158 135.316C118.519 136.494 120.852 137.718 123.181 138.946C125.51 140.175 127.825 141.435 130.149 142.682C132.473 143.929 134.769 145.217 137.061 146.51L140.504 148.458C141.641 149.123 142.796 149.774 143.919 150.452C142.736 149.865 141.572 149.256 140.394 148.655L136.896 146.822C134.563 145.593 132.253 144.328 129.929 143.086C127.604 141.843 125.308 140.546 123.016 139.253C120.724 137.961 118.427 136.659 116.158 135.316Z" fill="#A6A6A6"/>
<path d="M141.957 135.316C139.853 136.526 137.721 137.695 135.59 138.859C133.458 140.023 131.304 141.151 129.172 142.293C127.041 143.434 124.868 144.534 122.7 145.634L119.445 147.271C118.354 147.798 117.268 148.343 116.167 148.861C117.217 148.252 118.285 147.67 119.339 147.069L122.548 145.318C124.684 144.158 126.834 143.026 128.966 141.885C131.097 140.743 133.275 139.643 135.439 138.547C137.602 137.452 139.766 136.361 141.957 135.316Z" fill="#A6A6A6"/>
<path d="M120.949 131.69L119.56 140.014L110.158 190.801H108.641L115.48 140.014L116.488 131.69H120.949Z" fill="#A6A6A6"/>
<path d="M116.488 131.69H120.949L119.56 140.014H115.48L116.488 131.69Z" fill="#263238"/>
<path d="M150.483 190.801H148.966L139.564 140.014L138.175 131.69H142.636L143.644 140.014L150.483 190.801Z" fill="#A6A6A6"/>
<path d="M142.636 131.69L143.644 140.014H139.564L138.175 131.69H142.636Z" fill="#263238"/>
<path d="M178.693 190.801H177.176L167.77 140.014L166.381 131.69H170.841L171.854 140.014L178.693 190.801Z" fill="#A6A6A6"/>
<path d="M171.854 140.014H167.77L166.381 131.69H170.841L171.854 140.014Z" fill="#263238"/>
<path d="M176.287 135.6H107.375V128.339H133.17L141.843 72.5284H173.66L176.287 135.6Z" fill="#A6A6A6"/>
<path d="M176.287 135.6H172.532L170.085 72.5284H173.66L176.287 135.6Z" fill="#DBDBDB"/>
<path d="M128.416 88.5587C131.753 91.6254 136.855 92.2259 141.182 91.8638C145.597 91.4879 150.451 90.3327 154.096 87.7061C155.74 86.5762 157.039 85.0113 157.845 83.1863C158.657 81.2151 158.501 79.299 157.075 77.7817C155.929 76.5578 153.729 75.8931 153.536 74.6417C153.344 73.3902 154.206 72.2488 154.306 71.0065C154.471 68.8796 153.138 67.5089 151.51 66.3904C147.655 63.7363 147.939 59.4227 145.267 55.8014C143.749 53.7431 139.789 50.1172 134.109 52.9043C131.946 53.9632 130.708 56.2827 130.112 58.5793C129.411 61.2793 130.69 64.4972 129.732 67.1376C128.911 69.3884 127.297 69.9706 126.523 72.3176C126.197 73.3352 126.138 74.4721 127.476 76.5532C127.962 77.305 128.535 78.4785 128.347 79.487C128.086 80.8897 126.614 81.7377 126.312 83.2046C125.913 85.2216 126.944 87.2064 128.416 88.5587Z" fill="#263238"/>
<path d="M156.594 83.9151C158.593 83.2642 159.037 80.28 157.511 79.024C156.548 78.2264 155.251 77.988 154.302 77.1904C152.716 75.8839 153.72 74.3345 154.224 72.7393C155.32 69.2784 152.821 67.4356 150.227 65.7991C148.256 64.5522 147.641 62.8791 147.188 60.6696C147.188 60.6375 147.233 60.6237 147.243 60.6696C147.655 62.2832 148.127 63.8555 149.457 64.9648C150.539 65.8816 151.872 66.3904 152.931 67.3347C154.705 68.9162 155.187 70.8553 154.449 73.0831C154.238 73.7249 153.766 74.4858 153.743 75.1551C153.692 76.7274 154.953 77.3416 156.149 77.9055C157.066 78.3639 158.088 78.8589 158.556 79.8308C159.267 81.3022 158.217 83.6126 156.658 84.0206C156.562 84.0572 156.516 83.9426 156.594 83.9151Z" fill="#263238"/>
<path d="M155.723 85.6479C156.86 84.6852 158.116 83.7822 158.648 82.3244C159.431 80.17 157.836 78.8864 156.356 77.6762C155.714 77.1583 155.164 76.6265 155.058 75.7693C154.907 74.4904 155.659 73.2756 155.618 71.9875C155.512 68.9162 152.28 67.5502 150.451 65.5699C148.622 63.5896 147.701 60.9858 146.72 58.4509C146.72 58.3959 146.784 58.3638 146.802 58.4188C148.049 61.6276 149.512 64.6256 152.248 66.8351C154.16 68.3753 156.2 70.0439 155.847 72.7622C155.76 73.4269 155.475 74.0686 155.388 74.7287C155.246 76.0489 155.714 76.8145 156.681 77.5937C157.648 78.373 158.675 79.0881 159.014 80.2983C159.679 82.6499 157.557 84.6119 155.847 85.822C155.824 85.8311 155.799 85.8322 155.775 85.8252C155.751 85.8182 155.731 85.8035 155.717 85.7835C155.702 85.7634 155.695 85.7391 155.696 85.7146C155.698 85.69 155.707 85.6665 155.723 85.6479Z" fill="#263238"/>
<path d="M125.666 82.5353C126.44 80.9171 127.958 79.9315 127.174 77.9237C126.647 76.5485 125.689 75.5217 125.725 73.9586C125.816 72.6976 126.335 71.5055 127.197 70.5802C128.219 69.3333 129.397 68.2881 130.043 66.7617C130.745 65.1114 130.887 63.2916 131.047 61.5313C131.047 61.4946 131.107 61.4992 131.107 61.5313C131.024 63.9012 130.85 66.3491 129.411 68.3523C128.659 69.3929 127.678 70.2547 126.94 71.3044C125.611 73.1976 125.922 74.9716 126.94 76.8969C127.398 77.7816 127.857 78.6709 127.586 79.6932C127.316 80.7154 126.523 81.4534 126.028 82.3519C123.928 86.175 128.742 89.778 132.225 89.833C132.381 89.833 132.404 90.076 132.225 90.076C129.631 90.1126 126.564 88.2424 125.583 85.8312C125.365 85.3066 125.26 84.7422 125.274 84.1745C125.289 83.6067 125.422 83.0483 125.666 82.5353Z" fill="#263238"/>
<path d="M126.083 84.3277C125.854 82.8058 126.647 81.8111 127.169 80.5046C127.99 78.4464 126.5 76.8053 126.023 74.8571C125.883 74.216 125.872 73.5534 125.991 72.908C126.11 72.2627 126.356 71.6474 126.715 71.0982C127.632 69.558 128.907 68.3478 129.571 66.6472C130.264 64.8214 130.408 62.8326 129.984 60.9263C129.984 60.8896 130.03 60.8896 130.039 60.9263C130.38 62.205 130.45 63.5411 130.244 64.8485C130.038 66.156 129.561 67.4058 128.842 68.5174C127.926 69.9339 126.55 71.1945 126.197 72.9456C125.821 74.7792 126.967 76.2461 127.499 77.9422C127.667 78.4398 127.733 78.966 127.693 79.4896C127.654 80.0131 127.51 80.5235 127.27 80.9905C126.853 81.6854 126.544 82.4397 126.353 83.2275C126.25 84.3669 126.559 85.5056 127.224 86.4364C129.127 89.3839 132.789 90.8141 136.039 90.7912C136.154 90.7912 136.177 90.9745 136.039 90.9745C134.567 91.0056 133.103 90.7449 131.731 90.2076C130.36 89.6703 129.109 88.8668 128.049 87.8436C127.033 86.9131 126.344 85.6804 126.083 84.3277Z" fill="#263238"/>
<path d="M105.501 190.975C106.724 191.396 141.811 191.644 143.154 190.81C143.662 190.498 144.643 176.462 144.355 175.091C143.383 170.438 138.739 156.338 138.739 156.338L115.269 156.104L121.531 174.866L121.609 178.992C121.609 178.992 108.113 184.887 106.738 185.964C105.363 187.042 104.277 190.558 105.501 190.975Z" fill="#DD6A57"/>
<path d="M105.391 191.025C106.624 191.447 141.902 191.699 143.255 190.86C143.883 190.471 144.249 182.971 144.465 175.05L121.517 174.821L121.59 178.946C121.59 178.946 108.04 184.906 106.656 185.974C105.271 187.042 104.162 190.603 105.391 191.025Z" fill="#00B2D0"/>
<path d="M105.909 189.618C111.822 189.517 135.705 189.659 141.549 190.008C141.595 190.008 141.595 190.04 141.549 190.044C135.686 190.273 111.822 189.939 105.909 189.714C105.785 189.71 105.785 189.618 105.909 189.618Z" fill="#263238"/>
<path d="M120.765 177.64C123.099 177.223 125.941 177.599 127.706 179.272C127.774 179.336 127.683 179.432 127.609 179.409C125.391 178.673 123.099 178.178 120.775 177.933C120.736 177.935 120.698 177.92 120.669 177.894C120.641 177.867 120.624 177.83 120.623 177.791C120.622 177.752 120.636 177.714 120.663 177.686C120.69 177.658 120.726 177.641 120.765 177.64Z" fill="#263238"/>
<path d="M119.078 178.639C121.407 178.222 124.254 178.598 126.019 180.271C126.087 180.335 125.996 180.432 125.918 180.409C123.7 179.674 121.41 179.179 119.088 178.933C119.049 178.934 119.011 178.919 118.982 178.893C118.954 178.866 118.937 178.829 118.936 178.79C118.935 178.752 118.949 178.714 118.976 178.685C119.003 178.657 119.039 178.64 119.078 178.639Z" fill="#263238"/>
<path d="M117.391 179.638C119.72 179.221 122.567 179.602 124.332 181.27C124.4 181.335 124.309 181.431 124.231 181.408C122.013 180.675 119.723 180.181 117.401 179.936C117.365 179.931 117.333 179.914 117.309 179.888C117.285 179.861 117.272 179.827 117.271 179.791C117.27 179.756 117.281 179.721 117.303 179.693C117.325 179.665 117.357 179.646 117.391 179.638Z" fill="#263238"/>
<path d="M115.705 180.643C118.033 180.221 120.88 180.601 122.645 182.27C122.714 182.339 122.622 182.435 122.544 182.407C120.326 181.674 118.036 181.181 115.714 180.936C115.675 180.937 115.637 180.923 115.609 180.896C115.58 180.87 115.564 180.833 115.562 180.794C115.561 180.755 115.576 180.717 115.602 180.689C115.629 180.66 115.666 180.644 115.705 180.643Z" fill="#263238"/>
<path d="M117.524 175.55C119.161 176.842 121.302 177.383 123.218 178.103C123.415 178.181 123.575 177.993 123.584 177.814C123.594 177.814 123.604 177.812 123.613 177.807C123.621 177.802 123.629 177.796 123.634 177.788C123.639 177.779 123.643 177.77 123.644 177.76C123.645 177.751 123.643 177.741 123.639 177.732C122.95 175.666 121.728 173.819 120.096 172.377C119.129 171.552 117.428 170.975 116.507 172.226C115.585 173.478 116.571 174.793 117.524 175.55ZM116.947 173.67C116.553 171.117 119.285 172.474 119.972 173.111C120.412 173.529 120.821 173.977 121.196 174.454C121.962 175.443 122.677 176.471 123.337 177.535C122.42 177.122 121.471 176.792 120.536 176.411C119.422 175.958 117.162 175.082 116.947 173.67Z" fill="#263238"/>
<path d="M131.437 174.243C130.882 172.785 129.09 172.868 127.939 173.418C125.981 174.368 124.307 175.816 123.085 177.617C123.079 177.625 123.076 177.634 123.074 177.643C123.072 177.653 123.073 177.662 123.075 177.672C123.078 177.681 123.083 177.69 123.089 177.697C123.096 177.704 123.103 177.71 123.112 177.713C123.1 177.757 123.097 177.803 123.105 177.848C123.113 177.892 123.131 177.934 123.158 177.971C123.186 178.007 123.221 178.037 123.261 178.058C123.302 178.078 123.347 178.089 123.392 178.089C125.432 177.906 127.637 177.961 129.562 177.172C130.685 176.7 131.95 175.618 131.437 174.243ZM126.449 177.186C125.45 177.301 124.446 177.365 123.452 177.516C124.373 176.67 125.337 175.872 126.339 175.123C126.831 174.769 127.346 174.447 127.88 174.161C128.714 173.734 131.712 173.157 130.63 175.536C130.034 176.815 127.623 177.049 126.449 177.186Z" fill="#263238"/>
<path d="M160.321 121.417C156.016 125.694 150.02 128.394 144.918 131.043C140.536 133.299 136.818 135.499 135.411 138.598C134.178 141.348 144.41 171.516 144.41 171.516L119.573 173.762C119.573 173.762 108.769 144.241 111.473 131.534C111.932 129.448 113.999 126.748 116.974 123.801C127.605 113.303 149.645 99.6611 149.645 99.6611H163.181C163.181 99.6611 168.797 112.982 160.321 121.417Z" fill="#455A64"/>
<path d="M161.655 102.609C161.6 101.995 161.536 101.38 161.476 100.775C161.476 100.716 161.375 100.716 161.384 100.775C161.944 105.708 162.407 111.117 160.082 115.696C157.845 120.097 153.362 122.746 149.37 125.359L142.127 130.172L138.496 132.565C137.501 133.192 136.539 133.87 135.613 134.596C134.768 135.25 134.054 136.057 133.509 136.975C132.95 138.015 132.711 139.197 132.821 140.372C133.413 148.302 141.265 169.306 141.448 169.985C141.462 170.015 141.486 170.039 141.517 170.053C141.547 170.067 141.581 170.07 141.613 170.06C141.645 170.051 141.673 170.03 141.69 170.002C141.708 169.973 141.715 169.94 141.71 169.907C140.004 164.617 135.407 152.845 133.348 142.228C133.087 140.853 132.89 139.428 133.316 138.075C133.693 136.999 134.344 136.04 135.205 135.293C136.045 134.547 136.945 133.873 137.896 133.276L141.563 130.837L148.755 126.084C152.684 123.484 157.112 120.963 159.665 116.856C162.347 112.584 162.09 107.422 161.655 102.609Z" fill="#263238"/>
<path d="M160.321 121.417C156.016 125.694 150.02 128.394 144.918 131.043C135.902 128.678 124.515 125.721 116.956 123.819C127.586 113.322 149.626 99.6796 149.626 99.6796H163.163C163.163 99.6796 168.797 112.982 160.321 121.417Z" fill="#263238"/>
<path d="M59.5229 173.203C60.568 173.964 93.9901 184.64 95.5211 184.241C96.1033 184.094 97.9415 179.318 99.9997 173.482C100.458 172.222 100.917 170.92 101.347 169.59C104.286 160.982 107.201 151.777 107.201 151.777L84.8633 144.571L79.6192 162.581L78.4686 166.537C78.4686 166.537 63.841 168.174 62.2091 168.793C60.5772 169.412 58.4777 172.437 59.5229 173.203Z" fill="#DD6A57"/>
<path d="M59.4036 173.216C60.4534 173.986 94.0634 184.718 95.6174 184.319C96.3279 184.135 98.9087 177.081 101.476 169.586L79.6283 162.54L78.4686 166.515C78.4686 166.515 63.763 168.16 62.122 168.779C60.4809 169.398 58.3539 172.451 59.4036 173.216Z" fill="#00B2D0"/>
<path d="M60.3159 172.024C65.9909 173.688 88.7368 180.922 94.2376 182.999C94.2835 182.999 94.2743 183.044 94.2376 183.031C88.5718 181.509 65.8855 174.087 60.3159 172.121C60.1646 172.075 60.1922 171.992 60.3159 172.024Z" fill="#263238"/>
<path d="M78.0606 165.011C80.4122 165.304 83.0159 166.51 84.2031 168.632C84.249 168.715 84.1344 168.779 84.0656 168.733C82.1661 167.373 80.1269 166.219 77.9826 165.291C77.9504 165.276 77.9244 165.251 77.9094 165.219C77.8944 165.187 77.8913 165.151 77.9008 165.117C77.9102 165.083 77.9316 165.054 77.9609 165.034C77.9902 165.015 78.0256 165.006 78.0606 165.011Z" fill="#263238"/>
<path d="M76.1537 165.465C78.5007 165.758 81.1044 166.964 82.2963 169.086C82.3421 169.164 82.2229 169.228 82.1588 169.187C80.2582 167.825 78.2174 166.671 76.0712 165.744C76.0379 165.73 76.011 165.705 75.9956 165.672C75.9801 165.639 75.9772 165.602 75.9874 165.568C75.9977 165.533 76.0203 165.503 76.0509 165.484C76.0816 165.466 76.1182 165.458 76.1537 165.465Z" fill="#263238"/>
<path d="M74.2467 165.914C76.5937 166.212 79.1974 167.418 80.3847 169.535C80.4351 169.618 80.3159 169.682 80.2518 169.636C78.35 168.278 76.3094 167.125 74.1642 166.198C74.1336 166.182 74.1096 166.155 74.0962 166.123C74.0827 166.092 74.0807 166.056 74.0904 166.023C74.1 165.989 74.1208 165.96 74.1493 165.941C74.1777 165.921 74.2121 165.911 74.2467 165.914Z" fill="#263238"/>
<path d="M72.3582 166.368C74.7098 166.661 77.3135 167.871 78.5007 169.989C78.5466 170.072 78.432 170.136 78.3632 170.09C76.4642 168.73 74.4249 167.577 72.2802 166.652C72.2502 166.636 72.2265 166.61 72.2131 166.578C72.1997 166.547 72.1973 166.512 72.2063 166.479C72.2153 166.446 72.2353 166.417 72.2628 166.397C72.2904 166.377 72.324 166.366 72.3582 166.368Z" fill="#263238"/>
<path d="M75.5898 162.031C76.7679 163.75 78.6519 164.901 80.2655 166.157C80.3033 166.183 80.3467 166.199 80.3921 166.204C80.4375 166.21 80.4835 166.204 80.5262 166.188C80.569 166.172 80.6072 166.145 80.6376 166.111C80.668 166.077 80.6898 166.036 80.701 165.992C80.7105 165.994 80.7203 165.994 80.7298 165.992C80.7392 165.989 80.7481 165.985 80.7556 165.979C80.7631 165.973 80.7691 165.965 80.7731 165.956C80.7772 165.947 80.7792 165.937 80.7789 165.928C80.7317 163.751 80.1136 161.625 78.9866 159.762C78.3081 158.69 76.8596 157.631 75.6036 158.552C74.3476 159.473 74.9022 161.046 75.5898 162.031ZM75.5898 160.065C75.9749 157.507 78.1798 159.606 78.6474 160.431C78.9427 160.961 79.2001 161.511 79.4175 162.077C79.8532 163.251 80.2296 164.446 80.5451 165.657C79.7888 164.988 78.982 164.387 78.2027 163.75C77.2813 163.003 75.3835 161.495 75.5944 160.083L75.5898 160.065Z" fill="#263238"/>
<path d="M89.2593 164.938C89.1631 163.384 87.4257 162.948 86.1651 163.104C84.0096 163.438 81.9798 164.333 80.2792 165.698C80.2716 165.704 80.2654 165.712 80.2612 165.721C80.257 165.73 80.2548 165.739 80.2548 165.749C80.2548 165.759 80.257 165.768 80.2612 165.777C80.2654 165.786 80.2716 165.793 80.2792 165.799C80.2495 165.837 80.2295 165.881 80.2211 165.928C80.2128 165.975 80.2162 166.024 80.2312 166.069C80.2462 166.115 80.2723 166.156 80.3071 166.189C80.3419 166.222 80.3843 166.245 80.4305 166.258C82.4337 166.689 84.524 167.399 86.6006 167.207C87.8108 167.074 89.3464 166.409 89.2593 164.938ZM83.6027 166.262C82.6125 166.07 81.6361 165.836 80.6414 165.685C81.7724 165.149 82.9307 164.673 84.1115 164.259C84.6853 164.066 85.272 163.912 85.8672 163.801C86.784 163.64 89.8232 163.984 88.1042 165.919C87.1553 166.977 84.7807 166.487 83.6027 166.262Z" fill="#263238"/>
<path d="M78.652 160.45L103.406 167.734L111.079 139.483C111.749 130.145 113.431 125.616 118.923 123.897C128.274 121 151.121 131.69 161.467 124.52C169.869 118.689 163.167 99.6383 163.167 99.6383H138.872C138.872 99.6383 135.938 103.209 135.397 105.309C135.397 105.309 105.313 102.989 98.5787 111.525C89.5803 122.985 78.652 160.45 78.652 160.45Z" fill="#455A64"/>
<path d="M123.14 123.489C121.692 123.364 120.233 123.477 118.822 123.824C117.481 124.185 116.231 124.825 115.154 125.703C114.111 126.552 113.266 127.619 112.679 128.829C111.991 130.246 111.762 131.85 111.519 133.413C111.386 134.33 111.299 135.247 111.249 136.164C111.198 137.081 111.162 138.355 111.162 139.139C111.162 139.207 111.253 139.212 111.253 139.139C111.267 138.315 111.336 137.492 111.46 136.677C111.561 135.902 111.698 135.132 111.831 134.362C112.051 132.828 112.409 131.317 112.899 129.847C113.372 128.588 114.101 127.44 115.039 126.476C115.977 125.512 117.104 124.753 118.349 124.245C119.103 123.941 119.892 123.728 120.697 123.613C121.511 123.525 122.331 123.499 123.149 123.535C123.149 123.535 123.158 123.489 123.14 123.489Z" fill="#263238"/>
<path d="M157.965 108.857C157.121 108.666 156.304 108.373 155.53 107.986C154.758 107.632 154.057 107.14 153.463 106.533C153.014 105.945 152.713 105.258 152.587 104.529C152.491 104.135 152.436 103.732 152.372 103.333C152.308 102.934 152.193 102.457 152.161 102.017C152.161 101.962 152.065 101.967 152.069 102.017C152.276 103.677 151.808 105.529 153.046 106.941C153.677 107.584 154.445 108.077 155.292 108.385C156.131 108.752 157.028 108.969 157.942 109.026C157.962 109.025 157.981 109.017 157.996 109.003C158.011 108.99 158.021 108.971 158.023 108.951C158.026 108.931 158.022 108.91 158.011 108.893C158 108.876 157.984 108.863 157.965 108.857Z" fill="#263238"/>
<path d="M162.512 105.029C162.292 104.134 162.035 103.25 161.742 102.38C161.742 102.325 161.632 102.347 161.655 102.407C162.843 106.041 163.364 109.86 163.195 113.679C163.174 115.486 162.929 117.282 162.466 119.029C162.022 120.697 160.941 122.124 159.454 123.003C157.921 123.803 156.257 124.323 154.54 124.539C152.616 124.839 150.67 124.976 148.723 124.947C144.758 124.91 140.82 124.374 136.892 123.911C133.083 123.452 129.273 122.934 125.455 122.59C122.328 122.311 118.996 122.279 116.103 123.663C113.353 124.988 111.556 127.514 110.382 130.26C109.062 133.363 108.315 136.709 107.421 139.95C106.358 143.814 100.866 164.887 100.784 165.79C100.784 165.877 100.907 165.873 100.916 165.79C101.109 163.81 105.863 146.381 106.931 142.49L108.54 136.659C108.966 135.105 109.388 133.546 109.915 132.024C110.933 129.123 112.427 126.212 115.072 124.479C117.891 122.645 121.402 122.494 124.662 122.733C126.495 122.861 128.329 123.108 130.163 123.324L136.181 124.039C140.023 124.497 143.869 125.034 147.738 125.153C149.672 125.226 151.609 125.148 153.532 124.919C155.271 124.75 156.978 124.342 158.606 123.709C160.047 123.151 161.258 122.124 162.044 120.794C162.851 119.35 163.126 117.676 163.305 116.058C163.685 112.364 163.417 108.631 162.512 105.029Z" fill="#263238"/>
<path d="M144.685 77.0529C141.476 87.5961 138.79 95.7786 135.682 97.681C133.174 99.2258 117.589 102.105 114.559 102.265C113.362 102.329 112.367 102.366 111.661 102.393C109.919 102.453 107.394 90.8691 108.668 89.5031C108.961 89.1914 110.117 88.9759 111.735 88.8201C117.176 88.2929 127.852 88.4396 128.508 87.8528C129.163 87.2661 132.752 82.7829 137.593 76.9291C140.93 72.886 143.603 71.7446 144.648 72.9273C145.244 73.6103 145.304 75.0176 144.685 77.0529Z" fill="#DD6A57"/>
<path d="M114.554 102.283C112.713 103.04 110.825 103.675 108.902 104.186C107.371 104.52 102.943 105.373 102.393 103.727C102.026 102.604 104.575 101.793 106.367 101.183C107.307 100.862 108.503 99.9729 108.269 99.3494C107.866 98.286 105.436 99.1707 103.818 99.9729C100.701 101.522 96.4838 104.401 94.7511 102.755C94.0956 102.132 94.9711 101.137 96.218 100.184C94.2239 101.256 92.1199 102.109 91.3635 101.444C90.9326 101.068 90.9418 100.592 91.2305 100.069C90.981 100.161 90.71 100.179 90.4505 100.121C90.1909 100.062 89.9539 99.9297 89.7682 99.7391C89.1907 99.0469 89.5574 98.1072 90.3 97.1675C90.1841 97.1469 90.0746 97.0992 89.9806 97.0283C89.8866 96.9574 89.8107 96.8653 89.7591 96.7595C88.5764 94.6646 95.5441 89.3334 97.8636 88.9437C104.675 87.7886 111.772 88.8383 111.772 88.8383C114.265 91.1211 114.563 102.279 114.554 102.283Z" fill="#DD6A57"/>
<path d="M105.102 95.3844C103.487 95.5138 101.921 96.0008 100.518 96.81C98.8812 97.7818 97.5427 99.1708 96.0162 100.289C95.975 100.321 96.0162 100.386 96.0621 100.353C96.7864 99.7713 97.5702 99.2579 98.3128 98.7032C99.0554 98.1485 99.7568 97.5893 100.522 97.1034C101.901 96.1966 103.469 95.6179 105.106 95.4119C105.106 95.4119 105.12 95.3798 105.102 95.3844Z" fill="#263238"/>
<path d="M104.038 92.4551C102.219 92.76 100.436 93.25 98.7162 93.9174C96.8826 94.7104 95.3653 96.1085 93.8938 97.4471C93.0137 98.2539 92.1489 99.079 91.2993 99.9224C91.2626 99.9591 91.2993 100.019 91.3497 99.9866C92.8441 98.5992 94.3721 97.2576 95.9337 95.9618C97.3938 94.7446 99.0813 93.8299 100.898 93.271C101.934 92.9547 102.989 92.7164 104.043 92.478L104.038 92.4551Z" fill="#263238"/>
<path d="M102.319 89.8423C100.587 90.0807 99.0692 90.3007 97.4923 91.1029C95.4066 92.1847 93.3346 94.1054 92.6058 94.7701C91.8036 95.5219 91.0243 96.3012 90.2587 97.0896C90.2267 97.1217 90.2587 97.1767 90.3137 97.1446C92.0648 95.4309 93.9236 93.8309 95.8787 92.3543C96.8018 91.6335 97.8298 91.0584 98.9271 90.6491C100.035 90.2963 101.172 90.0387 102.324 89.879C102.324 89.879 102.328 89.8423 102.319 89.8423Z" fill="#263238"/>
<path d="M145.656 75.2925C145.253 78.2859 142.975 84.0343 142.975 84.0343L131.762 82.7553C131.762 82.7553 137.786 75.045 142.328 72.2121C144.153 71.0798 146.069 72.2671 145.656 75.2925Z" fill="#00B2D0"/>
<path d="M143.071 82.5078C141.416 82.2098 139.766 81.9348 138.097 81.7331C137.263 81.6322 136.433 81.5451 135.599 81.4672C134.765 81.3893 133.921 81.403 133.092 81.3159C133.046 81.3159 133.041 81.3847 133.092 81.3893C133.921 81.4305 134.76 81.591 135.59 81.6781C136.42 81.7652 137.254 81.8614 138.088 81.9577C139.748 82.1548 141.412 82.3473 143.071 82.5811C143.112 82.5857 143.112 82.5169 143.071 82.5078Z" fill="#263238"/>
<path d="M141.522 75.9022C141.994 75.4792 142.562 75.1771 143.177 75.0221C142.943 75.236 142.683 75.4179 142.402 75.563C142.124 75.7135 141.828 75.8275 141.522 75.9022ZM140.073 81.2059C139.776 81.1126 139.468 81.0571 139.156 81.0409C139.425 81.2082 139.715 81.3377 140.018 81.426C140.315 81.5215 140.623 81.577 140.935 81.591C140.667 81.4237 140.377 81.2942 140.073 81.2059ZM137.754 76.4386C137.658 76.7354 137.602 77.0437 137.589 77.3554C137.754 77.0869 137.882 76.7969 137.969 76.4936C138.065 76.1968 138.121 75.8884 138.134 75.5768C137.971 75.8467 137.843 76.1363 137.754 76.4386Z" fill="white"/>
<path d="M145.656 75.2926C145.656 75.4576 145.611 75.6364 145.574 75.8106C145.537 75.9847 145.519 76.0902 145.482 76.2415C144.853 78.901 144.015 81.5068 142.975 84.0343L142.516 83.9839L142.081 83.9334L138.556 83.53L138.033 83.475L134.517 83.0762L134.059 83.0212L132.766 82.8745L142.31 72.2121C144.327 71.4237 146.06 72.2671 145.656 75.2926Z" fill="#263238"/>
<path d="M134.838 105.547C134.838 105.547 145.491 107.193 165.161 103.897C165.161 103.897 155.443 79.7941 148.659 73.6424C145.579 70.837 142.842 71.52 140.646 73.6424C140.101 74.1741 133.564 83.9839 133.202 87.2523C132.885 90.1402 135.448 93.1107 135.448 93.1107L134.838 105.547Z" fill="#00B2D0"/>
<path d="M154.375 94.1237C154.161 93.8906 153.979 93.6301 153.834 93.349C153.68 93.0731 153.566 92.7768 153.495 92.4689C153.709 92.702 153.891 92.9625 154.036 93.2436C154.187 93.5211 154.301 93.8169 154.375 94.1237ZM144.666 83.3283C144.521 83.0462 144.338 82.7855 144.121 82.5536C144.196 82.8604 144.31 83.1562 144.46 83.4338C144.605 83.7149 144.787 83.9754 145.001 84.2085C144.931 83.901 144.818 83.6047 144.666 83.3283ZM161.535 102.292C161.389 102.014 161.207 101.755 160.995 101.522C161.069 101.829 161.183 102.125 161.334 102.402C161.479 102.684 161.661 102.944 161.875 103.177C161.801 102.869 161.687 102.571 161.535 102.292ZM142.035 96.732C141.89 96.4509 141.708 96.1904 141.494 95.9573C141.569 96.2641 141.683 96.5599 141.833 96.8374C141.979 97.1185 142.16 97.379 142.374 97.6121C142.301 97.3051 142.187 97.0091 142.035 96.732ZM146.372 73.0647C146.23 72.7817 146.047 72.5208 145.831 72.29C145.986 72.9048 146.288 73.4727 146.711 73.9449C146.64 73.6363 146.524 73.3398 146.367 73.0647H146.372ZM147.536 92.9869C147.816 92.8407 148.077 92.6589 148.311 92.446C148.002 92.5196 147.705 92.6337 147.426 92.7852C147.145 92.9313 146.885 93.1131 146.651 93.3261C146.96 93.2524 147.257 93.1383 147.536 92.9869ZM137.185 88.8062C137.464 88.6598 137.723 88.478 137.955 88.2653C137.647 88.3357 137.351 88.45 137.075 88.6046C136.794 88.7497 136.534 88.9316 136.3 89.1455C136.614 89.0729 136.916 88.9589 137.199 88.8062H137.185ZM142.388 75.563C142.669 75.4179 142.93 75.236 143.163 75.0221C142.548 75.1772 141.98 75.4792 141.508 75.9022C141.819 75.8287 142.12 75.7146 142.402 75.563H142.388ZM144.135 103.429C144.42 103.288 144.685 103.109 144.923 102.898C144.308 103.053 143.74 103.355 143.268 103.778C143.575 103.7 143.871 103.583 144.148 103.429H144.135ZM153.248 81.018C153.526 80.8715 153.785 80.6897 154.018 80.4771C153.403 80.6321 152.835 80.9342 152.363 81.3572C152.676 81.2847 152.978 81.1706 153.261 81.018H153.248ZM156.507 99.7666C156.788 99.6215 157.048 99.4396 157.282 99.2257C156.973 99.2953 156.677 99.4096 156.401 99.5649C156.12 99.7101 155.86 99.892 155.627 100.106C155.938 100.032 156.239 99.9182 156.521 99.7666H156.507ZM149.677 97.7772C149.38 97.6816 149.071 97.6261 148.76 97.6121C149.028 97.7794 149.318 97.909 149.622 97.9972C149.919 98.0906 150.227 98.146 150.538 98.1622C150.274 97.9961 149.989 97.8666 149.69 97.7772H149.677ZM136.786 94.5225C136.489 94.427 136.181 94.3715 135.87 94.3575C136.138 94.5247 136.428 94.6543 136.731 94.7425C137.029 94.8359 137.337 94.8914 137.648 94.9076C137.384 94.7414 137.099 94.6119 136.8 94.5225H136.786ZM150.053 86.2025C149.756 86.1066 149.447 86.0511 149.136 86.0375C149.406 86.204 149.697 86.3335 150.002 86.4226C150.299 86.5163 150.608 86.5718 150.919 86.5876C150.653 86.4222 150.366 86.2927 150.066 86.2025H150.053ZM140.059 81.2059C139.762 81.1126 139.454 81.0571 139.143 81.0409C139.411 81.2082 139.701 81.3378 140.004 81.426C140.301 81.5215 140.61 81.577 140.921 81.591C140.657 81.4249 140.372 81.2953 140.073 81.2059H140.059ZM159.995 94.8251C159.698 94.7291 159.39 94.6736 159.078 94.66C159.348 94.8256 159.637 94.9551 159.94 95.0451C160.238 95.1381 160.546 95.1935 160.857 95.2101C160.593 95.044 160.308 94.9145 160.009 94.8251H159.995ZM156.356 87.4219C156.26 87.7188 156.205 88.0271 156.191 88.3387C156.358 88.0704 156.487 87.7804 156.576 87.4769C156.669 87.1795 156.725 86.8715 156.741 86.5601C156.579 86.8295 156.454 87.1193 156.369 87.4219H156.356ZM142.406 89.8422C142.311 90.1391 142.255 90.4475 142.241 90.759C142.409 90.4908 142.538 90.2008 142.626 89.8972C142.72 89.6001 142.774 89.2918 142.787 88.9804C142.628 89.2505 142.504 89.5403 142.42 89.8422H142.406ZM138.102 102.439C138.006 102.736 137.951 103.044 137.937 103.356C138.103 103.086 138.233 102.794 138.322 102.49C138.416 102.192 138.471 101.884 138.487 101.573C138.319 101.842 138.19 102.134 138.102 102.439ZM151.813 103.356C151.717 103.653 151.662 103.961 151.648 104.273C151.814 104.004 151.942 103.714 152.028 103.411C152.124 103.114 152.18 102.806 152.193 102.494C152.031 102.764 151.903 103.054 151.813 103.356ZM148.375 77.9559C148.279 78.2527 148.223 78.5611 148.21 78.8727C148.375 78.6035 148.505 78.3138 148.595 78.0109C148.688 77.7134 148.743 77.4054 148.76 77.0941C148.593 77.3609 148.463 77.6493 148.375 77.9513V77.9559ZM135.283 83.828C135.187 84.1248 135.131 84.4332 135.118 84.7448C135.284 84.4745 135.414 84.1831 135.503 83.8784C135.599 83.5816 135.654 83.2732 135.668 82.9616C135.501 83.2319 135.372 83.5233 135.283 83.828Z" fill="white"/>
<path d="M145.171 72.6797C145.171 73.2298 143.626 77.2637 141.233 77.768C140.454 77.9376 139.34 73.7295 139.34 73.7295L139.188 73.4361L137.043 69.3471L141.274 64.6944L141.898 64.0618C141.898 64.0618 142.411 65.2169 143.034 66.6655L143.121 66.8718C143.158 66.9543 143.195 67.0276 143.227 67.1056C143.323 67.321 143.419 67.564 143.511 67.7611C143.603 67.9582 143.653 68.0957 143.722 68.2745C143.791 68.4533 143.86 68.6274 143.933 68.8016C144.433 70.0646 144.847 71.3603 145.171 72.6797Z" fill="#DD6A57"/>
<path d="M143.034 66.6838C142.923 68.0239 142.522 69.3238 141.858 70.493C141.194 71.6622 140.283 72.6728 139.188 73.4544L137.043 69.3654L141.274 64.7127L141.898 64.0801C141.898 64.0801 142.411 65.2169 143.034 66.6838Z" fill="#263238"/>
<path d="M129.117 63.9059C130.034 71.9554 134.953 72.3221 136.69 72.125C138.267 71.9416 143.607 71.1303 143.534 63.0303C143.461 54.9304 139.431 52.8034 135.805 53.0234C132.179 53.2435 128.21 55.8518 129.117 63.9059Z" fill="#DD6A57"/>
<path d="M130.117 62.3886C130.3 62.3382 130.465 62.2648 130.644 62.2007C130.838 62.1582 131.014 62.0536 131.143 61.9027C131.176 61.8479 131.189 61.7838 131.181 61.7206C131.173 61.6574 131.143 61.5988 131.098 61.5543C130.995 61.4795 130.874 61.4337 130.747 61.4216C130.621 61.4095 130.493 61.4316 130.378 61.4856C130.126 61.5571 129.91 61.7207 129.773 61.944C129.747 61.9965 129.736 62.0553 129.741 62.1138C129.747 62.1723 129.769 62.228 129.805 62.2745C129.841 62.3209 129.889 62.3563 129.944 62.3765C129.999 62.3967 130.059 62.4009 130.117 62.3886Z" fill="#263238"/>
<path d="M135.617 61.6414C135.43 61.6393 135.244 61.6255 135.058 61.6002C134.859 61.6125 134.661 61.5594 134.494 61.4489C134.449 61.404 134.421 61.3455 134.412 61.2825C134.404 61.2195 134.417 61.1555 134.449 61.1005C134.529 61.0015 134.634 60.9255 134.753 60.8804C134.872 60.8353 135.001 60.8227 135.127 60.8438C135.388 60.8446 135.639 60.9445 135.828 61.1234C135.869 61.1663 135.896 61.2199 135.907 61.2779C135.918 61.3358 135.912 61.3957 135.89 61.4503C135.867 61.505 135.83 61.552 135.782 61.5859C135.733 61.6198 135.676 61.6391 135.617 61.6414Z" fill="#263238"/>
<path d="M134.595 63.7683C134.595 63.7683 134.641 63.7683 134.646 63.8096C134.687 64.3596 134.829 64.9831 135.347 65.1114V65.1435C134.728 65.1252 134.549 64.2955 134.595 63.7683Z" fill="#263238"/>
<path d="M135.022 63.1403C135.897 62.9753 136.163 64.7355 135.352 64.8868C134.54 65.0381 134.288 63.2778 135.022 63.1403Z" fill="#263238"/>
<path d="M135.379 63.1816C135.549 63.2549 135.727 63.4108 135.915 63.4016C136.103 63.3924 136.268 63.1816 136.374 62.9799C136.374 62.9799 136.401 62.9799 136.406 62.9799C136.457 63.1369 136.447 63.3077 136.377 63.4575C136.308 63.6074 136.183 63.725 136.03 63.7866C135.705 63.8829 135.425 63.617 135.287 63.2916C135.274 63.2503 135.315 63.1495 135.379 63.1816Z" fill="#263238"/>
<path d="M131.547 64.1122C131.547 64.1122 131.506 64.1443 131.51 64.1672C131.616 64.7081 131.643 65.3453 131.18 65.6066C131.18 65.6066 131.18 65.6387 131.18 65.6341C131.776 65.4553 131.73 64.6073 131.547 64.1122Z" fill="#263238"/>
<path d="M130.969 63.6171C130.08 63.6904 130.296 65.4507 131.116 65.3911C131.937 65.3315 131.712 63.5575 130.969 63.6171Z" fill="#263238"/>
<path d="M130.616 63.7775C130.488 63.8921 130.369 64.0755 130.204 64.1076C130.039 64.1397 129.846 63.9701 129.7 63.8005H129.672C129.704 64.1397 129.86 64.4789 130.19 64.5064C130.52 64.5339 130.676 64.213 130.717 63.8646C130.726 63.8234 130.667 63.7363 130.616 63.7775Z" fill="#263238"/>
<path d="M132.775 66.5784C132.775 66.5784 132.775 67.4081 132.83 67.7932C132.83 67.8298 132.931 67.8344 133.064 67.8253C133.402 67.8424 133.738 67.7658 134.035 67.6041C134.331 67.4423 134.578 67.2015 134.747 66.9084C134.769 66.8672 134.714 66.8351 134.682 66.8672C134.237 67.2689 133.675 67.5179 133.078 67.5777C133.037 67.4723 133.124 66.1521 133.078 66.1567C132.781 66.223 132.496 66.331 132.23 66.4776C132.175 64.7448 132.404 63.0166 132.326 61.293C132.326 61.2289 132.23 61.2243 132.221 61.293C131.921 63.1365 131.807 65.0055 131.881 66.8718C131.881 67.0643 132.633 66.6838 132.775 66.5784Z" fill="#263238"/>
<path d="M133.092 67.6327C133.349 67.9218 133.676 68.141 134.041 68.2699C134.24 68.334 134.455 68.334 134.655 68.2699C135.113 68.1278 135.077 67.7198 134.971 67.376C134.913 67.1936 134.835 67.0183 134.737 66.8534C134.286 67.2819 133.709 67.555 133.092 67.6327Z" fill="#263238"/>
<path d="M134.041 68.2699C134.24 68.334 134.455 68.334 134.655 68.2699C135.113 68.1278 135.077 67.7198 134.971 67.376C134.738 67.3985 134.52 67.4991 134.351 67.6613C134.182 67.8235 134.073 68.0379 134.041 68.2699Z" fill="#FF9CBD"/>
<path d="M143.007 63.7179C142.127 63.7179 139.656 61.4901 139.262 57.2544C139.262 57.2544 139.876 61.0362 140.206 61.5726C140.536 62.1089 138.831 60.3074 138.455 56.8969C137.438 57.7514 136.303 58.4554 135.086 58.9872C133.504 59.5602 132.514 59.6244 132.39 59.5143C132.267 59.4043 134.586 58.4738 135.173 57.6807C135.173 57.6807 131.047 60.0048 129.058 60.3074C128.833 60.3441 128.196 55.6546 131.107 53.4314C134.018 51.2081 139.033 52.973 140.435 54.1465C140.435 54.1465 141.98 54.2473 143.818 56.388C145.657 58.5288 143.96 63.7041 143.007 63.7179Z" fill="#263238"/>
<path d="M135.87 66.3079C135.195 66.3043 134.55 66.0335 134.075 65.5549C133.599 65.0764 133.333 64.429 133.335 63.7546C133.336 63.2784 133.471 62.8121 133.725 62.4088C133.978 62.0055 134.339 61.6815 134.768 61.4735C135.196 61.2655 135.675 61.182 136.148 61.2324C136.622 61.2829 137.072 61.4652 137.447 61.7588C137.822 62.0523 138.107 62.4452 138.27 62.8928C138.432 63.3404 138.466 63.8247 138.367 64.2905C138.269 64.7564 138.041 65.1852 137.71 65.5281C137.38 65.8709 136.96 66.1141 136.498 66.23C136.292 66.2815 136.081 66.3077 135.87 66.3079ZM133.674 63.7546C133.672 64.1909 133.8 64.6179 134.041 64.9816C134.282 65.3453 134.625 65.6293 135.028 65.7978C135.43 65.9662 135.873 66.0114 136.302 65.9278C136.73 65.8441 137.123 65.6353 137.433 65.3277C137.742 65.0202 137.954 64.6278 138.04 64.2001C138.126 63.7725 138.084 63.3288 137.918 62.9253C137.752 62.5218 137.47 62.1766 137.108 61.9333C136.746 61.6901 136.32 61.5598 135.883 61.5589C135.701 61.558 135.519 61.5811 135.342 61.6276C134.867 61.746 134.445 62.0194 134.143 62.4047C133.841 62.7899 133.676 63.265 133.674 63.7546Z" fill="#00B2D0"/>
<path d="M130.538 66.9818C129.507 67.1147 128.517 66.0925 128.338 64.6898C128.244 64.0619 128.35 63.4204 128.641 62.8562C128.751 62.6066 128.924 62.3897 129.142 62.2264C129.36 62.0631 129.617 61.9589 129.888 61.9239C130.158 61.8889 130.433 61.9242 130.686 62.0265C130.939 62.1288 131.161 62.2945 131.331 62.5078C131.755 62.9803 132.021 63.5731 132.092 64.2039C132.262 65.5195 131.634 66.6976 130.717 66.9543L130.538 66.9818ZM128.939 63.0166C128.683 63.5164 128.59 64.0839 128.673 64.6393C128.829 65.8449 129.649 66.7342 130.506 66.6242C131.364 66.5142 131.918 65.4461 131.762 64.2405C131.7 63.6823 131.466 63.1571 131.093 62.737C130.952 62.5711 130.774 62.441 130.573 62.3573C130.373 62.2736 130.155 62.2388 129.938 62.2556L129.814 62.2786C129.625 62.3333 129.449 62.4274 129.298 62.5545C129.147 62.6816 129.025 62.8391 128.939 63.0166Z" fill="#00B2D0"/>
<path d="M133.454 64.0343L133.637 63.7501C133.215 63.475 132.262 63.1587 131.744 63.8967L132.019 64.0984C132.496 63.4338 133.417 64.0113 133.454 64.0343Z" fill="#00B2D0"/>
<path d="M144.786 63.2275L145.065 63.0304C144.973 62.902 144.148 61.7606 143.392 61.7331C142.636 61.7056 138.207 62.7232 138.02 62.7645L138.093 63.0991C139.376 62.8057 142.824 62.054 143.383 62.0723C143.942 62.0906 144.556 62.9112 144.786 63.2275Z" fill="#00B2D0"/>
<path d="M143.869 65.9963C143.758 66.063 143.641 66.1197 143.52 66.1659C143.4 66.2115 143.273 66.2393 143.144 66.2484C142.98 66.2663 142.814 66.2475 142.659 66.1934C142.536 66.1518 142.419 66.0948 142.31 66.0238C142.159 65.9193 142.027 65.7889 141.921 65.6387V63.4292C141.921 63.4292 143.154 60.5963 144.4 60.9905C145.647 61.3847 145.111 65.2399 143.869 65.9963Z" fill="#DD6A57"/>
<path d="M144.24 62.0997C144.263 62.0997 144.272 62.1227 144.24 62.1318C143.387 62.6957 143.071 63.6537 142.911 64.6118C142.946 64.5083 143.003 64.4136 143.078 64.3343C143.153 64.2551 143.245 64.193 143.347 64.1525C143.448 64.112 143.557 64.094 143.666 64.0996C143.775 64.1053 143.882 64.1346 143.979 64.1855C144.006 64.1855 143.979 64.2405 143.979 64.2405C143.807 64.2201 143.633 64.2532 143.48 64.3352C143.328 64.4172 143.204 64.5442 143.126 64.6989C143.002 64.9611 142.906 65.2363 142.842 65.5194C142.814 65.6111 142.654 65.5973 142.668 65.4965C142.416 64.3001 142.998 62.4665 144.24 62.0997Z" fill="#263238"/>
<path d="M143.708 65.6845C143.708 65.7588 143.686 65.8315 143.645 65.8933C143.604 65.9551 143.545 66.0033 143.476 66.0318C143.408 66.0602 143.332 66.0677 143.259 66.0531C143.186 66.0386 143.119 66.0028 143.067 65.9503C143.014 65.8977 142.978 65.8307 142.964 65.7578C142.949 65.6849 142.957 65.6093 142.985 65.5406C143.014 65.4719 143.062 65.4132 143.124 65.3719C143.185 65.3306 143.258 65.3086 143.332 65.3086C143.432 65.3086 143.528 65.3482 143.598 65.4187C143.669 65.4892 143.708 65.5848 143.708 65.6845Z" fill="white"/>
<path d="M144.355 64.974C144.355 65.0266 144.339 65.078 144.31 65.1217C144.281 65.1654 144.239 65.1995 144.191 65.2196C144.142 65.2398 144.088 65.245 144.037 65.2348C143.985 65.2245 143.938 65.1992 143.901 65.162C143.864 65.1248 143.838 65.0774 143.828 65.0259C143.818 64.9743 143.823 64.9208 143.843 64.8723C143.863 64.8237 143.897 64.7822 143.941 64.7529C143.985 64.7237 144.036 64.7081 144.089 64.7081C144.159 64.7081 144.227 64.7361 144.277 64.786C144.327 64.8359 144.355 64.9035 144.355 64.974Z" fill="white"/>
<path d="M150.112 74.9763C156.136 83.1771 164.249 97.0209 160.467 100C154.252 104.892 136.323 107.422 132.216 107.835C130.442 108.009 127.133 96.3745 128.343 94.903C129.553 93.4316 148.467 92.7577 148.622 91.6026C148.709 90.947 147.288 85.2766 145.588 78.2218C143.621 70.0852 148.384 72.6431 150.112 74.9763Z" fill="#DD6A57"/>
<path d="M131.46 94.0136C131.46 94.0136 126.037 93.8624 122.489 93.9311C120.509 93.9678 117.121 94.3391 115.677 95.0313C113.523 96.0673 105.166 101.779 106.509 103.837C107.724 105.698 114.302 99.8766 114.302 99.8766C114.302 99.8766 107.142 105.189 109.03 107.138C110.919 109.086 117.437 101.55 117.437 101.55C117.437 101.55 110.227 107.147 112.482 108.884C114.187 110.191 120.49 103.677 120.49 103.677C120.49 103.677 114.329 108.531 116.021 109.948C117.896 111.515 124.089 105.868 124.089 105.868C129.003 108.747 132.523 108.109 134.971 107.358C135.553 107.165 131.46 94.0136 131.46 94.0136Z" fill="#DD6A57"/>
<path d="M116.63 97.8918C115.769 98.4831 114.893 99.0745 114.086 99.7254C113.28 100.376 112.5 101.101 111.758 101.82C110.775 102.768 109.901 103.823 109.154 104.965C110.625 103.03 113.472 100.606 114.279 99.9225C115.086 99.2395 115.851 98.5473 116.653 97.8872C116.676 97.9055 116.649 97.878 116.63 97.8918Z" fill="#263238"/>
<path d="M119.083 100.757C118.019 101.554 116.928 102.315 115.897 103.163C114.866 104.011 113.972 104.901 113.009 105.813C112.931 105.886 113.009 105.9 113.073 105.813C114.073 104.942 115.067 104.208 116.076 103.347C117.084 102.485 118.065 101.582 119.106 100.761L119.083 100.757Z" fill="#263238"/>
<path d="M121.632 102.833C119.968 104.024 118.432 105.383 117.048 106.89C116.979 106.964 117.048 106.973 117.139 106.89C118.638 105.515 119.803 104.424 121.677 102.879C121.7 102.87 121.668 102.81 121.632 102.833Z" fill="#263238"/>
<path d="M135.517 93.5049C134.756 93.5049 133.147 93.7616 131.364 93.8028C127.353 93.8854 121.687 93.7524 119.665 93.8028C114.201 93.9679 110.8 97.9285 109.241 99.3037C108.309 100.136 107.46 101.057 106.706 102.054C106.316 102.6 105.936 103.374 106.431 103.998C107.032 104.754 109.365 103.998 111.817 101.884C111.904 101.807 111.849 101.756 111.758 101.825C108.329 104.493 106.99 104.154 106.647 103.658C106.426 103.351 106.647 102.829 106.867 102.435C107.21 101.864 107.623 101.337 108.095 100.867C109.675 99.2361 111.416 97.7708 113.293 96.4937C115.31 95.051 117.694 94.2101 120.169 94.0687C121.93 93.9587 127.33 94.1191 131.373 94C133.142 93.9449 134.747 93.6287 135.498 93.5691C135.581 93.592 135.572 93.5049 135.517 93.5049Z" fill="#263238"/>
<path d="M157.809 85.3866L146.298 85.0932C146.298 85.0932 145.061 79.4411 144.813 76.2186C144.488 71.9509 145.996 70.8278 149.741 74.5041C152.244 76.9658 157.809 85.3866 157.809 85.3866Z" fill="#00B2D0"/>
<path d="M146.706 73.9449C146.283 73.4727 145.981 72.9048 145.826 72.29C146.249 72.7622 146.551 73.3301 146.706 73.9449ZM153.261 81.018C153.54 80.8715 153.799 80.6897 154.031 80.4771C153.417 80.6321 152.849 80.9342 152.377 81.3572C152.685 81.2835 152.983 81.1695 153.261 81.018ZM148.375 77.9513C148.279 78.2481 148.223 78.5565 148.21 78.8681C148.375 78.599 148.505 78.3092 148.595 78.0063C148.688 77.7088 148.743 77.4008 148.76 77.0895C148.593 77.3578 148.463 77.6477 148.375 77.9513Z" fill="white"/>
<path d="M147.706 85.1345C147.582 85.107 146.399 85.0382 146.33 85.0565C146.202 84.3873 146.083 83.718 145.945 83.0533C145.877 82.7187 145.803 82.3841 145.725 82.054C145.647 81.724 145.556 81.2701 145.482 80.9493C145.482 80.8988 145.404 80.908 145.409 80.9493C145.469 81.3802 145.524 81.6965 145.579 82.0678C145.634 82.4391 145.679 82.7324 145.744 83.0625C145.872 83.7593 145.982 84.5065 146.147 85.1986C146.673 85.2213 147.2 85.2106 147.724 85.1666L147.706 85.1345Z" fill="#263238"/>
<path d="M156.667 84.2634C154.994 84.1076 153.326 83.9701 151.648 83.9105C150.809 83.883 149.975 83.8646 149.136 83.86C148.297 83.8555 147.458 83.938 146.624 83.9196C146.614 83.9196 146.605 83.9235 146.598 83.9304C146.591 83.9373 146.587 83.9466 146.587 83.9563C146.587 83.966 146.591 83.9754 146.598 83.9822C146.605 83.9891 146.614 83.993 146.624 83.993C147.458 83.9655 148.306 84.0526 149.14 84.0709L151.652 84.1351C153.326 84.1901 154.999 84.2405 156.672 84.3368C156.704 84.3368 156.704 84.268 156.667 84.2634Z" fill="#263238"/>
<path d="M101.545 107.083H126.935V105.112L101.545 104.291V107.083Z" fill="#455A64"/>
<path d="M81.5858 107.051H98.3403C99.766 107.051 97.6986 102.98 92.482 101.417C87.2654 99.8537 79.9401 105.524 81.5858 107.051Z" fill="#37474F"/>
<path d="M88.1592 107.051C87.8866 106.193 87.5207 105.367 87.0682 104.589C86.8434 104.21 86.5824 103.854 86.2889 103.526C85.9845 103.195 85.655 102.888 85.3033 102.609C85.7574 102.744 86.1777 102.973 86.5364 103.283C86.9015 103.588 87.2116 103.954 87.4532 104.364C87.6979 104.772 87.8846 105.212 88.0079 105.671C88.1343 106.119 88.1854 106.586 88.1592 107.051Z" fill="#263238"/>
<path d="M86.1743 103.177C85.2942 103.746 84.414 104.264 83.5889 104.855C83.1738 105.138 82.7843 105.457 82.4246 105.808C82.0508 106.15 81.7633 106.576 81.5857 107.051C81.5942 106.505 81.7974 105.98 82.1587 105.57C82.4914 105.151 82.8837 104.784 83.323 104.479C83.7574 104.176 84.2176 103.912 84.6982 103.691C85.1707 103.468 85.6655 103.296 86.1743 103.177Z" fill="#263238"/>
<path d="M69.5664 99.1707H110.286L103.814 68.8521H63.0892L69.5664 99.1707Z" fill="#455A64"/>
<path d="M68.0629 99.1707H108.783L102.305 68.8521H61.5857L68.0629 99.1707Z" fill="#37474F"/>
<path d="M90.0249 88.3021H90.9784L89.5298 81.4994H88.5718L90.0249 88.3021Z" fill="#263238"/>
<path d="M88.1409 88.3021H89.0944L87.6458 81.4994H86.6877L88.1409 88.3021Z" fill="#263238"/>
<path d="M86.2569 88.3021H87.2103L85.7618 81.4994H84.8037L86.2569 88.3021Z" fill="#263238"/>
<path d="M84.3728 88.3021H85.3263L83.8777 81.4994H82.9197L84.3728 88.3021Z" fill="#263238"/>
<path d="M82.4842 88.3021H83.4423L81.9891 81.4994H81.0356L82.4842 88.3021Z" fill="#263238"/>
<path d="M80.6002 88.3021H81.5582L80.1051 81.4994H79.1516L80.6002 88.3021Z" fill="#263238"/>
<path d="M78.7161 88.3021H79.6742L78.221 81.4994H77.2676L78.7161 88.3021Z" fill="#263238"/>
<path d="M79.5779 107.087H99.6054V105.533L79.5779 104.882V107.087Z" fill="#455A64"/>
<path d="M74.1321 107.083H84.8862L91.3634 90.099H80.6093L74.1321 107.083Z" fill="#455A64"/>
<path d="M72.3627 107.083H83.1168L89.5894 90.099H78.8399L72.3627 107.083Z" fill="#263238"/>
<path d="M168.838 107.083H24.4689V109.709H168.838V107.083Z" fill="#37474F"/>
<path d="M165.4 109.709H27.9067V116.301H165.4V109.709Z" fill="#37474F"/>
<path d="M165.4 109.709H27.9067V113.005H165.4V109.709Z" fill="#263238"/>
<path d="M46.5453 167.826H34.2235V169.994H46.5453V167.826Z" fill="#37474F"/>
<path d="M53.2289 199.529H51.8996L41.0446 148.862L40.4258 145.974L38.4776 136.879L37.7533 133.487L35.0212 120.762L34.0677 116.301H38.8076L39.5823 120.762L40.0866 123.686L40.4258 125.634L42.374 136.879L43.002 140.5L53.2289 199.529Z" fill="#37474F"/>
<path d="M38.8076 116.301L39.5823 120.762H35.0212L34.0677 116.301H38.8076Z" fill="#263238"/>
<path d="M43.0019 140.5L41.0445 148.861L40.4257 145.974L38.4774 136.879L37.7532 133.487L40.0864 123.686L40.4257 125.634L42.3739 136.879L43.0019 140.5Z" fill="#263238"/>
<path d="M46.7837 116.301L45.8303 120.762L42.3739 136.879L40.4257 145.974L28.9519 199.529H27.6226L38.4775 136.879L40.4257 125.634L41.2692 120.762L42.0393 116.301H46.7837Z" fill="#37474F"/>
<path d="M46.7837 116.301L45.8303 120.762H41.2692L42.0393 116.301H46.7837Z" fill="#263238"/>
<path d="M159 167.826H146.679V169.994H159V167.826Z" fill="#37474F"/>
<path d="M165.684 199.529H164.35L153.5 148.862L152.881 145.974L150.928 136.879L150.204 133.487L147.476 120.762L146.518 116.301H151.263L152.033 120.762L152.542 123.686L152.881 125.634L154.824 136.879L155.452 140.5L165.684 199.529Z" fill="#37474F"/>
<path d="M151.263 116.301L152.033 120.762H147.476L146.518 116.301H151.263Z" fill="#263238"/>
<path d="M155.452 140.5L153.5 148.861L152.881 145.974L150.928 136.879L150.204 133.487L152.542 123.686L152.881 125.634L154.824 136.879L155.452 140.5Z" fill="#263238"/>
<path d="M159.234 116.301L158.281 120.762L154.824 136.879L152.881 145.974L141.402 199.529H140.078L150.928 136.879L152.881 125.634L153.72 120.762L154.494 116.301H159.234Z" fill="#37474F"/>
<path d="M159.234 116.301L158.281 120.762H153.72L154.494 116.301H159.234Z" fill="#263238"/>
<path d="M36.6853 104.479L35.7777 104.36L39.7245 74.3116L51.3588 66.8855L55.1131 69.3425L54.6134 70.1081L51.3496 67.9765L40.5772 74.8525L36.6853 104.479Z" fill="#263238"/>
<path d="M39.3806 74.582C39.3797 74.7356 39.4245 74.886 39.5093 75.0141C39.5941 75.1422 39.715 75.2422 39.8567 75.3014C39.9985 75.3606 40.1546 75.3764 40.3053 75.3466C40.456 75.3169 40.5945 75.243 40.7031 75.1344C40.8117 75.0258 40.8856 74.8873 40.9154 74.7366C40.9451 74.5859 40.9294 74.4298 40.8702 74.288C40.811 74.1463 40.711 74.0253 40.5829 73.9405C40.4548 73.8558 40.3044 73.811 40.1507 73.8119C39.9465 73.8119 39.7506 73.893 39.6062 74.0375C39.4618 74.1819 39.3806 74.3778 39.3806 74.582Z" fill="#00B2D0"/>
<path d="M51.3175 68.2011C51.7428 68.2011 52.0876 67.8563 52.0876 67.431C52.0876 67.0057 51.7428 66.6609 51.3175 66.6609C50.8922 66.6609 50.5474 67.0057 50.5474 67.431C50.5474 67.8563 50.8922 68.2011 51.3175 68.2011Z" fill="#00B2D0"/>
<path d="M61.5581 70.3968L56.4286 76.1223L54.0633 73.1977L52.6239 71.4145L56.4653 67.1284L58.3952 68.3707L61.5581 70.3968Z" fill="#00B2D0"/>
<path opacity="0.1" d="M61.5581 70.3969L56.4286 76.1223L54.0632 73.1977L58.3951 68.3707L61.5581 70.3969Z" fill="black"/>
<path d="M68.9888 73.2206L60.0499 83.1954L54.1136 75.6226L60.8109 68.1506L68.9888 73.2206Z" fill="#00B2D0"/>
<path d="M43.2495 107.087H30.0247L30.836 102.934H42.4382L43.2495 107.087Z" fill="#00B2D0"/>
<path d="M176.933 145.648C176.547 148.334 176.686 151.069 177.341 153.702C177.651 154.922 178.064 156.113 178.574 157.264C179.216 158.735 179.885 160.175 179.725 161.788C179.569 161.894 180.105 161.876 180.119 161.72C184.428 159.267 189.956 158.818 193.271 154.807C194.843 152.905 195.636 150.498 196.021 148.091C196.429 145.469 196.539 142.591 195.865 139.982C195.292 137.796 194.032 135.687 191.964 134.614C189.897 133.542 187.068 133.606 184.836 134.298C180.009 135.797 177.616 140.991 176.933 145.648Z" fill="#00B2D0"/>
<path d="M174.724 177.544C175.31 175.586 175.897 173.624 176.502 171.672C177.685 167.839 178.913 164.025 180.275 160.253C181.091 157.997 181.95 155.762 182.851 153.546C182.755 152.149 182.584 150.758 182.338 149.379C181.98 147.711 181.453 146.097 180.963 144.461C180.955 144.438 180.956 144.412 180.967 144.391C180.978 144.369 180.997 144.352 181.02 144.344C181.043 144.336 181.068 144.338 181.09 144.348C181.112 144.359 181.129 144.378 181.137 144.401C182.104 146.657 183.369 149.535 183.397 152.194C184.451 149.687 185.574 147.216 186.784 144.782C186.923 142.722 186.86 140.654 186.596 138.607C186.593 138.588 186.597 138.567 186.608 138.551C186.619 138.535 186.636 138.524 186.656 138.52C186.675 138.516 186.695 138.521 186.712 138.532C186.728 138.543 186.739 138.56 186.743 138.58C187.109 140.372 187.25 142.203 187.165 144.03C188.082 142.196 189.062 140.395 190.103 138.616C190.195 138.456 190.419 138.616 190.337 138.777C188.719 141.894 187.215 145.08 185.803 148.302C187.789 146.584 190.081 145.257 192.56 144.392C192.67 144.355 192.748 144.511 192.638 144.553C189.934 145.719 187.459 147.358 185.331 149.393C184.32 151.756 183.355 154.136 182.439 156.535C185.134 153.89 188.824 152.153 192.39 151.222C192.514 151.19 192.546 151.374 192.427 151.41C188.302 152.652 185.093 154.995 181.948 157.828C181.581 158.797 181.224 159.768 180.875 160.743C179.54 164.432 178.272 168.146 177.071 171.887C176.493 173.675 175.92 175.472 175.361 177.264C174.76 179.199 174.288 181.238 173.527 183.104C173.454 183.283 173.133 183.242 173.174 183.026C173.598 181.174 174.115 179.344 174.724 177.544Z" fill="#263238"/>
<path d="M181.87 141.862C182.635 143.038 183.163 144.352 183.424 145.731C183.424 145.767 183.374 145.786 183.36 145.731C182.879 144.432 182.317 143.164 181.678 141.935C181.614 141.862 181.797 141.765 181.87 141.862Z" fill="#263238"/>
<path d="M189.558 150.856C190.756 150.19 192.065 149.748 193.422 149.554C193.459 149.554 193.482 149.6 193.422 149.613C192.799 149.875 192.148 150.072 191.52 150.296C190.892 150.521 190.268 150.833 189.631 151.053C189.608 151.054 189.584 151.048 189.565 151.035C189.545 151.022 189.53 151.003 189.522 150.981C189.513 150.959 189.512 150.935 189.519 150.912C189.525 150.89 189.539 150.87 189.558 150.856Z" fill="#263238"/>
<path d="M191.721 140.056C192.112 139.76 192.529 139.502 192.968 139.285C192.983 139.276 193 139.273 193.017 139.277C193.034 139.281 193.048 139.292 193.058 139.306C193.067 139.321 193.07 139.338 193.066 139.355C193.062 139.372 193.051 139.386 193.037 139.396C192.655 139.699 192.245 139.966 191.813 140.193C191.735 140.239 191.643 140.106 191.721 140.056Z" fill="#263238"/>
<path d="M162.406 160.285C165.51 161.202 168.632 162.054 171.735 162.966C172.005 163.049 177.236 152.996 175.352 147.816C173.601 143.021 169.59 139.437 164.808 137.805C162.594 137.053 159.871 136.43 157.529 136.938C155.448 137.397 153.976 139.102 153.303 141.064C152.386 143.723 152.688 146.9 153.188 149.613C153.589 152.163 154.642 154.567 156.246 156.59C157.887 158.547 159.991 159.565 162.406 160.285Z" fill="#00B2D0"/>
<path d="M157.91 150.727C159.871 151.686 161.905 152.488 163.993 153.125C165.385 153.5 166.744 153.992 168.054 154.596C166.748 151.672 165.304 148.811 163.782 145.978C161.774 145.396 159.656 144.493 158.157 143.072C158.14 143.057 158.13 143.037 158.128 143.014C158.126 142.992 158.133 142.97 158.148 142.953C158.163 142.936 158.183 142.925 158.206 142.923C158.228 142.922 158.25 142.929 158.267 142.944C159.922 144.112 161.746 144.814 163.575 145.602C163.163 144.841 162.744 144.077 162.319 143.31C162.205 143.099 162.494 142.889 162.636 143.095C164.266 145.464 165.739 147.937 167.045 150.498C167.38 148.253 167.487 145.98 167.366 143.714C167.364 143.707 167.364 143.699 167.365 143.692C167.366 143.685 167.369 143.678 167.373 143.672C167.377 143.667 167.383 143.662 167.389 143.659C167.396 143.655 167.403 143.654 167.41 143.654C167.417 143.654 167.424 143.655 167.431 143.659C167.437 143.662 167.443 143.667 167.447 143.672C167.451 143.678 167.454 143.685 167.455 143.692C167.456 143.699 167.456 143.707 167.453 143.714C167.842 146.185 167.817 148.704 167.38 151.167C168.467 153.34 169.457 155.568 170.351 157.819C170.704 156.466 171.162 155.132 171.469 153.766C171.942 151.818 172.097 149.805 171.927 147.807C171.927 147.748 172.005 147.743 172.015 147.807C172.566 151.513 172.117 155.299 170.713 158.772C171.231 160.147 171.726 161.49 172.18 162.852C174.521 169.815 175.908 177.062 176.305 184.397C176.305 184.432 176.291 184.466 176.266 184.491C176.241 184.516 176.208 184.53 176.172 184.53C176.137 184.53 176.103 184.516 176.078 184.491C176.053 184.466 176.039 184.432 176.039 184.397C175.228 177.165 173.68 170.035 171.419 163.118C170.502 160.413 169.48 157.787 168.343 155.206C166.509 154.665 164.676 153.931 162.883 153.308C161.091 152.685 159.326 151.992 157.841 150.837C157.781 150.791 157.845 150.695 157.91 150.727Z" fill="#263238"/>
<path d="M155.017 147.821C156.915 148.499 158.712 149.444 160.61 150.113C160.697 150.145 160.646 150.287 160.555 150.269C158.551 149.852 156.562 149.233 154.944 147.917C154.87 147.867 154.948 147.784 155.017 147.821Z" fill="#263238"/>
<path d="M170.511 143.695C170.511 143.594 170.639 143.539 170.667 143.64C171.189 145.391 171.547 147.248 171.043 149.036C171.043 149.104 170.91 149.109 170.905 149.036C170.818 147.243 170.914 145.492 170.511 143.695Z" fill="#263238"/>
<path d="M162.663 139.675C163.268 140.544 163.557 141.594 163.484 142.65C163.484 142.714 163.374 142.756 163.355 142.65C163.126 141.651 162.741 140.739 162.439 139.767C162.437 139.74 162.444 139.714 162.458 139.691C162.473 139.669 162.493 139.651 162.518 139.641C162.543 139.631 162.57 139.629 162.596 139.635C162.622 139.641 162.646 139.655 162.663 139.675Z" fill="#263238"/>
<path d="M199.335 164.718C198.419 167.606 196.264 171.594 192.84 171.63C190.621 171.63 188.384 171.387 186.161 171.355C183.777 171.319 181.394 171.323 179.014 171.465C178.822 171.465 179.299 164.333 185.024 160.853C186.628 159.877 188.59 159.57 190.41 159.176C192.494 158.683 194.632 158.459 196.773 158.511C198.088 158.566 199.184 158.846 199.652 160.189C200.119 161.532 199.757 163.347 199.335 164.718Z" fill="#00B2D0"/>
<path d="M196.86 161.115C195.485 161.472 194.064 161.88 192.666 162.325C193.03 161.93 193.416 161.555 193.821 161.202C194.421 160.702 195.081 160.285 195.723 159.868C195.778 159.831 195.746 159.726 195.677 159.753C194.323 160.316 193.152 161.246 192.299 162.439C190.561 163.003 188.838 163.622 187.178 164.305C186.032 164.773 184.933 165.35 183.896 166.029C184.229 165.307 184.626 164.616 185.084 163.966C185.845 162.98 186.871 162.43 187.866 161.733C187.886 161.721 187.901 161.702 187.906 161.679C187.912 161.656 187.908 161.632 187.896 161.612C187.884 161.592 187.864 161.577 187.841 161.572C187.819 161.566 187.794 161.57 187.774 161.582C186.731 162.03 185.794 162.691 185.021 163.523C184.249 164.355 183.66 165.34 183.291 166.414C182.113 167.273 181.037 168.263 180.082 169.366C176.291 173.67 173.307 179.396 173.298 185.236C173.298 185.378 173.523 185.414 173.55 185.272C174.521 179.544 177.017 174.182 180.775 169.751C181.045 169.434 181.325 169.137 181.604 168.834C182.642 168.694 183.688 168.616 184.735 168.6C185.955 168.6 187.165 168.779 188.38 168.88C190.378 169.04 192.588 169.068 194.389 168.059C194.407 168.05 194.421 168.033 194.428 168.014C194.435 167.995 194.434 167.973 194.426 167.954C194.418 167.935 194.403 167.92 194.384 167.912C194.366 167.903 194.345 167.902 194.325 167.908C190.309 169.37 186.074 167.518 182.063 168.389C183.788 166.746 185.811 165.445 188.022 164.557L188.393 164.41C190.974 164.718 193.697 165.391 196.209 164.553C196.225 164.548 196.238 164.538 196.246 164.524C196.255 164.51 196.257 164.493 196.253 164.477C196.248 164.461 196.238 164.448 196.224 164.439C196.21 164.431 196.193 164.429 196.177 164.433C193.747 165.038 191.419 164.277 189.026 164.158C191.634 163.141 194.293 162.325 196.91 161.325C197.094 161.243 197.098 161.041 196.86 161.115Z" fill="#263238"/>
<path d="M197.997 163.645C196.751 163.806 195.498 163.901 194.242 163.929C194.215 163.929 194.206 163.975 194.242 163.98C195.506 164.215 196.809 164.133 198.033 163.741C198.084 163.723 198.056 163.636 197.997 163.645Z" fill="#263238"/>
<path d="M189.516 161.17C188.823 161.48 188.194 161.917 187.66 162.458C187.591 162.517 187.683 162.637 187.752 162.581C188.068 162.352 188.393 162.123 188.719 161.926C189.035 161.752 189.341 161.561 189.636 161.353C189.709 161.284 189.617 161.115 189.516 161.17Z" fill="#263238"/>
<path d="M169.301 170.466C169.342 170.558 169.205 170.649 169.15 170.548C169.14 170.564 169.127 170.576 169.112 170.586C169.097 170.595 169.08 170.601 169.063 170.603C166.758 171.155 164.422 171.563 162.067 171.827C160.174 171.992 157.992 172.098 156.333 171.002C154.087 169.512 152.611 165.529 153.825 162.999C155.26 159.996 159.587 161.623 161.76 162.696C165.103 164.327 167.77 167.076 169.301 170.466Z" fill="#00B2D0"/>
<path d="M170.979 171.855C169.717 170.633 168.315 169.566 166.803 168.674C165.713 166.95 164.269 165.478 162.567 164.355C162.484 164.3 162.416 164.429 162.489 164.488C163.843 165.573 165.045 166.836 166.06 168.243C164.372 167.322 162.62 166.525 160.816 165.859C160.174 164.664 159.196 163.683 158.001 163.04C157.978 163.04 157.951 163.04 157.974 163.076C158.958 163.826 159.816 164.726 160.518 165.744C159.45 165.346 158.377 164.979 157.309 164.621C157.213 164.589 157.176 164.736 157.268 164.773C159.184 165.52 161.137 166.308 163.035 167.216C160.722 167.585 158.366 167.585 156.053 167.216C156.041 167.214 156.028 167.216 156.018 167.223C156.008 167.23 156 167.24 155.997 167.252C155.993 167.264 155.994 167.276 156 167.287C156.005 167.299 156.014 167.307 156.026 167.312C158.438 168.027 161 168.067 163.433 167.427C164.642 168.012 165.814 168.669 166.945 169.393C165.992 169.314 165.034 169.393 164.107 169.627C162.47 170.006 160.795 170.196 159.115 170.191C159.051 170.191 159.037 170.292 159.115 170.301C162.008 170.801 164.744 169.485 167.614 169.842C168.679 170.567 169.679 171.383 170.603 172.281C172.393 174.071 173.867 176.151 174.962 178.433C176.168 180.89 176.823 183.475 177.8 186.033C177.806 186.057 177.821 186.077 177.842 186.09C177.863 186.102 177.888 186.106 177.912 186.1C177.936 186.094 177.956 186.078 177.968 186.057C177.981 186.036 177.985 186.011 177.978 185.987C177.121 180.945 174.628 175.421 170.979 171.855Z" fill="#263238"/>
<path d="M162.246 164.983C162.055 164.636 161.804 164.325 161.503 164.067C161.262 163.802 160.973 163.586 160.651 163.429C160.623 163.429 160.605 163.457 160.623 163.475C160.862 163.746 161.192 163.934 161.448 164.2C161.705 164.465 161.907 164.763 162.177 165.02C162.184 165.024 162.192 165.026 162.2 165.026C162.207 165.026 162.215 165.025 162.222 165.021C162.229 165.017 162.235 165.012 162.239 165.005C162.243 164.999 162.246 164.991 162.246 164.983Z" fill="#263238"/>
<path d="M157.474 166.537C157.043 166.432 156.589 166.441 156.154 166.35C155.72 166.246 155.291 166.119 154.87 165.969C154.859 165.967 154.847 165.969 154.837 165.975C154.827 165.98 154.819 165.989 154.815 166C154.81 166.011 154.81 166.023 154.813 166.034C154.817 166.045 154.824 166.054 154.834 166.061C155.624 166.547 156.551 166.763 157.474 166.675C157.488 166.67 157.5 166.66 157.509 166.648C157.517 166.636 157.522 166.621 157.522 166.606C157.522 166.591 157.517 166.577 157.509 166.564C157.5 166.552 157.488 166.543 157.474 166.537Z" fill="#263238"/>
<path d="M184.744 177.154L184.272 182.517L182.672 200.62H168.494L166.491 182.517L165.9 177.154H184.744Z" fill="#455A64"/>
<path d="M184.744 177.154L184.272 182.517H166.491L165.9 177.154H184.744Z" fill="#263238"/>
<path d="M186.147 175.692H164.497V180.042H186.147V175.692Z" fill="#455A64"/>
</svg>
